G04 MADE WITH FRITZING*
G04 WWW.FRITZING.ORG*
G04 DOUBLE SIDED*
G04 HOLES PLATED*
G04 CONTOUR ON CENTER OF CONTOUR VECTOR*
%ASAXBY*%
%FSLAX23Y23*%
%MOIN*%
%OFA0B0*%
%SFA1.0B1.0*%
%ADD10C,0.085000*%
%ADD11C,0.096614*%
%ADD12C,0.088000*%
%ADD13R,0.085000X0.085000*%
%LNMASK1*%
G90*
G70*
G54D10*
X126Y899D03*
X526Y899D03*
X1126Y999D03*
X1126Y199D03*
X1226Y399D03*
X1226Y999D03*
X1326Y499D03*
X1326Y999D03*
X1426Y599D03*
X1426Y999D03*
X1626Y499D03*
X1626Y999D03*
X726Y99D03*
X1326Y99D03*
G54D11*
X1726Y99D03*
X1726Y1251D03*
X426Y599D03*
X126Y1251D03*
G54D10*
X1426Y199D03*
X1426Y299D03*
X1426Y399D03*
G54D12*
X1726Y499D03*
X1726Y399D03*
G54D10*
X626Y899D03*
X926Y899D03*
X626Y799D03*
X926Y799D03*
X626Y699D03*
X926Y699D03*
X626Y599D03*
X926Y599D03*
X626Y499D03*
X926Y499D03*
X626Y399D03*
X926Y399D03*
X626Y299D03*
X926Y299D03*
X626Y199D03*
X926Y199D03*
G54D12*
X1726Y899D03*
X1726Y799D03*
G54D10*
X126Y1099D03*
X226Y1099D03*
X326Y1099D03*
X426Y1099D03*
X526Y1099D03*
X626Y1099D03*
X726Y1099D03*
X826Y1099D03*
X926Y1099D03*
X1026Y1099D03*
X1126Y1099D03*
X1226Y1099D03*
X1326Y1099D03*
X1426Y1099D03*
X1526Y1099D03*
X1626Y1099D03*
X1526Y999D03*
X1526Y599D03*
G54D13*
X626Y899D03*
X126Y1099D03*
G04 End of Mask1*
M02*