G04 MADE WITH FRITZING*
G04 WWW.FRITZING.ORG*
G04 DOUBLE SIDED*
G04 HOLES PLATED*
G04 CONTOUR ON CENTER OF CONTOUR VECTOR*
%ASAXBY*%
%FSLAX23Y23*%
%MOIN*%
%OFA0B0*%
%SFA1.0B1.0*%
%ADD10C,0.085000*%
%ADD11C,0.088000*%
%ADD12C,0.096614*%
%ADD13R,0.085000X0.085000*%
%LNMASK1*%
G90*
G70*
G54D10*
X1009Y918D03*
X1609Y918D03*
X1009Y818D03*
X1609Y818D03*
X509Y318D03*
X709Y318D03*
X1609Y118D03*
X1609Y218D03*
X1609Y318D03*
G54D11*
X1709Y518D03*
X1709Y418D03*
G54D10*
X708Y419D03*
X708Y719D03*
X808Y419D03*
X808Y719D03*
X908Y419D03*
X908Y719D03*
X1008Y419D03*
X1008Y719D03*
X1108Y419D03*
X1108Y719D03*
X1208Y419D03*
X1208Y719D03*
X1308Y419D03*
X1308Y719D03*
X1408Y419D03*
X1408Y719D03*
G54D11*
X1709Y918D03*
X1709Y818D03*
G54D10*
X109Y1118D03*
X209Y1118D03*
X309Y1118D03*
X409Y1118D03*
X509Y1118D03*
X609Y1118D03*
X709Y1118D03*
X809Y1118D03*
X909Y1118D03*
X1009Y1118D03*
X1109Y1118D03*
X1209Y1118D03*
X1309Y1118D03*
X1409Y1118D03*
X1509Y1118D03*
X1609Y1118D03*
G54D12*
X109Y1257D03*
X1709Y679D03*
X1309Y218D03*
G54D13*
X708Y419D03*
X108Y1118D03*
G04 End of Mask1*
M02*