; NON-PLATED HOLES START AT T1
; THROUGH (PLATED) HOLES START AT T100
M48
INCH
T1C0.086614
T100C0.029000
T101C0.035000
T102C0.038000
%
T1
X001085Y012574
X017085Y006787
X013085Y002181
T100
X004085Y003181
X003025Y002180
X001965Y003181
T101
X014083Y007191
X009083Y004191
X012085Y011176
X005085Y011176
X009085Y011176
X005085Y003181
X012083Y004191
X003085Y011176
X013083Y004191
X015085Y011176
X014083Y004191
X014085Y011176
X007083Y007191
X010085Y008180
X012083Y007191
X004085Y011176
X016085Y009180
X006085Y011176
X010083Y004191
X007085Y011176
X013085Y011176
X016085Y002181
X016085Y011176
X011083Y007191
X011083Y004191
X013083Y007191
X008083Y007191
X016085Y003181
X001085Y011176
X016085Y008180
X002085Y011176
X016085Y001181
X009083Y007191
X007085Y003181
X011085Y011176
X010085Y009180
X010085Y011176
X008083Y004191
X007083Y004191
X008085Y011176
X010083Y007191
T102
X017085Y004180
X017085Y009180
X017085Y005180
X017085Y008180
T00
M30
