G04 MADE WITH FRITZING*
G04 WWW.FRITZING.ORG*
G04 SINGLE SIDED*
G04 HOLES NOT PLATED*
G04 CONTOUR ON CENTER OF CONTOUR VECTOR*
%ASAXBY*%
%FSLAX23Y23*%
%MOIN*%
%OFA0B0*%
%SFA1.0B1.0*%
%ADD10R,1.886540X1.338580X1.870540X1.322580*%
%ADD11C,0.008000*%
%ADD12R,1.610000X0.110000X1.590000X0.090000*%
%ADD13C,0.010000*%
%ADD14C,0.021000*%
%ADD15C,0.005000*%
%ADD16R,0.001000X0.001000*%
%LNSILK1*%
G90*
G70*
G54D11*
X4Y1335D02*
X1883Y1335D01*
X1883Y4D01*
X4Y4D01*
X4Y1335D01*
D02*
G54D13*
X81Y1149D02*
X1681Y1149D01*
X1681Y1049D01*
X81Y1049D01*
X81Y1149D01*
D02*
G54D14*
X164Y899D02*
X489Y899D01*
D02*
X1126Y961D02*
X1126Y236D01*
D02*
X1226Y436D02*
X1226Y961D01*
D02*
X1326Y536D02*
X1326Y961D01*
D02*
X1426Y636D02*
X1426Y961D01*
D02*
X1626Y536D02*
X1626Y961D01*
D02*
X764Y99D02*
X1289Y99D01*
D02*
X1526Y961D02*
X1526Y436D01*
G54D13*
D02*
X1362Y229D02*
X1362Y369D01*
D02*
X1676Y349D02*
X1676Y149D01*
D02*
X1676Y149D02*
X1776Y149D01*
D02*
X1776Y149D02*
X1776Y349D01*
D02*
X1776Y349D02*
X1676Y349D01*
G54D15*
D02*
X1676Y314D02*
X1711Y349D01*
G54D13*
D02*
X1676Y749D02*
X1676Y549D01*
D02*
X1676Y549D02*
X1776Y549D01*
D02*
X1776Y549D02*
X1776Y749D01*
D02*
X1776Y749D02*
X1676Y749D01*
G54D15*
D02*
X1676Y714D02*
X1711Y749D01*
G54D13*
D02*
X576Y949D02*
X576Y149D01*
D02*
X576Y149D02*
X976Y149D01*
D02*
X976Y149D02*
X976Y949D01*
D02*
X576Y949D02*
X726Y949D01*
D02*
X826Y949D02*
X976Y949D01*
G54D16*
X1525Y1145D02*
X1528Y1145D01*
X1625Y1145D02*
X1628Y1145D01*
X1725Y1145D02*
X1728Y1145D01*
X1808Y1145D02*
X1828Y1145D01*
X1524Y1144D02*
X1529Y1144D01*
X1624Y1144D02*
X1629Y1144D01*
X1724Y1144D02*
X1729Y1144D01*
X1807Y1144D02*
X1829Y1144D01*
X1524Y1143D02*
X1530Y1143D01*
X1624Y1143D02*
X1629Y1143D01*
X1724Y1143D02*
X1729Y1143D01*
X1807Y1143D02*
X1829Y1143D01*
X1524Y1142D02*
X1530Y1142D01*
X1624Y1142D02*
X1630Y1142D01*
X1724Y1142D02*
X1730Y1142D01*
X1806Y1142D02*
X1830Y1142D01*
X1524Y1141D02*
X1530Y1141D01*
X1624Y1141D02*
X1630Y1141D01*
X1724Y1141D02*
X1730Y1141D01*
X1806Y1141D02*
X1830Y1141D01*
X1524Y1140D02*
X1530Y1140D01*
X1624Y1140D02*
X1630Y1140D01*
X1724Y1140D02*
X1730Y1140D01*
X1806Y1140D02*
X1830Y1140D01*
X1524Y1139D02*
X1530Y1139D01*
X1624Y1139D02*
X1630Y1139D01*
X1724Y1139D02*
X1730Y1139D01*
X1806Y1139D02*
X1830Y1139D01*
X1524Y1138D02*
X1530Y1138D01*
X1624Y1138D02*
X1630Y1138D01*
X1724Y1138D02*
X1730Y1138D01*
X1806Y1138D02*
X1812Y1138D01*
X1820Y1138D02*
X1830Y1138D01*
X1524Y1137D02*
X1530Y1137D01*
X1624Y1137D02*
X1630Y1137D01*
X1724Y1137D02*
X1730Y1137D01*
X1806Y1137D02*
X1812Y1137D01*
X1820Y1137D02*
X1830Y1137D01*
X1524Y1136D02*
X1530Y1136D01*
X1624Y1136D02*
X1630Y1136D01*
X1724Y1136D02*
X1730Y1136D01*
X1806Y1136D02*
X1812Y1136D01*
X1820Y1136D02*
X1830Y1136D01*
X1524Y1135D02*
X1530Y1135D01*
X1624Y1135D02*
X1630Y1135D01*
X1724Y1135D02*
X1730Y1135D01*
X1806Y1135D02*
X1812Y1135D01*
X1820Y1135D02*
X1830Y1135D01*
X1524Y1134D02*
X1530Y1134D01*
X1624Y1134D02*
X1630Y1134D01*
X1724Y1134D02*
X1730Y1134D01*
X1806Y1134D02*
X1812Y1134D01*
X1820Y1134D02*
X1830Y1134D01*
X1524Y1133D02*
X1530Y1133D01*
X1624Y1133D02*
X1630Y1133D01*
X1724Y1133D02*
X1730Y1133D01*
X1806Y1133D02*
X1812Y1133D01*
X1820Y1133D02*
X1830Y1133D01*
X1524Y1132D02*
X1530Y1132D01*
X1624Y1132D02*
X1630Y1132D01*
X1651Y1132D02*
X1654Y1132D01*
X1663Y1132D02*
X1670Y1132D01*
X1724Y1132D02*
X1730Y1132D01*
X1751Y1132D02*
X1754Y1132D01*
X1763Y1132D02*
X1770Y1132D01*
X1806Y1132D02*
X1812Y1132D01*
X1820Y1132D02*
X1830Y1132D01*
X1851Y1132D02*
X1854Y1132D01*
X1863Y1132D02*
X1870Y1132D01*
X1524Y1131D02*
X1530Y1131D01*
X1580Y1131D02*
X1580Y1131D01*
X1602Y1131D02*
X1602Y1131D01*
X1611Y1131D02*
X1612Y1131D01*
X1624Y1131D02*
X1630Y1131D01*
X1650Y1131D02*
X1655Y1131D01*
X1661Y1131D02*
X1672Y1131D01*
X1680Y1131D02*
X1680Y1131D01*
X1702Y1131D02*
X1702Y1131D01*
X1711Y1131D02*
X1721Y1131D01*
X1724Y1131D02*
X1730Y1131D01*
X1750Y1131D02*
X1755Y1131D01*
X1761Y1131D02*
X1774Y1131D01*
X1780Y1131D02*
X1780Y1131D01*
X1802Y1131D02*
X1802Y1131D01*
X1806Y1131D02*
X1830Y1131D01*
X1850Y1131D02*
X1855Y1131D01*
X1861Y1131D02*
X1874Y1131D01*
X1880Y1131D02*
X1880Y1131D01*
X1524Y1130D02*
X1530Y1130D01*
X1551Y1130D02*
X1554Y1130D01*
X1578Y1130D02*
X1582Y1130D01*
X1600Y1130D02*
X1604Y1130D01*
X1608Y1130D02*
X1615Y1130D01*
X1622Y1130D02*
X1630Y1130D01*
X1650Y1130D02*
X1655Y1130D01*
X1659Y1130D02*
X1674Y1130D01*
X1678Y1130D02*
X1682Y1130D01*
X1700Y1130D02*
X1704Y1130D01*
X1708Y1130D02*
X1730Y1130D01*
X1750Y1130D02*
X1755Y1130D01*
X1759Y1130D02*
X1782Y1130D01*
X1800Y1130D02*
X1804Y1130D01*
X1806Y1130D02*
X1830Y1130D01*
X1850Y1130D02*
X1855Y1130D01*
X1859Y1130D02*
X1882Y1130D01*
X1524Y1129D02*
X1530Y1129D01*
X1550Y1129D02*
X1555Y1129D01*
X1577Y1129D02*
X1583Y1129D01*
X1599Y1129D02*
X1616Y1129D01*
X1620Y1129D02*
X1630Y1129D01*
X1650Y1129D02*
X1656Y1129D01*
X1658Y1129D02*
X1675Y1129D01*
X1677Y1129D02*
X1683Y1129D01*
X1699Y1129D02*
X1730Y1129D01*
X1749Y1129D02*
X1755Y1129D01*
X1758Y1129D02*
X1783Y1129D01*
X1799Y1129D02*
X1830Y1129D01*
X1849Y1129D02*
X1855Y1129D01*
X1858Y1129D02*
X1883Y1129D01*
X1524Y1128D02*
X1530Y1128D01*
X1550Y1128D02*
X1555Y1128D01*
X1577Y1128D02*
X1583Y1128D01*
X1599Y1128D02*
X1617Y1128D01*
X1619Y1128D02*
X1631Y1128D01*
X1650Y1128D02*
X1683Y1128D01*
X1699Y1128D02*
X1730Y1128D01*
X1749Y1128D02*
X1783Y1128D01*
X1799Y1128D02*
X1830Y1128D01*
X1849Y1128D02*
X1883Y1128D01*
X1524Y1127D02*
X1530Y1127D01*
X1550Y1127D02*
X1556Y1127D01*
X1577Y1127D02*
X1583Y1127D01*
X1599Y1127D02*
X1631Y1127D01*
X1650Y1127D02*
X1683Y1127D01*
X1699Y1127D02*
X1731Y1127D01*
X1749Y1127D02*
X1783Y1127D01*
X1799Y1127D02*
X1831Y1127D01*
X1849Y1127D02*
X1883Y1127D01*
X1524Y1126D02*
X1530Y1126D01*
X1550Y1126D02*
X1556Y1126D01*
X1577Y1126D02*
X1583Y1126D01*
X1599Y1126D02*
X1632Y1126D01*
X1650Y1126D02*
X1683Y1126D01*
X1699Y1126D02*
X1732Y1126D01*
X1749Y1126D02*
X1783Y1126D01*
X1799Y1126D02*
X1832Y1126D01*
X1849Y1126D02*
X1883Y1126D01*
X1524Y1125D02*
X1530Y1125D01*
X1550Y1125D02*
X1556Y1125D01*
X1577Y1125D02*
X1583Y1125D01*
X1599Y1125D02*
X1632Y1125D01*
X1650Y1125D02*
X1663Y1125D01*
X1669Y1125D02*
X1683Y1125D01*
X1699Y1125D02*
X1732Y1125D01*
X1749Y1125D02*
X1783Y1125D01*
X1799Y1125D02*
X1832Y1125D01*
X1849Y1125D02*
X1883Y1125D01*
X1524Y1124D02*
X1530Y1124D01*
X1550Y1124D02*
X1556Y1124D01*
X1577Y1124D02*
X1583Y1124D01*
X1599Y1124D02*
X1610Y1124D01*
X1612Y1124D02*
X1632Y1124D01*
X1650Y1124D02*
X1662Y1124D01*
X1671Y1124D02*
X1683Y1124D01*
X1699Y1124D02*
X1732Y1124D01*
X1749Y1124D02*
X1767Y1124D01*
X1771Y1124D02*
X1783Y1124D01*
X1799Y1124D02*
X1832Y1124D01*
X1849Y1124D02*
X1867Y1124D01*
X1871Y1124D02*
X1883Y1124D01*
X1524Y1123D02*
X1530Y1123D01*
X1550Y1123D02*
X1556Y1123D01*
X1577Y1123D02*
X1583Y1123D01*
X1599Y1123D02*
X1609Y1123D01*
X1613Y1123D02*
X1633Y1123D01*
X1650Y1123D02*
X1661Y1123D01*
X1672Y1123D02*
X1683Y1123D01*
X1699Y1123D02*
X1709Y1123D01*
X1713Y1123D02*
X1733Y1123D01*
X1749Y1123D02*
X1766Y1123D01*
X1772Y1123D02*
X1783Y1123D01*
X1799Y1123D02*
X1832Y1123D01*
X1849Y1123D02*
X1866Y1123D01*
X1872Y1123D02*
X1883Y1123D01*
X1524Y1122D02*
X1530Y1122D01*
X1550Y1122D02*
X1556Y1122D01*
X1577Y1122D02*
X1583Y1122D01*
X1599Y1122D02*
X1608Y1122D01*
X1613Y1122D02*
X1622Y1122D01*
X1624Y1122D02*
X1633Y1122D01*
X1650Y1122D02*
X1660Y1122D01*
X1673Y1122D02*
X1683Y1122D01*
X1699Y1122D02*
X1708Y1122D01*
X1713Y1122D02*
X1722Y1122D01*
X1724Y1122D02*
X1733Y1122D01*
X1749Y1122D02*
X1765Y1122D01*
X1773Y1122D02*
X1783Y1122D01*
X1799Y1122D02*
X1833Y1122D01*
X1849Y1122D02*
X1865Y1122D01*
X1873Y1122D02*
X1883Y1122D01*
X1524Y1121D02*
X1530Y1121D01*
X1550Y1121D02*
X1556Y1121D01*
X1577Y1121D02*
X1583Y1121D01*
X1599Y1121D02*
X1607Y1121D01*
X1613Y1121D02*
X1620Y1121D01*
X1624Y1121D02*
X1633Y1121D01*
X1650Y1121D02*
X1659Y1121D01*
X1674Y1121D02*
X1683Y1121D01*
X1699Y1121D02*
X1707Y1121D01*
X1713Y1121D02*
X1720Y1121D01*
X1724Y1121D02*
X1733Y1121D01*
X1749Y1121D02*
X1763Y1121D01*
X1774Y1121D02*
X1783Y1121D01*
X1799Y1121D02*
X1833Y1121D01*
X1849Y1121D02*
X1863Y1121D01*
X1874Y1121D02*
X1883Y1121D01*
X1524Y1120D02*
X1530Y1120D01*
X1550Y1120D02*
X1556Y1120D01*
X1577Y1120D02*
X1583Y1120D01*
X1599Y1120D02*
X1605Y1120D01*
X1613Y1120D02*
X1619Y1120D01*
X1624Y1120D02*
X1633Y1120D01*
X1650Y1120D02*
X1658Y1120D01*
X1675Y1120D02*
X1683Y1120D01*
X1699Y1120D02*
X1706Y1120D01*
X1713Y1120D02*
X1719Y1120D01*
X1724Y1120D02*
X1733Y1120D01*
X1749Y1120D02*
X1762Y1120D01*
X1775Y1120D02*
X1783Y1120D01*
X1799Y1120D02*
X1833Y1120D01*
X1849Y1120D02*
X1862Y1120D01*
X1875Y1120D02*
X1883Y1120D01*
X1524Y1119D02*
X1530Y1119D01*
X1550Y1119D02*
X1556Y1119D01*
X1577Y1119D02*
X1583Y1119D01*
X1599Y1119D02*
X1605Y1119D01*
X1613Y1119D02*
X1619Y1119D01*
X1624Y1119D02*
X1633Y1119D01*
X1650Y1119D02*
X1657Y1119D01*
X1676Y1119D02*
X1683Y1119D01*
X1699Y1119D02*
X1706Y1119D01*
X1713Y1119D02*
X1719Y1119D01*
X1724Y1119D02*
X1733Y1119D01*
X1749Y1119D02*
X1761Y1119D01*
X1776Y1119D02*
X1783Y1119D01*
X1799Y1119D02*
X1833Y1119D01*
X1849Y1119D02*
X1861Y1119D01*
X1876Y1119D02*
X1883Y1119D01*
X1524Y1118D02*
X1530Y1118D01*
X1550Y1118D02*
X1556Y1118D01*
X1577Y1118D02*
X1583Y1118D01*
X1599Y1118D02*
X1605Y1118D01*
X1613Y1118D02*
X1619Y1118D01*
X1624Y1118D02*
X1633Y1118D01*
X1650Y1118D02*
X1656Y1118D01*
X1677Y1118D02*
X1683Y1118D01*
X1699Y1118D02*
X1706Y1118D01*
X1713Y1118D02*
X1719Y1118D01*
X1724Y1118D02*
X1733Y1118D01*
X1749Y1118D02*
X1760Y1118D01*
X1777Y1118D02*
X1783Y1118D01*
X1799Y1118D02*
X1833Y1118D01*
X1849Y1118D02*
X1860Y1118D01*
X1877Y1118D02*
X1883Y1118D01*
X1524Y1117D02*
X1530Y1117D01*
X1550Y1117D02*
X1556Y1117D01*
X1577Y1117D02*
X1583Y1117D01*
X1599Y1117D02*
X1605Y1117D01*
X1613Y1117D02*
X1619Y1117D01*
X1624Y1117D02*
X1633Y1117D01*
X1650Y1117D02*
X1656Y1117D01*
X1677Y1117D02*
X1683Y1117D01*
X1699Y1117D02*
X1706Y1117D01*
X1713Y1117D02*
X1719Y1117D01*
X1724Y1117D02*
X1733Y1117D01*
X1749Y1117D02*
X1759Y1117D01*
X1777Y1117D02*
X1783Y1117D01*
X1799Y1117D02*
X1833Y1117D01*
X1849Y1117D02*
X1859Y1117D01*
X1877Y1117D02*
X1883Y1117D01*
X1505Y1116D02*
X1507Y1116D01*
X1524Y1116D02*
X1530Y1116D01*
X1550Y1116D02*
X1556Y1116D01*
X1577Y1116D02*
X1583Y1116D01*
X1599Y1116D02*
X1607Y1116D01*
X1613Y1116D02*
X1619Y1116D01*
X1624Y1116D02*
X1633Y1116D01*
X1650Y1116D02*
X1656Y1116D01*
X1677Y1116D02*
X1683Y1116D01*
X1699Y1116D02*
X1707Y1116D01*
X1713Y1116D02*
X1719Y1116D01*
X1724Y1116D02*
X1733Y1116D01*
X1749Y1116D02*
X1758Y1116D01*
X1777Y1116D02*
X1783Y1116D01*
X1799Y1116D02*
X1833Y1116D01*
X1849Y1116D02*
X1858Y1116D01*
X1877Y1116D02*
X1883Y1116D01*
X1504Y1115D02*
X1508Y1115D01*
X1524Y1115D02*
X1530Y1115D01*
X1550Y1115D02*
X1556Y1115D01*
X1577Y1115D02*
X1583Y1115D01*
X1599Y1115D02*
X1608Y1115D01*
X1613Y1115D02*
X1619Y1115D01*
X1624Y1115D02*
X1633Y1115D01*
X1650Y1115D02*
X1656Y1115D01*
X1677Y1115D02*
X1683Y1115D01*
X1699Y1115D02*
X1708Y1115D01*
X1713Y1115D02*
X1719Y1115D01*
X1724Y1115D02*
X1733Y1115D01*
X1749Y1115D02*
X1756Y1115D01*
X1777Y1115D02*
X1783Y1115D01*
X1799Y1115D02*
X1808Y1115D01*
X1813Y1115D02*
X1819Y1115D01*
X1824Y1115D02*
X1833Y1115D01*
X1849Y1115D02*
X1856Y1115D01*
X1877Y1115D02*
X1883Y1115D01*
X1503Y1114D02*
X1509Y1114D01*
X1524Y1114D02*
X1530Y1114D01*
X1550Y1114D02*
X1556Y1114D01*
X1577Y1114D02*
X1583Y1114D01*
X1599Y1114D02*
X1609Y1114D01*
X1613Y1114D02*
X1619Y1114D01*
X1624Y1114D02*
X1633Y1114D01*
X1650Y1114D02*
X1656Y1114D01*
X1677Y1114D02*
X1683Y1114D01*
X1699Y1114D02*
X1709Y1114D01*
X1713Y1114D02*
X1719Y1114D01*
X1724Y1114D02*
X1733Y1114D01*
X1749Y1114D02*
X1756Y1114D01*
X1777Y1114D02*
X1783Y1114D01*
X1799Y1114D02*
X1809Y1114D01*
X1813Y1114D02*
X1819Y1114D01*
X1824Y1114D02*
X1833Y1114D01*
X1849Y1114D02*
X1856Y1114D01*
X1877Y1114D02*
X1883Y1114D01*
X1503Y1113D02*
X1509Y1113D01*
X1524Y1113D02*
X1530Y1113D01*
X1550Y1113D02*
X1556Y1113D01*
X1577Y1113D02*
X1583Y1113D01*
X1599Y1113D02*
X1609Y1113D01*
X1613Y1113D02*
X1619Y1113D01*
X1624Y1113D02*
X1633Y1113D01*
X1650Y1113D02*
X1656Y1113D01*
X1677Y1113D02*
X1683Y1113D01*
X1699Y1113D02*
X1733Y1113D01*
X1749Y1113D02*
X1756Y1113D01*
X1777Y1113D02*
X1783Y1113D01*
X1799Y1113D02*
X1833Y1113D01*
X1849Y1113D02*
X1856Y1113D01*
X1877Y1113D02*
X1883Y1113D01*
X1503Y1112D02*
X1509Y1112D01*
X1524Y1112D02*
X1530Y1112D01*
X1550Y1112D02*
X1556Y1112D01*
X1577Y1112D02*
X1583Y1112D01*
X1599Y1112D02*
X1609Y1112D01*
X1613Y1112D02*
X1619Y1112D01*
X1624Y1112D02*
X1633Y1112D01*
X1650Y1112D02*
X1656Y1112D01*
X1677Y1112D02*
X1683Y1112D01*
X1699Y1112D02*
X1733Y1112D01*
X1749Y1112D02*
X1756Y1112D01*
X1777Y1112D02*
X1783Y1112D01*
X1799Y1112D02*
X1833Y1112D01*
X1849Y1112D02*
X1856Y1112D01*
X1877Y1112D02*
X1883Y1112D01*
X1503Y1111D02*
X1509Y1111D01*
X1524Y1111D02*
X1530Y1111D01*
X1550Y1111D02*
X1556Y1111D01*
X1577Y1111D02*
X1583Y1111D01*
X1599Y1111D02*
X1609Y1111D01*
X1613Y1111D02*
X1619Y1111D01*
X1624Y1111D02*
X1633Y1111D01*
X1650Y1111D02*
X1656Y1111D01*
X1677Y1111D02*
X1683Y1111D01*
X1699Y1111D02*
X1733Y1111D01*
X1749Y1111D02*
X1756Y1111D01*
X1777Y1111D02*
X1783Y1111D01*
X1799Y1111D02*
X1833Y1111D01*
X1849Y1111D02*
X1856Y1111D01*
X1877Y1111D02*
X1883Y1111D01*
X1503Y1110D02*
X1509Y1110D01*
X1524Y1110D02*
X1530Y1110D01*
X1550Y1110D02*
X1556Y1110D01*
X1577Y1110D02*
X1583Y1110D01*
X1599Y1110D02*
X1609Y1110D01*
X1613Y1110D02*
X1619Y1110D01*
X1624Y1110D02*
X1633Y1110D01*
X1650Y1110D02*
X1656Y1110D01*
X1677Y1110D02*
X1683Y1110D01*
X1699Y1110D02*
X1733Y1110D01*
X1749Y1110D02*
X1756Y1110D01*
X1777Y1110D02*
X1783Y1110D01*
X1799Y1110D02*
X1833Y1110D01*
X1849Y1110D02*
X1856Y1110D01*
X1877Y1110D02*
X1883Y1110D01*
X1503Y1109D02*
X1509Y1109D01*
X1524Y1109D02*
X1530Y1109D01*
X1550Y1109D02*
X1556Y1109D01*
X1577Y1109D02*
X1583Y1109D01*
X1599Y1109D02*
X1609Y1109D01*
X1613Y1109D02*
X1619Y1109D01*
X1624Y1109D02*
X1633Y1109D01*
X1650Y1109D02*
X1656Y1109D01*
X1677Y1109D02*
X1683Y1109D01*
X1699Y1109D02*
X1733Y1109D01*
X1749Y1109D02*
X1756Y1109D01*
X1777Y1109D02*
X1783Y1109D01*
X1799Y1109D02*
X1833Y1109D01*
X1849Y1109D02*
X1856Y1109D01*
X1877Y1109D02*
X1883Y1109D01*
X1503Y1108D02*
X1509Y1108D01*
X1524Y1108D02*
X1530Y1108D01*
X1550Y1108D02*
X1556Y1108D01*
X1577Y1108D02*
X1583Y1108D01*
X1599Y1108D02*
X1609Y1108D01*
X1613Y1108D02*
X1619Y1108D01*
X1624Y1108D02*
X1633Y1108D01*
X1650Y1108D02*
X1656Y1108D01*
X1677Y1108D02*
X1683Y1108D01*
X1699Y1108D02*
X1733Y1108D01*
X1749Y1108D02*
X1756Y1108D01*
X1777Y1108D02*
X1783Y1108D01*
X1799Y1108D02*
X1833Y1108D01*
X1849Y1108D02*
X1856Y1108D01*
X1877Y1108D02*
X1883Y1108D01*
X1503Y1107D02*
X1509Y1107D01*
X1524Y1107D02*
X1530Y1107D01*
X1550Y1107D02*
X1556Y1107D01*
X1577Y1107D02*
X1583Y1107D01*
X1599Y1107D02*
X1609Y1107D01*
X1613Y1107D02*
X1619Y1107D01*
X1624Y1107D02*
X1633Y1107D01*
X1650Y1107D02*
X1656Y1107D01*
X1677Y1107D02*
X1683Y1107D01*
X1699Y1107D02*
X1733Y1107D01*
X1749Y1107D02*
X1756Y1107D01*
X1777Y1107D02*
X1783Y1107D01*
X1799Y1107D02*
X1833Y1107D01*
X1849Y1107D02*
X1856Y1107D01*
X1877Y1107D02*
X1883Y1107D01*
X1503Y1106D02*
X1509Y1106D01*
X1524Y1106D02*
X1530Y1106D01*
X1550Y1106D02*
X1556Y1106D01*
X1577Y1106D02*
X1583Y1106D01*
X1599Y1106D02*
X1609Y1106D01*
X1613Y1106D02*
X1619Y1106D01*
X1624Y1106D02*
X1633Y1106D01*
X1650Y1106D02*
X1656Y1106D01*
X1677Y1106D02*
X1683Y1106D01*
X1699Y1106D02*
X1709Y1106D01*
X1713Y1106D02*
X1719Y1106D01*
X1724Y1106D02*
X1733Y1106D01*
X1749Y1106D02*
X1756Y1106D01*
X1777Y1106D02*
X1783Y1106D01*
X1799Y1106D02*
X1809Y1106D01*
X1813Y1106D02*
X1819Y1106D01*
X1824Y1106D02*
X1833Y1106D01*
X1849Y1106D02*
X1856Y1106D01*
X1877Y1106D02*
X1883Y1106D01*
X1503Y1105D02*
X1509Y1105D01*
X1524Y1105D02*
X1530Y1105D01*
X1550Y1105D02*
X1556Y1105D01*
X1576Y1105D02*
X1583Y1105D01*
X1599Y1105D02*
X1609Y1105D01*
X1613Y1105D02*
X1619Y1105D01*
X1624Y1105D02*
X1633Y1105D01*
X1650Y1105D02*
X1656Y1105D01*
X1676Y1105D02*
X1683Y1105D01*
X1699Y1105D02*
X1709Y1105D01*
X1713Y1105D02*
X1719Y1105D01*
X1724Y1105D02*
X1733Y1105D01*
X1749Y1105D02*
X1756Y1105D01*
X1776Y1105D02*
X1783Y1105D01*
X1799Y1105D02*
X1809Y1105D01*
X1813Y1105D02*
X1819Y1105D01*
X1824Y1105D02*
X1833Y1105D01*
X1849Y1105D02*
X1856Y1105D01*
X1876Y1105D02*
X1883Y1105D01*
X1503Y1104D02*
X1509Y1104D01*
X1524Y1104D02*
X1530Y1104D01*
X1550Y1104D02*
X1556Y1104D01*
X1574Y1104D02*
X1583Y1104D01*
X1599Y1104D02*
X1609Y1104D01*
X1613Y1104D02*
X1619Y1104D01*
X1624Y1104D02*
X1633Y1104D01*
X1650Y1104D02*
X1657Y1104D01*
X1674Y1104D02*
X1683Y1104D01*
X1699Y1104D02*
X1709Y1104D01*
X1713Y1104D02*
X1719Y1104D01*
X1724Y1104D02*
X1733Y1104D01*
X1749Y1104D02*
X1757Y1104D01*
X1774Y1104D02*
X1783Y1104D01*
X1799Y1104D02*
X1809Y1104D01*
X1813Y1104D02*
X1819Y1104D01*
X1824Y1104D02*
X1833Y1104D01*
X1849Y1104D02*
X1857Y1104D01*
X1874Y1104D02*
X1883Y1104D01*
X1503Y1103D02*
X1509Y1103D01*
X1524Y1103D02*
X1530Y1103D01*
X1550Y1103D02*
X1556Y1103D01*
X1573Y1103D02*
X1583Y1103D01*
X1599Y1103D02*
X1609Y1103D01*
X1613Y1103D02*
X1619Y1103D01*
X1624Y1103D02*
X1633Y1103D01*
X1650Y1103D02*
X1658Y1103D01*
X1673Y1103D02*
X1683Y1103D01*
X1699Y1103D02*
X1709Y1103D01*
X1713Y1103D02*
X1719Y1103D01*
X1724Y1103D02*
X1733Y1103D01*
X1749Y1103D02*
X1758Y1103D01*
X1772Y1103D02*
X1783Y1103D01*
X1799Y1103D02*
X1809Y1103D01*
X1813Y1103D02*
X1819Y1103D01*
X1824Y1103D02*
X1833Y1103D01*
X1849Y1103D02*
X1858Y1103D01*
X1872Y1103D02*
X1883Y1103D01*
X1503Y1102D02*
X1509Y1102D01*
X1524Y1102D02*
X1530Y1102D01*
X1550Y1102D02*
X1556Y1102D01*
X1571Y1102D02*
X1583Y1102D01*
X1599Y1102D02*
X1609Y1102D01*
X1613Y1102D02*
X1619Y1102D01*
X1624Y1102D02*
X1633Y1102D01*
X1650Y1102D02*
X1659Y1102D01*
X1671Y1102D02*
X1683Y1102D01*
X1699Y1102D02*
X1709Y1102D01*
X1713Y1102D02*
X1719Y1102D01*
X1724Y1102D02*
X1733Y1102D01*
X1749Y1102D02*
X1759Y1102D01*
X1771Y1102D02*
X1783Y1102D01*
X1799Y1102D02*
X1809Y1102D01*
X1813Y1102D02*
X1819Y1102D01*
X1824Y1102D02*
X1833Y1102D01*
X1849Y1102D02*
X1859Y1102D01*
X1871Y1102D02*
X1883Y1102D01*
X1503Y1101D02*
X1509Y1101D01*
X1523Y1101D02*
X1530Y1101D01*
X1550Y1101D02*
X1557Y1101D01*
X1569Y1101D02*
X1583Y1101D01*
X1599Y1101D02*
X1609Y1101D01*
X1613Y1101D02*
X1619Y1101D01*
X1623Y1101D02*
X1633Y1101D01*
X1650Y1101D02*
X1660Y1101D01*
X1669Y1101D02*
X1683Y1101D01*
X1699Y1101D02*
X1709Y1101D01*
X1713Y1101D02*
X1719Y1101D01*
X1723Y1101D02*
X1733Y1101D01*
X1749Y1101D02*
X1760Y1101D01*
X1769Y1101D02*
X1783Y1101D01*
X1799Y1101D02*
X1809Y1101D01*
X1813Y1101D02*
X1819Y1101D01*
X1823Y1101D02*
X1833Y1101D01*
X1849Y1101D02*
X1860Y1101D01*
X1869Y1101D02*
X1883Y1101D01*
X1503Y1100D02*
X1510Y1100D01*
X1523Y1100D02*
X1529Y1100D01*
X1551Y1100D02*
X1557Y1100D01*
X1568Y1100D02*
X1583Y1100D01*
X1599Y1100D02*
X1610Y1100D01*
X1613Y1100D02*
X1619Y1100D01*
X1623Y1100D02*
X1633Y1100D01*
X1650Y1100D02*
X1661Y1100D01*
X1668Y1100D02*
X1683Y1100D01*
X1699Y1100D02*
X1710Y1100D01*
X1713Y1100D02*
X1719Y1100D01*
X1723Y1100D02*
X1733Y1100D01*
X1749Y1100D02*
X1761Y1100D01*
X1768Y1100D02*
X1783Y1100D01*
X1799Y1100D02*
X1810Y1100D01*
X1813Y1100D02*
X1819Y1100D01*
X1823Y1100D02*
X1833Y1100D01*
X1849Y1100D02*
X1861Y1100D01*
X1868Y1100D02*
X1883Y1100D01*
X1503Y1099D02*
X1511Y1099D01*
X1521Y1099D02*
X1529Y1099D01*
X1551Y1099D02*
X1558Y1099D01*
X1566Y1099D02*
X1583Y1099D01*
X1599Y1099D02*
X1611Y1099D01*
X1613Y1099D02*
X1619Y1099D01*
X1621Y1099D02*
X1633Y1099D01*
X1650Y1099D02*
X1662Y1099D01*
X1666Y1099D02*
X1683Y1099D01*
X1699Y1099D02*
X1711Y1099D01*
X1713Y1099D02*
X1719Y1099D01*
X1721Y1099D02*
X1733Y1099D01*
X1749Y1099D02*
X1762Y1099D01*
X1766Y1099D02*
X1783Y1099D01*
X1799Y1099D02*
X1811Y1099D01*
X1813Y1099D02*
X1819Y1099D01*
X1821Y1099D02*
X1833Y1099D01*
X1849Y1099D02*
X1862Y1099D01*
X1866Y1099D02*
X1883Y1099D01*
X1504Y1098D02*
X1529Y1098D01*
X1551Y1098D02*
X1583Y1098D01*
X1599Y1098D02*
X1633Y1098D01*
X1650Y1098D02*
X1683Y1098D01*
X1699Y1098D02*
X1733Y1098D01*
X1749Y1098D02*
X1783Y1098D01*
X1799Y1098D02*
X1833Y1098D01*
X1849Y1098D02*
X1883Y1098D01*
X1504Y1097D02*
X1528Y1097D01*
X1552Y1097D02*
X1575Y1097D01*
X1577Y1097D02*
X1583Y1097D01*
X1599Y1097D02*
X1634Y1097D01*
X1650Y1097D02*
X1683Y1097D01*
X1699Y1097D02*
X1733Y1097D01*
X1749Y1097D02*
X1783Y1097D01*
X1799Y1097D02*
X1833Y1097D01*
X1849Y1097D02*
X1883Y1097D01*
X1505Y1096D02*
X1528Y1096D01*
X1552Y1096D02*
X1574Y1096D01*
X1577Y1096D02*
X1583Y1096D01*
X1599Y1096D02*
X1634Y1096D01*
X1650Y1096D02*
X1683Y1096D01*
X1699Y1096D02*
X1734Y1096D01*
X1749Y1096D02*
X1783Y1096D01*
X1799Y1096D02*
X1834Y1096D01*
X1849Y1096D02*
X1883Y1096D01*
X1506Y1095D02*
X1527Y1095D01*
X1553Y1095D02*
X1572Y1095D01*
X1577Y1095D02*
X1583Y1095D01*
X1599Y1095D02*
X1634Y1095D01*
X1650Y1095D02*
X1683Y1095D01*
X1699Y1095D02*
X1734Y1095D01*
X1749Y1095D02*
X1783Y1095D01*
X1799Y1095D02*
X1833Y1095D01*
X1849Y1095D02*
X1883Y1095D01*
X1507Y1094D02*
X1526Y1094D01*
X1554Y1094D02*
X1570Y1094D01*
X1577Y1094D02*
X1583Y1094D01*
X1599Y1094D02*
X1605Y1094D01*
X1607Y1094D02*
X1626Y1094D01*
X1628Y1094D02*
X1633Y1094D01*
X1650Y1094D02*
X1675Y1094D01*
X1677Y1094D02*
X1683Y1094D01*
X1699Y1094D02*
X1733Y1094D01*
X1749Y1094D02*
X1775Y1094D01*
X1777Y1094D02*
X1783Y1094D01*
X1799Y1094D02*
X1833Y1094D01*
X1849Y1094D02*
X1875Y1094D01*
X1877Y1094D02*
X1883Y1094D01*
X1508Y1093D02*
X1524Y1093D01*
X1556Y1093D02*
X1569Y1093D01*
X1578Y1093D02*
X1582Y1093D01*
X1600Y1093D02*
X1604Y1093D01*
X1608Y1093D02*
X1624Y1093D01*
X1628Y1093D02*
X1633Y1093D01*
X1650Y1093D02*
X1674Y1093D01*
X1678Y1093D02*
X1682Y1093D01*
X1700Y1093D02*
X1704Y1093D01*
X1707Y1093D02*
X1733Y1093D01*
X1749Y1093D02*
X1774Y1093D01*
X1778Y1093D02*
X1782Y1093D01*
X1800Y1093D02*
X1833Y1093D01*
X1849Y1093D02*
X1874Y1093D01*
X1878Y1093D02*
X1882Y1093D01*
X1511Y1092D02*
X1522Y1092D01*
X1558Y1092D02*
X1566Y1092D01*
X1579Y1092D02*
X1581Y1092D01*
X1601Y1092D02*
X1603Y1092D01*
X1611Y1092D02*
X1622Y1092D01*
X1630Y1092D02*
X1632Y1092D01*
X1650Y1092D02*
X1656Y1092D01*
X1658Y1092D02*
X1672Y1092D01*
X1679Y1092D02*
X1681Y1092D01*
X1701Y1092D02*
X1703Y1092D01*
X1710Y1092D02*
X1731Y1092D01*
X1749Y1092D02*
X1756Y1092D01*
X1758Y1092D02*
X1772Y1092D01*
X1779Y1092D02*
X1781Y1092D01*
X1801Y1092D02*
X1831Y1092D01*
X1849Y1092D02*
X1855Y1092D01*
X1858Y1092D02*
X1872Y1092D01*
X1879Y1092D02*
X1881Y1092D01*
X1650Y1091D02*
X1656Y1091D01*
X1662Y1091D02*
X1671Y1091D01*
X1749Y1091D02*
X1756Y1091D01*
X1762Y1091D02*
X1771Y1091D01*
X1849Y1091D02*
X1855Y1091D01*
X1862Y1091D02*
X1871Y1091D01*
X1650Y1090D02*
X1656Y1090D01*
X1749Y1090D02*
X1756Y1090D01*
X1849Y1090D02*
X1855Y1090D01*
X1650Y1089D02*
X1656Y1089D01*
X1749Y1089D02*
X1756Y1089D01*
X1849Y1089D02*
X1855Y1089D01*
X1650Y1088D02*
X1656Y1088D01*
X1749Y1088D02*
X1756Y1088D01*
X1849Y1088D02*
X1855Y1088D01*
X1650Y1087D02*
X1656Y1087D01*
X1749Y1087D02*
X1756Y1087D01*
X1849Y1087D02*
X1855Y1087D01*
X1650Y1086D02*
X1656Y1086D01*
X1749Y1086D02*
X1756Y1086D01*
X1849Y1086D02*
X1855Y1086D01*
X1650Y1085D02*
X1656Y1085D01*
X1749Y1085D02*
X1756Y1085D01*
X1849Y1085D02*
X1855Y1085D01*
X1650Y1084D02*
X1656Y1084D01*
X1749Y1084D02*
X1756Y1084D01*
X1849Y1084D02*
X1855Y1084D01*
X1650Y1083D02*
X1656Y1083D01*
X1749Y1083D02*
X1756Y1083D01*
X1849Y1083D02*
X1855Y1083D01*
X1650Y1082D02*
X1656Y1082D01*
X1749Y1082D02*
X1756Y1082D01*
X1849Y1082D02*
X1855Y1082D01*
X1650Y1081D02*
X1656Y1081D01*
X1749Y1081D02*
X1756Y1081D01*
X1849Y1081D02*
X1855Y1081D01*
X1650Y1080D02*
X1655Y1080D01*
X1750Y1080D02*
X1755Y1080D01*
X1850Y1080D02*
X1855Y1080D01*
X1650Y1079D02*
X1655Y1079D01*
X1750Y1079D02*
X1755Y1079D01*
X1850Y1079D02*
X1855Y1079D01*
X1651Y1078D02*
X1654Y1078D01*
X1751Y1078D02*
X1754Y1078D01*
X1851Y1078D02*
X1854Y1078D01*
X525Y1045D02*
X529Y1045D01*
X801Y1045D02*
X833Y1045D01*
X524Y1044D02*
X529Y1044D01*
X800Y1044D02*
X833Y1044D01*
X524Y1043D02*
X530Y1043D01*
X800Y1043D02*
X833Y1043D01*
X524Y1042D02*
X530Y1042D01*
X800Y1042D02*
X833Y1042D01*
X524Y1041D02*
X530Y1041D01*
X800Y1041D02*
X833Y1041D01*
X524Y1040D02*
X530Y1040D01*
X800Y1040D02*
X833Y1040D01*
X524Y1039D02*
X530Y1039D01*
X800Y1039D02*
X833Y1039D01*
X995Y1039D02*
X1026Y1039D01*
X1058Y1039D02*
X1076Y1039D01*
X1095Y1039D02*
X1113Y1039D01*
X524Y1038D02*
X530Y1038D01*
X800Y1038D02*
X805Y1038D01*
X827Y1038D02*
X833Y1038D01*
X994Y1038D02*
X1027Y1038D01*
X1056Y1038D02*
X1077Y1038D01*
X1094Y1038D02*
X1113Y1038D01*
X524Y1037D02*
X530Y1037D01*
X801Y1037D02*
X805Y1037D01*
X827Y1037D02*
X833Y1037D01*
X994Y1037D02*
X1027Y1037D01*
X1055Y1037D02*
X1077Y1037D01*
X1094Y1037D02*
X1113Y1037D01*
X524Y1036D02*
X530Y1036D01*
X803Y1036D02*
X803Y1036D01*
X827Y1036D02*
X833Y1036D01*
X994Y1036D02*
X1027Y1036D01*
X1054Y1036D02*
X1077Y1036D01*
X1094Y1036D02*
X1113Y1036D01*
X524Y1035D02*
X530Y1035D01*
X827Y1035D02*
X833Y1035D01*
X994Y1035D02*
X1027Y1035D01*
X1053Y1035D02*
X1077Y1035D01*
X1094Y1035D02*
X1113Y1035D01*
X524Y1034D02*
X530Y1034D01*
X827Y1034D02*
X833Y1034D01*
X995Y1034D02*
X1026Y1034D01*
X1052Y1034D02*
X1076Y1034D01*
X1095Y1034D02*
X1113Y1034D01*
X524Y1033D02*
X530Y1033D01*
X827Y1033D02*
X833Y1033D01*
X996Y1033D02*
X1025Y1033D01*
X1052Y1033D02*
X1075Y1033D01*
X1096Y1033D02*
X1113Y1033D01*
X524Y1032D02*
X530Y1032D01*
X651Y1032D02*
X654Y1032D01*
X663Y1032D02*
X670Y1032D01*
X827Y1032D02*
X833Y1032D01*
X1007Y1032D02*
X1013Y1032D01*
X1051Y1032D02*
X1059Y1032D01*
X1107Y1032D02*
X1113Y1032D01*
X524Y1031D02*
X530Y1031D01*
X553Y1031D02*
X553Y1031D01*
X580Y1031D02*
X581Y1031D01*
X602Y1031D02*
X602Y1031D01*
X611Y1031D02*
X612Y1031D01*
X650Y1031D02*
X655Y1031D01*
X661Y1031D02*
X672Y1031D01*
X711Y1031D02*
X722Y1031D01*
X753Y1031D02*
X753Y1031D01*
X766Y1031D02*
X774Y1031D01*
X827Y1031D02*
X833Y1031D01*
X1007Y1031D02*
X1013Y1031D01*
X1051Y1031D02*
X1058Y1031D01*
X1107Y1031D02*
X1113Y1031D01*
X524Y1030D02*
X530Y1030D01*
X551Y1030D02*
X555Y1030D01*
X578Y1030D02*
X582Y1030D01*
X600Y1030D02*
X604Y1030D01*
X608Y1030D02*
X615Y1030D01*
X622Y1030D02*
X628Y1030D01*
X650Y1030D02*
X656Y1030D01*
X660Y1030D02*
X674Y1030D01*
X708Y1030D02*
X725Y1030D01*
X751Y1030D02*
X755Y1030D01*
X764Y1030D02*
X778Y1030D01*
X827Y1030D02*
X833Y1030D01*
X1007Y1030D02*
X1013Y1030D01*
X1050Y1030D02*
X1057Y1030D01*
X1107Y1030D02*
X1113Y1030D01*
X524Y1029D02*
X530Y1029D01*
X550Y1029D02*
X555Y1029D01*
X578Y1029D02*
X583Y1029D01*
X600Y1029D02*
X617Y1029D01*
X620Y1029D02*
X630Y1029D01*
X650Y1029D02*
X656Y1029D01*
X659Y1029D02*
X675Y1029D01*
X706Y1029D02*
X727Y1029D01*
X750Y1029D02*
X755Y1029D01*
X763Y1029D02*
X779Y1029D01*
X827Y1029D02*
X833Y1029D01*
X1007Y1029D02*
X1013Y1029D01*
X1050Y1029D02*
X1057Y1029D01*
X1107Y1029D02*
X1113Y1029D01*
X524Y1028D02*
X530Y1028D01*
X550Y1028D02*
X556Y1028D01*
X577Y1028D02*
X583Y1028D01*
X599Y1028D02*
X631Y1028D01*
X650Y1028D02*
X656Y1028D01*
X658Y1028D02*
X676Y1028D01*
X705Y1028D02*
X728Y1028D01*
X750Y1028D02*
X756Y1028D01*
X762Y1028D02*
X780Y1028D01*
X827Y1028D02*
X833Y1028D01*
X1007Y1028D02*
X1013Y1028D01*
X1049Y1028D02*
X1056Y1028D01*
X1107Y1028D02*
X1113Y1028D01*
X524Y1027D02*
X530Y1027D01*
X550Y1027D02*
X556Y1027D01*
X577Y1027D02*
X583Y1027D01*
X599Y1027D02*
X632Y1027D01*
X650Y1027D02*
X677Y1027D01*
X704Y1027D02*
X729Y1027D01*
X750Y1027D02*
X756Y1027D01*
X761Y1027D02*
X781Y1027D01*
X827Y1027D02*
X833Y1027D01*
X1007Y1027D02*
X1013Y1027D01*
X1049Y1027D02*
X1056Y1027D01*
X1107Y1027D02*
X1113Y1027D01*
X524Y1026D02*
X530Y1026D01*
X550Y1026D02*
X556Y1026D01*
X577Y1026D02*
X583Y1026D01*
X599Y1026D02*
X632Y1026D01*
X650Y1026D02*
X678Y1026D01*
X703Y1026D02*
X730Y1026D01*
X750Y1026D02*
X756Y1026D01*
X760Y1026D02*
X782Y1026D01*
X827Y1026D02*
X833Y1026D01*
X1007Y1026D02*
X1013Y1026D01*
X1048Y1026D02*
X1055Y1026D01*
X1107Y1026D02*
X1113Y1026D01*
X524Y1025D02*
X530Y1025D01*
X550Y1025D02*
X556Y1025D01*
X577Y1025D02*
X583Y1025D01*
X599Y1025D02*
X633Y1025D01*
X650Y1025D02*
X664Y1025D01*
X670Y1025D02*
X680Y1025D01*
X702Y1025D02*
X731Y1025D01*
X750Y1025D02*
X756Y1025D01*
X759Y1025D02*
X782Y1025D01*
X826Y1025D02*
X833Y1025D01*
X1007Y1025D02*
X1013Y1025D01*
X1048Y1025D02*
X1055Y1025D01*
X1107Y1025D02*
X1113Y1025D01*
X524Y1024D02*
X530Y1024D01*
X550Y1024D02*
X556Y1024D01*
X577Y1024D02*
X583Y1024D01*
X599Y1024D02*
X610Y1024D01*
X613Y1024D02*
X624Y1024D01*
X626Y1024D02*
X633Y1024D01*
X650Y1024D02*
X662Y1024D01*
X671Y1024D02*
X681Y1024D01*
X701Y1024D02*
X711Y1024D01*
X722Y1024D02*
X732Y1024D01*
X750Y1024D02*
X767Y1024D01*
X774Y1024D02*
X783Y1024D01*
X825Y1024D02*
X833Y1024D01*
X1007Y1024D02*
X1013Y1024D01*
X1047Y1024D02*
X1054Y1024D01*
X1107Y1024D02*
X1113Y1024D01*
X524Y1023D02*
X530Y1023D01*
X550Y1023D02*
X556Y1023D01*
X577Y1023D02*
X583Y1023D01*
X599Y1023D02*
X609Y1023D01*
X613Y1023D02*
X623Y1023D01*
X627Y1023D02*
X633Y1023D01*
X650Y1023D02*
X661Y1023D01*
X672Y1023D02*
X681Y1023D01*
X701Y1023D02*
X709Y1023D01*
X724Y1023D02*
X732Y1023D01*
X750Y1023D02*
X766Y1023D01*
X776Y1023D02*
X783Y1023D01*
X823Y1023D02*
X833Y1023D01*
X1007Y1023D02*
X1013Y1023D01*
X1047Y1023D02*
X1054Y1023D01*
X1107Y1023D02*
X1113Y1023D01*
X524Y1022D02*
X530Y1022D01*
X550Y1022D02*
X556Y1022D01*
X577Y1022D02*
X583Y1022D01*
X599Y1022D02*
X608Y1022D01*
X614Y1022D02*
X622Y1022D01*
X627Y1022D02*
X633Y1022D01*
X650Y1022D02*
X660Y1022D01*
X673Y1022D02*
X682Y1022D01*
X700Y1022D02*
X708Y1022D01*
X725Y1022D02*
X733Y1022D01*
X750Y1022D02*
X765Y1022D01*
X777Y1022D02*
X783Y1022D01*
X822Y1022D02*
X832Y1022D01*
X1007Y1022D02*
X1013Y1022D01*
X1046Y1022D02*
X1053Y1022D01*
X1107Y1022D02*
X1113Y1022D01*
X524Y1021D02*
X530Y1021D01*
X550Y1021D02*
X556Y1021D01*
X577Y1021D02*
X583Y1021D01*
X599Y1021D02*
X607Y1021D01*
X614Y1021D02*
X621Y1021D01*
X627Y1021D02*
X633Y1021D01*
X650Y1021D02*
X659Y1021D01*
X674Y1021D02*
X683Y1021D01*
X700Y1021D02*
X707Y1021D01*
X726Y1021D02*
X733Y1021D01*
X750Y1021D02*
X764Y1021D01*
X777Y1021D02*
X783Y1021D01*
X821Y1021D02*
X831Y1021D01*
X1007Y1021D02*
X1013Y1021D01*
X1046Y1021D02*
X1053Y1021D01*
X1107Y1021D02*
X1113Y1021D01*
X524Y1020D02*
X530Y1020D01*
X550Y1020D02*
X556Y1020D01*
X577Y1020D02*
X583Y1020D01*
X599Y1020D02*
X606Y1020D01*
X614Y1020D02*
X620Y1020D01*
X627Y1020D02*
X633Y1020D01*
X650Y1020D02*
X658Y1020D01*
X676Y1020D02*
X683Y1020D01*
X700Y1020D02*
X706Y1020D01*
X727Y1020D02*
X733Y1020D01*
X750Y1020D02*
X763Y1020D01*
X777Y1020D02*
X783Y1020D01*
X820Y1020D02*
X830Y1020D01*
X1007Y1020D02*
X1013Y1020D01*
X1045Y1020D02*
X1052Y1020D01*
X1107Y1020D02*
X1113Y1020D01*
X524Y1019D02*
X530Y1019D01*
X550Y1019D02*
X556Y1019D01*
X577Y1019D02*
X583Y1019D01*
X599Y1019D02*
X605Y1019D01*
X614Y1019D02*
X620Y1019D01*
X627Y1019D02*
X633Y1019D01*
X650Y1019D02*
X657Y1019D01*
X677Y1019D02*
X683Y1019D01*
X700Y1019D02*
X706Y1019D01*
X727Y1019D02*
X733Y1019D01*
X750Y1019D02*
X761Y1019D01*
X777Y1019D02*
X783Y1019D01*
X819Y1019D02*
X829Y1019D01*
X1007Y1019D02*
X1013Y1019D01*
X1045Y1019D02*
X1052Y1019D01*
X1107Y1019D02*
X1113Y1019D01*
X524Y1018D02*
X530Y1018D01*
X550Y1018D02*
X556Y1018D01*
X577Y1018D02*
X583Y1018D01*
X599Y1018D02*
X605Y1018D01*
X614Y1018D02*
X620Y1018D01*
X627Y1018D02*
X633Y1018D01*
X650Y1018D02*
X657Y1018D01*
X677Y1018D02*
X683Y1018D01*
X700Y1018D02*
X706Y1018D01*
X727Y1018D02*
X733Y1018D01*
X750Y1018D02*
X760Y1018D01*
X777Y1018D02*
X783Y1018D01*
X818Y1018D02*
X827Y1018D01*
X1007Y1018D02*
X1013Y1018D01*
X1045Y1018D02*
X1051Y1018D01*
X1107Y1018D02*
X1113Y1018D01*
X524Y1017D02*
X530Y1017D01*
X550Y1017D02*
X556Y1017D01*
X577Y1017D02*
X583Y1017D01*
X599Y1017D02*
X605Y1017D01*
X614Y1017D02*
X620Y1017D01*
X627Y1017D02*
X633Y1017D01*
X650Y1017D02*
X656Y1017D01*
X677Y1017D02*
X683Y1017D01*
X700Y1017D02*
X706Y1017D01*
X727Y1017D02*
X733Y1017D01*
X750Y1017D02*
X759Y1017D01*
X778Y1017D02*
X783Y1017D01*
X816Y1017D02*
X826Y1017D01*
X1007Y1017D02*
X1013Y1017D01*
X1044Y1017D02*
X1051Y1017D01*
X1107Y1017D02*
X1113Y1017D01*
X505Y1016D02*
X507Y1016D01*
X524Y1016D02*
X530Y1016D01*
X550Y1016D02*
X556Y1016D01*
X577Y1016D02*
X583Y1016D01*
X599Y1016D02*
X605Y1016D01*
X614Y1016D02*
X620Y1016D01*
X627Y1016D02*
X633Y1016D01*
X650Y1016D02*
X656Y1016D01*
X677Y1016D02*
X683Y1016D01*
X700Y1016D02*
X706Y1016D01*
X727Y1016D02*
X733Y1016D01*
X750Y1016D02*
X758Y1016D01*
X779Y1016D02*
X782Y1016D01*
X815Y1016D02*
X825Y1016D01*
X1007Y1016D02*
X1013Y1016D01*
X1044Y1016D02*
X1050Y1016D01*
X1107Y1016D02*
X1113Y1016D01*
X504Y1015D02*
X508Y1015D01*
X524Y1015D02*
X530Y1015D01*
X550Y1015D02*
X556Y1015D01*
X577Y1015D02*
X583Y1015D01*
X599Y1015D02*
X605Y1015D01*
X614Y1015D02*
X620Y1015D01*
X627Y1015D02*
X633Y1015D01*
X650Y1015D02*
X656Y1015D01*
X677Y1015D02*
X683Y1015D01*
X700Y1015D02*
X706Y1015D01*
X727Y1015D02*
X733Y1015D01*
X750Y1015D02*
X757Y1015D01*
X814Y1015D02*
X824Y1015D01*
X1007Y1015D02*
X1013Y1015D01*
X1044Y1015D02*
X1050Y1015D01*
X1107Y1015D02*
X1113Y1015D01*
X503Y1014D02*
X509Y1014D01*
X524Y1014D02*
X530Y1014D01*
X550Y1014D02*
X556Y1014D01*
X577Y1014D02*
X583Y1014D01*
X599Y1014D02*
X605Y1014D01*
X614Y1014D02*
X620Y1014D01*
X627Y1014D02*
X633Y1014D01*
X650Y1014D02*
X656Y1014D01*
X677Y1014D02*
X683Y1014D01*
X700Y1014D02*
X706Y1014D01*
X727Y1014D02*
X733Y1014D01*
X750Y1014D02*
X756Y1014D01*
X814Y1014D02*
X823Y1014D01*
X1007Y1014D02*
X1013Y1014D01*
X1044Y1014D02*
X1050Y1014D01*
X1107Y1014D02*
X1113Y1014D01*
X503Y1013D02*
X509Y1013D01*
X524Y1013D02*
X530Y1013D01*
X550Y1013D02*
X556Y1013D01*
X577Y1013D02*
X583Y1013D01*
X599Y1013D02*
X605Y1013D01*
X614Y1013D02*
X620Y1013D01*
X627Y1013D02*
X633Y1013D01*
X650Y1013D02*
X656Y1013D01*
X677Y1013D02*
X683Y1013D01*
X700Y1013D02*
X733Y1013D01*
X750Y1013D02*
X756Y1013D01*
X814Y1013D02*
X822Y1013D01*
X1007Y1013D02*
X1013Y1013D01*
X1044Y1013D02*
X1050Y1013D01*
X1107Y1013D02*
X1113Y1013D01*
X503Y1012D02*
X509Y1012D01*
X524Y1012D02*
X530Y1012D01*
X550Y1012D02*
X556Y1012D01*
X577Y1012D02*
X583Y1012D01*
X599Y1012D02*
X605Y1012D01*
X614Y1012D02*
X620Y1012D01*
X627Y1012D02*
X633Y1012D01*
X650Y1012D02*
X656Y1012D01*
X677Y1012D02*
X683Y1012D01*
X700Y1012D02*
X733Y1012D01*
X750Y1012D02*
X756Y1012D01*
X814Y1012D02*
X820Y1012D01*
X1007Y1012D02*
X1013Y1012D01*
X1044Y1012D02*
X1050Y1012D01*
X1107Y1012D02*
X1113Y1012D01*
X503Y1011D02*
X509Y1011D01*
X524Y1011D02*
X530Y1011D01*
X550Y1011D02*
X556Y1011D01*
X577Y1011D02*
X583Y1011D01*
X599Y1011D02*
X605Y1011D01*
X614Y1011D02*
X620Y1011D01*
X627Y1011D02*
X633Y1011D01*
X650Y1011D02*
X656Y1011D01*
X677Y1011D02*
X683Y1011D01*
X700Y1011D02*
X733Y1011D01*
X750Y1011D02*
X756Y1011D01*
X814Y1011D02*
X820Y1011D01*
X1007Y1011D02*
X1013Y1011D01*
X1044Y1011D02*
X1050Y1011D01*
X1107Y1011D02*
X1113Y1011D01*
X503Y1010D02*
X509Y1010D01*
X524Y1010D02*
X530Y1010D01*
X550Y1010D02*
X556Y1010D01*
X577Y1010D02*
X583Y1010D01*
X599Y1010D02*
X605Y1010D01*
X614Y1010D02*
X620Y1010D01*
X627Y1010D02*
X633Y1010D01*
X650Y1010D02*
X656Y1010D01*
X677Y1010D02*
X683Y1010D01*
X700Y1010D02*
X733Y1010D01*
X750Y1010D02*
X756Y1010D01*
X814Y1010D02*
X820Y1010D01*
X1007Y1010D02*
X1013Y1010D01*
X1044Y1010D02*
X1050Y1010D01*
X1107Y1010D02*
X1113Y1010D01*
X1123Y1010D02*
X1125Y1010D01*
X503Y1009D02*
X509Y1009D01*
X524Y1009D02*
X530Y1009D01*
X550Y1009D02*
X556Y1009D01*
X577Y1009D02*
X583Y1009D01*
X599Y1009D02*
X605Y1009D01*
X614Y1009D02*
X620Y1009D01*
X627Y1009D02*
X633Y1009D01*
X650Y1009D02*
X656Y1009D01*
X677Y1009D02*
X683Y1009D01*
X700Y1009D02*
X733Y1009D01*
X750Y1009D02*
X756Y1009D01*
X814Y1009D02*
X820Y1009D01*
X1007Y1009D02*
X1013Y1009D01*
X1044Y1009D02*
X1051Y1009D01*
X1107Y1009D02*
X1113Y1009D01*
X1122Y1009D02*
X1126Y1009D01*
X503Y1008D02*
X509Y1008D01*
X524Y1008D02*
X530Y1008D01*
X550Y1008D02*
X556Y1008D01*
X577Y1008D02*
X583Y1008D01*
X599Y1008D02*
X605Y1008D01*
X614Y1008D02*
X620Y1008D01*
X627Y1008D02*
X633Y1008D01*
X650Y1008D02*
X656Y1008D01*
X677Y1008D02*
X683Y1008D01*
X700Y1008D02*
X733Y1008D01*
X750Y1008D02*
X756Y1008D01*
X814Y1008D02*
X820Y1008D01*
X1007Y1008D02*
X1013Y1008D01*
X1045Y1008D02*
X1051Y1008D01*
X1107Y1008D02*
X1113Y1008D01*
X1121Y1008D02*
X1127Y1008D01*
X503Y1007D02*
X509Y1007D01*
X524Y1007D02*
X530Y1007D01*
X550Y1007D02*
X556Y1007D01*
X577Y1007D02*
X583Y1007D01*
X599Y1007D02*
X605Y1007D01*
X614Y1007D02*
X620Y1007D01*
X627Y1007D02*
X633Y1007D01*
X650Y1007D02*
X656Y1007D01*
X677Y1007D02*
X683Y1007D01*
X700Y1007D02*
X732Y1007D01*
X750Y1007D02*
X756Y1007D01*
X814Y1007D02*
X820Y1007D01*
X1007Y1007D02*
X1013Y1007D01*
X1045Y1007D02*
X1051Y1007D01*
X1107Y1007D02*
X1113Y1007D01*
X1121Y1007D02*
X1127Y1007D01*
X503Y1006D02*
X509Y1006D01*
X524Y1006D02*
X530Y1006D01*
X551Y1006D02*
X557Y1006D01*
X577Y1006D02*
X583Y1006D01*
X599Y1006D02*
X605Y1006D01*
X614Y1006D02*
X620Y1006D01*
X627Y1006D02*
X633Y1006D01*
X650Y1006D02*
X656Y1006D01*
X677Y1006D02*
X683Y1006D01*
X700Y1006D02*
X706Y1006D01*
X750Y1006D02*
X756Y1006D01*
X814Y1006D02*
X820Y1006D01*
X1007Y1006D02*
X1013Y1006D01*
X1045Y1006D02*
X1052Y1006D01*
X1107Y1006D02*
X1113Y1006D01*
X1121Y1006D02*
X1127Y1006D01*
X503Y1005D02*
X509Y1005D01*
X524Y1005D02*
X530Y1005D01*
X551Y1005D02*
X557Y1005D01*
X576Y1005D02*
X583Y1005D01*
X599Y1005D02*
X605Y1005D01*
X614Y1005D02*
X620Y1005D01*
X628Y1005D02*
X634Y1005D01*
X650Y1005D02*
X656Y1005D01*
X677Y1005D02*
X683Y1005D01*
X700Y1005D02*
X706Y1005D01*
X750Y1005D02*
X756Y1005D01*
X814Y1005D02*
X820Y1005D01*
X1007Y1005D02*
X1013Y1005D01*
X1046Y1005D02*
X1053Y1005D01*
X1107Y1005D02*
X1113Y1005D01*
X1121Y1005D02*
X1127Y1005D01*
X503Y1004D02*
X509Y1004D01*
X524Y1004D02*
X530Y1004D01*
X551Y1004D02*
X557Y1004D01*
X574Y1004D02*
X583Y1004D01*
X599Y1004D02*
X605Y1004D01*
X614Y1004D02*
X620Y1004D01*
X628Y1004D02*
X634Y1004D01*
X650Y1004D02*
X657Y1004D01*
X677Y1004D02*
X683Y1004D01*
X700Y1004D02*
X706Y1004D01*
X750Y1004D02*
X756Y1004D01*
X814Y1004D02*
X820Y1004D01*
X1007Y1004D02*
X1013Y1004D01*
X1046Y1004D02*
X1053Y1004D01*
X1107Y1004D02*
X1113Y1004D01*
X1121Y1004D02*
X1127Y1004D01*
X503Y1003D02*
X509Y1003D01*
X524Y1003D02*
X530Y1003D01*
X551Y1003D02*
X557Y1003D01*
X573Y1003D02*
X583Y1003D01*
X599Y1003D02*
X605Y1003D01*
X614Y1003D02*
X620Y1003D01*
X628Y1003D02*
X634Y1003D01*
X650Y1003D02*
X658Y1003D01*
X676Y1003D02*
X683Y1003D01*
X700Y1003D02*
X706Y1003D01*
X750Y1003D02*
X756Y1003D01*
X814Y1003D02*
X820Y1003D01*
X1007Y1003D02*
X1013Y1003D01*
X1047Y1003D02*
X1054Y1003D01*
X1107Y1003D02*
X1113Y1003D01*
X1121Y1003D02*
X1127Y1003D01*
X503Y1002D02*
X509Y1002D01*
X524Y1002D02*
X530Y1002D01*
X551Y1002D02*
X557Y1002D01*
X571Y1002D02*
X583Y1002D01*
X599Y1002D02*
X605Y1002D01*
X614Y1002D02*
X620Y1002D01*
X628Y1002D02*
X634Y1002D01*
X650Y1002D02*
X659Y1002D01*
X675Y1002D02*
X683Y1002D01*
X700Y1002D02*
X707Y1002D01*
X750Y1002D02*
X756Y1002D01*
X814Y1002D02*
X820Y1002D01*
X1007Y1002D02*
X1013Y1002D01*
X1047Y1002D02*
X1054Y1002D01*
X1107Y1002D02*
X1113Y1002D01*
X1121Y1002D02*
X1127Y1002D01*
X503Y1001D02*
X510Y1001D01*
X524Y1001D02*
X530Y1001D01*
X551Y1001D02*
X557Y1001D01*
X570Y1001D02*
X583Y1001D01*
X599Y1001D02*
X605Y1001D01*
X614Y1001D02*
X620Y1001D01*
X628Y1001D02*
X634Y1001D01*
X650Y1001D02*
X660Y1001D01*
X674Y1001D02*
X682Y1001D01*
X700Y1001D02*
X708Y1001D01*
X750Y1001D02*
X756Y1001D01*
X814Y1001D02*
X820Y1001D01*
X1007Y1001D02*
X1013Y1001D01*
X1048Y1001D02*
X1055Y1001D01*
X1107Y1001D02*
X1113Y1001D01*
X1121Y1001D02*
X1127Y1001D01*
X503Y1000D02*
X510Y1000D01*
X523Y1000D02*
X530Y1000D01*
X551Y1000D02*
X558Y1000D01*
X568Y1000D02*
X583Y1000D01*
X599Y1000D02*
X605Y1000D01*
X614Y1000D02*
X620Y1000D01*
X628Y1000D02*
X634Y1000D01*
X650Y1000D02*
X661Y1000D01*
X672Y1000D02*
X682Y1000D01*
X701Y1000D02*
X709Y1000D01*
X750Y1000D02*
X756Y1000D01*
X814Y1000D02*
X820Y1000D01*
X1007Y1000D02*
X1013Y1000D01*
X1048Y1000D02*
X1055Y1000D01*
X1107Y1000D02*
X1113Y1000D01*
X1121Y1000D02*
X1127Y1000D01*
X504Y999D02*
X512Y999D01*
X522Y999D02*
X529Y999D01*
X551Y999D02*
X559Y999D01*
X566Y999D02*
X583Y999D01*
X599Y999D02*
X605Y999D01*
X614Y999D02*
X620Y999D01*
X628Y999D02*
X634Y999D01*
X650Y999D02*
X662Y999D01*
X671Y999D02*
X681Y999D01*
X701Y999D02*
X711Y999D01*
X750Y999D02*
X756Y999D01*
X814Y999D02*
X820Y999D01*
X1007Y999D02*
X1013Y999D01*
X1049Y999D02*
X1056Y999D01*
X1107Y999D02*
X1113Y999D01*
X1121Y999D02*
X1127Y999D01*
X504Y998D02*
X529Y998D01*
X552Y998D02*
X583Y998D01*
X599Y998D02*
X605Y998D01*
X614Y998D02*
X620Y998D01*
X628Y998D02*
X634Y998D01*
X650Y998D02*
X663Y998D01*
X670Y998D02*
X680Y998D01*
X702Y998D02*
X732Y998D01*
X750Y998D02*
X756Y998D01*
X814Y998D02*
X820Y998D01*
X1007Y998D02*
X1013Y998D01*
X1049Y998D02*
X1056Y998D01*
X1107Y998D02*
X1113Y998D01*
X1121Y998D02*
X1127Y998D01*
X505Y997D02*
X529Y997D01*
X552Y997D02*
X575Y997D01*
X577Y997D02*
X583Y997D01*
X599Y997D02*
X605Y997D01*
X614Y997D02*
X620Y997D01*
X628Y997D02*
X634Y997D01*
X650Y997D02*
X679Y997D01*
X703Y997D02*
X733Y997D01*
X750Y997D02*
X756Y997D01*
X814Y997D02*
X820Y997D01*
X1007Y997D02*
X1013Y997D01*
X1050Y997D02*
X1057Y997D01*
X1107Y997D02*
X1113Y997D01*
X1121Y997D02*
X1127Y997D01*
X505Y996D02*
X528Y996D01*
X553Y996D02*
X574Y996D01*
X577Y996D02*
X583Y996D01*
X599Y996D02*
X605Y996D01*
X614Y996D02*
X620Y996D01*
X628Y996D02*
X634Y996D01*
X650Y996D02*
X678Y996D01*
X704Y996D02*
X733Y996D01*
X750Y996D02*
X756Y996D01*
X814Y996D02*
X820Y996D01*
X1007Y996D02*
X1013Y996D01*
X1050Y996D02*
X1057Y996D01*
X1107Y996D02*
X1113Y996D01*
X1121Y996D02*
X1127Y996D01*
X506Y995D02*
X527Y995D01*
X554Y995D02*
X572Y995D01*
X577Y995D02*
X583Y995D01*
X599Y995D02*
X605Y995D01*
X614Y995D02*
X620Y995D01*
X628Y995D02*
X634Y995D01*
X650Y995D02*
X676Y995D01*
X705Y995D02*
X733Y995D01*
X750Y995D02*
X756Y995D01*
X814Y995D02*
X819Y995D01*
X1007Y995D02*
X1013Y995D01*
X1051Y995D02*
X1058Y995D01*
X1107Y995D02*
X1113Y995D01*
X1121Y995D02*
X1127Y995D01*
X507Y994D02*
X526Y994D01*
X555Y994D02*
X571Y994D01*
X578Y994D02*
X583Y994D01*
X600Y994D02*
X605Y994D01*
X614Y994D02*
X619Y994D01*
X628Y994D02*
X634Y994D01*
X650Y994D02*
X656Y994D01*
X658Y994D02*
X675Y994D01*
X706Y994D02*
X733Y994D01*
X750Y994D02*
X756Y994D01*
X814Y994D02*
X819Y994D01*
X1007Y994D02*
X1013Y994D01*
X1051Y994D02*
X1058Y994D01*
X1107Y994D02*
X1113Y994D01*
X1121Y994D02*
X1127Y994D01*
X509Y993D02*
X524Y993D01*
X556Y993D02*
X569Y993D01*
X578Y993D02*
X583Y993D01*
X600Y993D02*
X604Y993D01*
X614Y993D02*
X619Y993D01*
X629Y993D02*
X633Y993D01*
X650Y993D02*
X656Y993D01*
X659Y993D02*
X674Y993D01*
X708Y993D02*
X732Y993D01*
X751Y993D02*
X755Y993D01*
X814Y993D02*
X819Y993D01*
X1007Y993D02*
X1014Y993D01*
X1052Y993D02*
X1059Y993D01*
X1107Y993D02*
X1114Y993D01*
X1121Y993D02*
X1127Y993D01*
X511Y992D02*
X522Y992D01*
X559Y992D02*
X566Y992D01*
X580Y992D02*
X581Y992D01*
X601Y992D02*
X603Y992D01*
X616Y992D02*
X617Y992D01*
X630Y992D02*
X632Y992D01*
X650Y992D02*
X656Y992D01*
X661Y992D02*
X673Y992D01*
X710Y992D02*
X731Y992D01*
X752Y992D02*
X754Y992D01*
X816Y992D02*
X817Y992D01*
X995Y992D02*
X1026Y992D01*
X1052Y992D02*
X1076Y992D01*
X1095Y992D02*
X1127Y992D01*
X650Y991D02*
X656Y991D01*
X663Y991D02*
X671Y991D01*
X994Y991D02*
X1027Y991D01*
X1053Y991D02*
X1077Y991D01*
X1094Y991D02*
X1127Y991D01*
X650Y990D02*
X656Y990D01*
X994Y990D02*
X1027Y990D01*
X1053Y990D02*
X1077Y990D01*
X1094Y990D02*
X1127Y990D01*
X650Y989D02*
X656Y989D01*
X994Y989D02*
X1027Y989D01*
X1054Y989D02*
X1077Y989D01*
X1094Y989D02*
X1127Y989D01*
X650Y988D02*
X656Y988D01*
X994Y988D02*
X1027Y988D01*
X1055Y988D02*
X1077Y988D01*
X1094Y988D02*
X1127Y988D01*
X650Y987D02*
X656Y987D01*
X995Y987D02*
X1026Y987D01*
X1057Y987D02*
X1076Y987D01*
X1095Y987D02*
X1126Y987D01*
X650Y986D02*
X656Y986D01*
X996Y986D02*
X1025Y986D01*
X1059Y986D02*
X1075Y986D01*
X1096Y986D02*
X1125Y986D01*
X650Y985D02*
X656Y985D01*
X650Y984D02*
X656Y984D01*
X650Y983D02*
X656Y983D01*
X650Y982D02*
X656Y982D01*
X650Y981D02*
X656Y981D01*
X650Y980D02*
X656Y980D01*
X650Y979D02*
X655Y979D01*
X651Y978D02*
X655Y978D01*
X1829Y849D02*
X1832Y849D01*
X1855Y849D02*
X1883Y849D01*
X1828Y848D02*
X1833Y848D01*
X1854Y848D02*
X1885Y848D01*
X1828Y847D02*
X1833Y847D01*
X1854Y847D02*
X1886Y847D01*
X1828Y846D02*
X1834Y846D01*
X1854Y846D02*
X1886Y846D01*
X1828Y845D02*
X1834Y845D01*
X1828Y844D02*
X1834Y844D01*
X1828Y843D02*
X1834Y843D01*
X1828Y842D02*
X1834Y842D01*
X1828Y841D02*
X1834Y841D01*
X1828Y840D02*
X1834Y840D01*
X1828Y839D02*
X1834Y839D01*
X1828Y838D02*
X1834Y838D01*
X1828Y837D02*
X1834Y837D01*
X1828Y836D02*
X1834Y836D01*
X1828Y835D02*
X1834Y835D01*
X1828Y834D02*
X1834Y834D01*
X1828Y833D02*
X1834Y833D01*
X1828Y832D02*
X1834Y832D01*
X1828Y831D02*
X1834Y831D01*
X1828Y830D02*
X1834Y830D01*
X1828Y829D02*
X1834Y829D01*
X1828Y828D02*
X1834Y828D01*
X1828Y827D02*
X1834Y827D01*
X1828Y826D02*
X1834Y826D01*
X1828Y825D02*
X1834Y825D01*
X1828Y824D02*
X1834Y824D01*
X1828Y823D02*
X1834Y823D01*
X1855Y823D02*
X1886Y823D01*
X1828Y822D02*
X1834Y822D01*
X1854Y822D02*
X1885Y822D01*
X1828Y821D02*
X1834Y821D01*
X1854Y821D02*
X1884Y821D01*
X1809Y820D02*
X1811Y820D01*
X1828Y820D02*
X1834Y820D01*
X1854Y820D02*
X1883Y820D01*
X1808Y819D02*
X1812Y819D01*
X1828Y819D02*
X1834Y819D01*
X1853Y819D02*
X1860Y819D01*
X1807Y818D02*
X1813Y818D01*
X1828Y818D02*
X1834Y818D01*
X1853Y818D02*
X1859Y818D01*
X1807Y817D02*
X1813Y817D01*
X1828Y817D02*
X1834Y817D01*
X1853Y817D02*
X1859Y817D01*
X1807Y816D02*
X1813Y816D01*
X1828Y816D02*
X1834Y816D01*
X1853Y816D02*
X1859Y816D01*
X1807Y815D02*
X1813Y815D01*
X1828Y815D02*
X1834Y815D01*
X1853Y815D02*
X1859Y815D01*
X1807Y814D02*
X1813Y814D01*
X1828Y814D02*
X1834Y814D01*
X1853Y814D02*
X1859Y814D01*
X1807Y813D02*
X1813Y813D01*
X1828Y813D02*
X1834Y813D01*
X1853Y813D02*
X1859Y813D01*
X1807Y812D02*
X1813Y812D01*
X1828Y812D02*
X1834Y812D01*
X1853Y812D02*
X1859Y812D01*
X1807Y811D02*
X1813Y811D01*
X1828Y811D02*
X1834Y811D01*
X1853Y811D02*
X1859Y811D01*
X1807Y810D02*
X1813Y810D01*
X1828Y810D02*
X1834Y810D01*
X1853Y810D02*
X1859Y810D01*
X1807Y809D02*
X1813Y809D01*
X1828Y809D02*
X1834Y809D01*
X1853Y809D02*
X1859Y809D01*
X1807Y808D02*
X1813Y808D01*
X1828Y808D02*
X1834Y808D01*
X1853Y808D02*
X1859Y808D01*
X1807Y807D02*
X1813Y807D01*
X1828Y807D02*
X1834Y807D01*
X1853Y807D02*
X1859Y807D01*
X1807Y806D02*
X1813Y806D01*
X1827Y806D02*
X1834Y806D01*
X1853Y806D02*
X1859Y806D01*
X1807Y805D02*
X1813Y805D01*
X1827Y805D02*
X1833Y805D01*
X1853Y805D02*
X1859Y805D01*
X1807Y804D02*
X1814Y804D01*
X1827Y804D02*
X1833Y804D01*
X1853Y804D02*
X1859Y804D01*
X1807Y803D02*
X1815Y803D01*
X1825Y803D02*
X1833Y803D01*
X1853Y803D02*
X1860Y803D01*
X1808Y802D02*
X1833Y802D01*
X1853Y802D02*
X1886Y802D01*
X1808Y801D02*
X1832Y801D01*
X1809Y800D02*
X1831Y800D01*
X1810Y799D02*
X1831Y799D01*
X1811Y798D02*
X1829Y798D01*
X1813Y797D02*
X1828Y797D01*
X1853Y797D02*
X1886Y797D01*
X1815Y796D02*
X1825Y796D01*
X1854Y796D02*
X1885Y796D01*
X1465Y387D02*
X1475Y387D01*
X1464Y386D02*
X1478Y386D01*
X1463Y385D02*
X1481Y385D01*
X1463Y384D02*
X1483Y384D01*
X1463Y383D02*
X1485Y383D01*
X1463Y382D02*
X1487Y382D01*
X1463Y381D02*
X1489Y381D01*
X1464Y380D02*
X1490Y380D01*
X1465Y379D02*
X1492Y379D01*
X1467Y378D02*
X1493Y378D01*
X1475Y377D02*
X1494Y377D01*
X1478Y376D02*
X1495Y376D01*
X1481Y375D02*
X1497Y375D01*
X1483Y374D02*
X1498Y374D01*
X1484Y373D02*
X1499Y373D01*
X1486Y372D02*
X1500Y372D01*
X1487Y371D02*
X1501Y371D01*
X1488Y370D02*
X1501Y370D01*
X1490Y369D02*
X1502Y369D01*
X1491Y368D02*
X1503Y368D01*
X1492Y367D02*
X1504Y367D01*
X1493Y366D02*
X1505Y366D01*
X1494Y365D02*
X1505Y365D01*
X1495Y364D02*
X1506Y364D01*
X1495Y363D02*
X1507Y363D01*
X1496Y362D02*
X1507Y362D01*
X1497Y361D02*
X1508Y361D01*
X1498Y360D02*
X1509Y360D01*
X1498Y359D02*
X1509Y359D01*
X1499Y358D02*
X1510Y358D01*
X1500Y357D02*
X1510Y357D01*
X1500Y356D02*
X1511Y356D01*
X1501Y355D02*
X1512Y355D01*
X1502Y354D02*
X1512Y354D01*
X1502Y353D02*
X1512Y353D01*
X1503Y352D02*
X1513Y352D01*
X1503Y351D02*
X1513Y351D01*
X1504Y350D02*
X1514Y350D01*
X1504Y349D02*
X1514Y349D01*
X1505Y348D02*
X1515Y348D01*
X1505Y347D02*
X1515Y347D01*
X1506Y346D02*
X1516Y346D01*
X1506Y345D02*
X1516Y345D01*
X1507Y344D02*
X1516Y344D01*
X1507Y343D02*
X1517Y343D01*
X1875Y343D02*
X1877Y343D01*
X1508Y342D02*
X1517Y342D01*
X1874Y342D02*
X1878Y342D01*
X1508Y341D02*
X1517Y341D01*
X1873Y341D02*
X1878Y341D01*
X1508Y340D02*
X1518Y340D01*
X1873Y340D02*
X1879Y340D01*
X1509Y339D02*
X1518Y339D01*
X1873Y339D02*
X1879Y339D01*
X1509Y338D02*
X1518Y338D01*
X1873Y338D02*
X1879Y338D01*
X1509Y337D02*
X1519Y337D01*
X1873Y337D02*
X1879Y337D01*
X1510Y336D02*
X1519Y336D01*
X1873Y336D02*
X1879Y336D01*
X1510Y335D02*
X1519Y335D01*
X1873Y335D02*
X1879Y335D01*
X1510Y334D02*
X1520Y334D01*
X1873Y334D02*
X1879Y334D01*
X1511Y333D02*
X1520Y333D01*
X1873Y333D02*
X1879Y333D01*
X1511Y332D02*
X1520Y332D01*
X1873Y332D02*
X1879Y332D01*
X1511Y331D02*
X1520Y331D01*
X1873Y331D02*
X1879Y331D01*
X1512Y330D02*
X1521Y330D01*
X1873Y330D02*
X1879Y330D01*
X1512Y329D02*
X1521Y329D01*
X1873Y329D02*
X1879Y329D01*
X1512Y328D02*
X1521Y328D01*
X1873Y328D02*
X1879Y328D01*
X1512Y327D02*
X1521Y327D01*
X1873Y327D02*
X1880Y327D01*
X1512Y326D02*
X1522Y326D01*
X1873Y326D02*
X1881Y326D01*
X1513Y325D02*
X1522Y325D01*
X1513Y324D02*
X1522Y324D01*
X1513Y323D02*
X1522Y323D01*
X1513Y322D02*
X1522Y322D01*
X1513Y321D02*
X1523Y321D01*
X1514Y320D02*
X1523Y320D01*
X1514Y319D02*
X1523Y319D01*
X1514Y318D02*
X1523Y318D01*
X1514Y317D02*
X1523Y317D01*
X1514Y316D02*
X1523Y316D01*
X1514Y315D02*
X1523Y315D01*
X1515Y314D02*
X1524Y314D01*
X1515Y313D02*
X1524Y313D01*
X1515Y312D02*
X1524Y312D01*
X1515Y311D02*
X1524Y311D01*
X1515Y310D02*
X1524Y310D01*
X1515Y309D02*
X1524Y309D01*
X1515Y308D02*
X1524Y308D01*
X1515Y307D02*
X1524Y307D01*
X1515Y306D02*
X1524Y306D01*
X1515Y305D02*
X1524Y305D01*
X1515Y304D02*
X1524Y304D01*
X1515Y303D02*
X1524Y303D01*
X1515Y302D02*
X1524Y302D01*
X1515Y301D02*
X1524Y301D01*
X1515Y300D02*
X1524Y300D01*
X1515Y299D02*
X1524Y299D01*
X1515Y298D02*
X1524Y298D01*
X1515Y297D02*
X1524Y297D01*
X1515Y296D02*
X1524Y296D01*
X1515Y295D02*
X1524Y295D01*
X1515Y294D02*
X1524Y294D01*
X1515Y293D02*
X1524Y293D01*
X1515Y292D02*
X1524Y292D01*
X1515Y291D02*
X1524Y291D01*
X1515Y290D02*
X1524Y290D01*
X1515Y289D02*
X1524Y289D01*
X1515Y288D02*
X1524Y288D01*
X1515Y287D02*
X1524Y287D01*
X1515Y286D02*
X1524Y286D01*
X1515Y285D02*
X1524Y285D01*
X1515Y284D02*
X1524Y284D01*
X1515Y283D02*
X1524Y283D01*
X1515Y282D02*
X1524Y282D01*
X1514Y281D02*
X1523Y281D01*
X1514Y280D02*
X1523Y280D01*
X1514Y279D02*
X1523Y279D01*
X1514Y278D02*
X1523Y278D01*
X1514Y277D02*
X1523Y277D01*
X1514Y276D02*
X1523Y276D01*
X1513Y275D02*
X1523Y275D01*
X1513Y274D02*
X1522Y274D01*
X1513Y273D02*
X1522Y273D01*
X1513Y272D02*
X1522Y272D01*
X1513Y271D02*
X1522Y271D01*
X1512Y270D02*
X1522Y270D01*
X1512Y269D02*
X1521Y269D01*
X1512Y268D02*
X1521Y268D01*
X1512Y267D02*
X1521Y267D01*
X1511Y266D02*
X1521Y266D01*
X1511Y265D02*
X1520Y265D01*
X1511Y264D02*
X1520Y264D01*
X1511Y263D02*
X1520Y263D01*
X1510Y262D02*
X1520Y262D01*
X1510Y261D02*
X1519Y261D01*
X1510Y260D02*
X1519Y260D01*
X1509Y259D02*
X1519Y259D01*
X1509Y258D02*
X1518Y258D01*
X1509Y257D02*
X1518Y257D01*
X1508Y256D02*
X1518Y256D01*
X1508Y255D02*
X1517Y255D01*
X1507Y254D02*
X1517Y254D01*
X1507Y253D02*
X1517Y253D01*
X1507Y252D02*
X1516Y252D01*
X1506Y251D02*
X1516Y251D01*
X1506Y250D02*
X1516Y250D01*
X1505Y249D02*
X1515Y249D01*
X1505Y248D02*
X1515Y248D01*
X1504Y247D02*
X1514Y247D01*
X1126Y246D02*
X1127Y246D01*
X1402Y246D02*
X1419Y246D01*
X1454Y246D02*
X1455Y246D01*
X1504Y246D02*
X1514Y246D01*
X1125Y245D02*
X1129Y245D01*
X1401Y245D02*
X1419Y245D01*
X1452Y245D02*
X1456Y245D01*
X1503Y245D02*
X1513Y245D01*
X1124Y244D02*
X1129Y244D01*
X1400Y244D02*
X1419Y244D01*
X1452Y244D02*
X1457Y244D01*
X1503Y244D02*
X1513Y244D01*
X1124Y243D02*
X1130Y243D01*
X1400Y243D02*
X1419Y243D01*
X1451Y243D02*
X1457Y243D01*
X1502Y243D02*
X1512Y243D01*
X1124Y242D02*
X1130Y242D01*
X1400Y242D02*
X1419Y242D01*
X1451Y242D02*
X1457Y242D01*
X1502Y242D02*
X1512Y242D01*
X1124Y241D02*
X1130Y241D01*
X1400Y241D02*
X1419Y241D01*
X1451Y241D02*
X1457Y241D01*
X1501Y241D02*
X1511Y241D01*
X1124Y240D02*
X1130Y240D01*
X1401Y240D02*
X1419Y240D01*
X1451Y240D02*
X1457Y240D01*
X1474Y240D02*
X1476Y240D01*
X1500Y240D02*
X1511Y240D01*
X1124Y239D02*
X1130Y239D01*
X1413Y239D02*
X1419Y239D01*
X1451Y239D02*
X1457Y239D01*
X1473Y239D02*
X1477Y239D01*
X1500Y239D02*
X1510Y239D01*
X1124Y238D02*
X1130Y238D01*
X1413Y238D02*
X1419Y238D01*
X1451Y238D02*
X1457Y238D01*
X1472Y238D02*
X1478Y238D01*
X1499Y238D02*
X1510Y238D01*
X1124Y237D02*
X1130Y237D01*
X1413Y237D02*
X1419Y237D01*
X1451Y237D02*
X1457Y237D01*
X1472Y237D02*
X1478Y237D01*
X1498Y237D02*
X1509Y237D01*
X1124Y236D02*
X1130Y236D01*
X1413Y236D02*
X1419Y236D01*
X1451Y236D02*
X1457Y236D01*
X1472Y236D02*
X1478Y236D01*
X1498Y236D02*
X1509Y236D01*
X1124Y235D02*
X1130Y235D01*
X1413Y235D02*
X1419Y235D01*
X1451Y235D02*
X1457Y235D01*
X1472Y235D02*
X1478Y235D01*
X1497Y235D02*
X1508Y235D01*
X1124Y234D02*
X1130Y234D01*
X1413Y234D02*
X1419Y234D01*
X1451Y234D02*
X1457Y234D01*
X1472Y234D02*
X1478Y234D01*
X1496Y234D02*
X1507Y234D01*
X1124Y233D02*
X1130Y233D01*
X1413Y233D02*
X1419Y233D01*
X1451Y233D02*
X1457Y233D01*
X1472Y233D02*
X1478Y233D01*
X1495Y233D02*
X1507Y233D01*
X1124Y232D02*
X1130Y232D01*
X1251Y232D02*
X1254Y232D01*
X1262Y232D02*
X1271Y232D01*
X1413Y232D02*
X1419Y232D01*
X1451Y232D02*
X1457Y232D01*
X1472Y232D02*
X1478Y232D01*
X1494Y232D02*
X1506Y232D01*
X1124Y231D02*
X1130Y231D01*
X1151Y231D02*
X1154Y231D01*
X1179Y231D02*
X1181Y231D01*
X1201Y231D02*
X1203Y231D01*
X1209Y231D02*
X1214Y231D01*
X1223Y231D02*
X1226Y231D01*
X1250Y231D02*
X1255Y231D01*
X1260Y231D02*
X1273Y231D01*
X1309Y231D02*
X1323Y231D01*
X1351Y231D02*
X1354Y231D01*
X1365Y231D02*
X1376Y231D01*
X1413Y231D02*
X1419Y231D01*
X1451Y231D02*
X1457Y231D01*
X1472Y231D02*
X1478Y231D01*
X1494Y231D02*
X1505Y231D01*
X1124Y230D02*
X1130Y230D01*
X1150Y230D02*
X1155Y230D01*
X1178Y230D02*
X1182Y230D01*
X1200Y230D02*
X1204Y230D01*
X1207Y230D02*
X1216Y230D01*
X1221Y230D02*
X1229Y230D01*
X1250Y230D02*
X1256Y230D01*
X1259Y230D02*
X1274Y230D01*
X1307Y230D02*
X1326Y230D01*
X1350Y230D02*
X1355Y230D01*
X1364Y230D02*
X1378Y230D01*
X1413Y230D02*
X1419Y230D01*
X1451Y230D02*
X1457Y230D01*
X1472Y230D02*
X1478Y230D01*
X1493Y230D02*
X1505Y230D01*
X1124Y229D02*
X1130Y229D01*
X1150Y229D02*
X1155Y229D01*
X1177Y229D02*
X1183Y229D01*
X1199Y229D02*
X1217Y229D01*
X1220Y229D02*
X1230Y229D01*
X1250Y229D02*
X1256Y229D01*
X1258Y229D02*
X1275Y229D01*
X1306Y229D02*
X1327Y229D01*
X1350Y229D02*
X1355Y229D01*
X1363Y229D02*
X1379Y229D01*
X1413Y229D02*
X1419Y229D01*
X1451Y229D02*
X1457Y229D01*
X1472Y229D02*
X1478Y229D01*
X1492Y229D02*
X1504Y229D01*
X1124Y228D02*
X1130Y228D01*
X1150Y228D02*
X1156Y228D01*
X1177Y228D02*
X1183Y228D01*
X1199Y228D02*
X1231Y228D01*
X1250Y228D02*
X1276Y228D01*
X1305Y228D02*
X1328Y228D01*
X1350Y228D02*
X1356Y228D01*
X1361Y228D02*
X1380Y228D01*
X1413Y228D02*
X1419Y228D01*
X1451Y228D02*
X1457Y228D01*
X1472Y228D02*
X1478Y228D01*
X1491Y228D02*
X1503Y228D01*
X1124Y227D02*
X1130Y227D01*
X1150Y227D02*
X1156Y227D01*
X1177Y227D02*
X1183Y227D01*
X1199Y227D02*
X1232Y227D01*
X1250Y227D02*
X1278Y227D01*
X1304Y227D02*
X1329Y227D01*
X1350Y227D02*
X1356Y227D01*
X1360Y227D02*
X1381Y227D01*
X1413Y227D02*
X1419Y227D01*
X1451Y227D02*
X1457Y227D01*
X1472Y227D02*
X1478Y227D01*
X1490Y227D02*
X1502Y227D01*
X1124Y226D02*
X1130Y226D01*
X1150Y226D02*
X1156Y226D01*
X1177Y226D02*
X1183Y226D01*
X1199Y226D02*
X1232Y226D01*
X1250Y226D02*
X1279Y226D01*
X1302Y226D02*
X1330Y226D01*
X1350Y226D02*
X1356Y226D01*
X1359Y226D02*
X1382Y226D01*
X1413Y226D02*
X1419Y226D01*
X1451Y226D02*
X1457Y226D01*
X1472Y226D02*
X1478Y226D01*
X1488Y226D02*
X1501Y226D01*
X1124Y225D02*
X1130Y225D01*
X1150Y225D02*
X1156Y225D01*
X1177Y225D02*
X1183Y225D01*
X1199Y225D02*
X1232Y225D01*
X1250Y225D02*
X1263Y225D01*
X1270Y225D02*
X1280Y225D01*
X1302Y225D02*
X1331Y225D01*
X1350Y225D02*
X1356Y225D01*
X1358Y225D02*
X1382Y225D01*
X1413Y225D02*
X1419Y225D01*
X1451Y225D02*
X1457Y225D01*
X1472Y225D02*
X1478Y225D01*
X1487Y225D02*
X1500Y225D01*
X1124Y224D02*
X1130Y224D01*
X1150Y224D02*
X1156Y224D01*
X1177Y224D02*
X1183Y224D01*
X1199Y224D02*
X1210Y224D01*
X1213Y224D02*
X1224Y224D01*
X1226Y224D02*
X1233Y224D01*
X1250Y224D02*
X1262Y224D01*
X1271Y224D02*
X1281Y224D01*
X1301Y224D02*
X1310Y224D01*
X1323Y224D02*
X1332Y224D01*
X1350Y224D02*
X1367Y224D01*
X1375Y224D02*
X1383Y224D01*
X1413Y224D02*
X1419Y224D01*
X1451Y224D02*
X1457Y224D01*
X1472Y224D02*
X1478Y224D01*
X1486Y224D02*
X1499Y224D01*
X1124Y223D02*
X1130Y223D01*
X1150Y223D02*
X1156Y223D01*
X1177Y223D02*
X1183Y223D01*
X1199Y223D02*
X1209Y223D01*
X1213Y223D02*
X1222Y223D01*
X1227Y223D02*
X1233Y223D01*
X1250Y223D02*
X1261Y223D01*
X1272Y223D02*
X1281Y223D01*
X1301Y223D02*
X1308Y223D01*
X1325Y223D02*
X1332Y223D01*
X1350Y223D02*
X1365Y223D01*
X1376Y223D02*
X1383Y223D01*
X1413Y223D02*
X1419Y223D01*
X1451Y223D02*
X1457Y223D01*
X1472Y223D02*
X1478Y223D01*
X1484Y223D02*
X1498Y223D01*
X1124Y222D02*
X1130Y222D01*
X1150Y222D02*
X1156Y222D01*
X1177Y222D02*
X1183Y222D01*
X1199Y222D02*
X1207Y222D01*
X1213Y222D02*
X1221Y222D01*
X1227Y222D02*
X1233Y222D01*
X1250Y222D02*
X1260Y222D01*
X1274Y222D02*
X1282Y222D01*
X1300Y222D02*
X1307Y222D01*
X1326Y222D02*
X1333Y222D01*
X1350Y222D02*
X1364Y222D01*
X1377Y222D02*
X1383Y222D01*
X1413Y222D02*
X1419Y222D01*
X1451Y222D02*
X1457Y222D01*
X1472Y222D02*
X1478Y222D01*
X1482Y222D02*
X1497Y222D01*
X1124Y221D02*
X1130Y221D01*
X1150Y221D02*
X1156Y221D01*
X1177Y221D02*
X1183Y221D01*
X1199Y221D02*
X1206Y221D01*
X1213Y221D02*
X1220Y221D01*
X1227Y221D02*
X1233Y221D01*
X1250Y221D02*
X1259Y221D01*
X1275Y221D02*
X1283Y221D01*
X1300Y221D02*
X1306Y221D01*
X1326Y221D02*
X1333Y221D01*
X1350Y221D02*
X1363Y221D01*
X1377Y221D02*
X1383Y221D01*
X1413Y221D02*
X1419Y221D01*
X1451Y221D02*
X1457Y221D01*
X1472Y221D02*
X1478Y221D01*
X1480Y221D02*
X1496Y221D01*
X1124Y220D02*
X1130Y220D01*
X1150Y220D02*
X1156Y220D01*
X1177Y220D02*
X1183Y220D01*
X1199Y220D02*
X1205Y220D01*
X1213Y220D02*
X1219Y220D01*
X1227Y220D02*
X1233Y220D01*
X1250Y220D02*
X1258Y220D01*
X1276Y220D02*
X1283Y220D01*
X1300Y220D02*
X1306Y220D01*
X1327Y220D02*
X1333Y220D01*
X1350Y220D02*
X1362Y220D01*
X1377Y220D02*
X1383Y220D01*
X1413Y220D02*
X1419Y220D01*
X1451Y220D02*
X1457Y220D01*
X1472Y220D02*
X1495Y220D01*
X1124Y219D02*
X1130Y219D01*
X1150Y219D02*
X1156Y219D01*
X1177Y219D02*
X1183Y219D01*
X1199Y219D02*
X1205Y219D01*
X1213Y219D02*
X1219Y219D01*
X1227Y219D02*
X1233Y219D01*
X1250Y219D02*
X1257Y219D01*
X1277Y219D02*
X1283Y219D01*
X1300Y219D02*
X1306Y219D01*
X1327Y219D02*
X1333Y219D01*
X1350Y219D02*
X1361Y219D01*
X1377Y219D02*
X1383Y219D01*
X1413Y219D02*
X1419Y219D01*
X1451Y219D02*
X1457Y219D01*
X1472Y219D02*
X1494Y219D01*
X1124Y218D02*
X1130Y218D01*
X1150Y218D02*
X1156Y218D01*
X1177Y218D02*
X1183Y218D01*
X1199Y218D02*
X1205Y218D01*
X1213Y218D02*
X1219Y218D01*
X1227Y218D02*
X1233Y218D01*
X1250Y218D02*
X1256Y218D01*
X1277Y218D02*
X1283Y218D01*
X1300Y218D02*
X1306Y218D01*
X1327Y218D02*
X1333Y218D01*
X1350Y218D02*
X1360Y218D01*
X1377Y218D02*
X1383Y218D01*
X1413Y218D02*
X1419Y218D01*
X1451Y218D02*
X1457Y218D01*
X1467Y218D02*
X1493Y218D01*
X1124Y217D02*
X1130Y217D01*
X1150Y217D02*
X1156Y217D01*
X1177Y217D02*
X1183Y217D01*
X1199Y217D02*
X1205Y217D01*
X1213Y217D02*
X1219Y217D01*
X1227Y217D02*
X1233Y217D01*
X1250Y217D02*
X1256Y217D01*
X1277Y217D02*
X1283Y217D01*
X1300Y217D02*
X1306Y217D01*
X1327Y217D02*
X1333Y217D01*
X1350Y217D02*
X1358Y217D01*
X1378Y217D02*
X1382Y217D01*
X1413Y217D02*
X1419Y217D01*
X1451Y217D02*
X1457Y217D01*
X1465Y217D02*
X1492Y217D01*
X1105Y216D02*
X1108Y216D01*
X1124Y216D02*
X1130Y216D01*
X1150Y216D02*
X1156Y216D01*
X1177Y216D02*
X1183Y216D01*
X1199Y216D02*
X1205Y216D01*
X1213Y216D02*
X1219Y216D01*
X1227Y216D02*
X1233Y216D01*
X1250Y216D02*
X1256Y216D01*
X1277Y216D02*
X1283Y216D01*
X1300Y216D02*
X1306Y216D01*
X1327Y216D02*
X1333Y216D01*
X1350Y216D02*
X1357Y216D01*
X1379Y216D02*
X1381Y216D01*
X1413Y216D02*
X1419Y216D01*
X1429Y216D02*
X1432Y216D01*
X1451Y216D02*
X1490Y216D01*
X1104Y215D02*
X1109Y215D01*
X1124Y215D02*
X1130Y215D01*
X1150Y215D02*
X1156Y215D01*
X1177Y215D02*
X1183Y215D01*
X1199Y215D02*
X1205Y215D01*
X1213Y215D02*
X1219Y215D01*
X1227Y215D02*
X1233Y215D01*
X1250Y215D02*
X1256Y215D01*
X1277Y215D02*
X1283Y215D01*
X1300Y215D02*
X1306Y215D01*
X1327Y215D02*
X1333Y215D01*
X1350Y215D02*
X1356Y215D01*
X1413Y215D02*
X1419Y215D01*
X1428Y215D02*
X1433Y215D01*
X1451Y215D02*
X1489Y215D01*
X1103Y214D02*
X1109Y214D01*
X1124Y214D02*
X1130Y214D01*
X1150Y214D02*
X1156Y214D01*
X1177Y214D02*
X1183Y214D01*
X1199Y214D02*
X1205Y214D01*
X1213Y214D02*
X1219Y214D01*
X1227Y214D02*
X1233Y214D01*
X1250Y214D02*
X1256Y214D01*
X1277Y214D02*
X1283Y214D01*
X1300Y214D02*
X1306Y214D01*
X1327Y214D02*
X1333Y214D01*
X1350Y214D02*
X1356Y214D01*
X1413Y214D02*
X1419Y214D01*
X1427Y214D02*
X1433Y214D01*
X1451Y214D02*
X1487Y214D01*
X1103Y213D02*
X1109Y213D01*
X1124Y213D02*
X1130Y213D01*
X1150Y213D02*
X1156Y213D01*
X1177Y213D02*
X1183Y213D01*
X1199Y213D02*
X1205Y213D01*
X1213Y213D02*
X1219Y213D01*
X1227Y213D02*
X1233Y213D01*
X1250Y213D02*
X1256Y213D01*
X1277Y213D02*
X1283Y213D01*
X1300Y213D02*
X1333Y213D01*
X1350Y213D02*
X1356Y213D01*
X1413Y213D02*
X1419Y213D01*
X1427Y213D02*
X1433Y213D01*
X1451Y213D02*
X1485Y213D01*
X1103Y212D02*
X1109Y212D01*
X1124Y212D02*
X1130Y212D01*
X1150Y212D02*
X1156Y212D01*
X1177Y212D02*
X1183Y212D01*
X1199Y212D02*
X1205Y212D01*
X1213Y212D02*
X1219Y212D01*
X1227Y212D02*
X1233Y212D01*
X1250Y212D02*
X1256Y212D01*
X1277Y212D02*
X1283Y212D01*
X1300Y212D02*
X1333Y212D01*
X1350Y212D02*
X1356Y212D01*
X1413Y212D02*
X1419Y212D01*
X1427Y212D02*
X1433Y212D01*
X1451Y212D02*
X1483Y212D01*
X1103Y211D02*
X1109Y211D01*
X1124Y211D02*
X1130Y211D01*
X1150Y211D02*
X1156Y211D01*
X1177Y211D02*
X1183Y211D01*
X1199Y211D02*
X1205Y211D01*
X1213Y211D02*
X1219Y211D01*
X1227Y211D02*
X1233Y211D01*
X1250Y211D02*
X1256Y211D01*
X1277Y211D02*
X1283Y211D01*
X1300Y211D02*
X1333Y211D01*
X1350Y211D02*
X1356Y211D01*
X1413Y211D02*
X1419Y211D01*
X1427Y211D02*
X1433Y211D01*
X1451Y211D02*
X1481Y211D01*
X1103Y210D02*
X1109Y210D01*
X1124Y210D02*
X1130Y210D01*
X1150Y210D02*
X1156Y210D01*
X1177Y210D02*
X1183Y210D01*
X1199Y210D02*
X1205Y210D01*
X1213Y210D02*
X1219Y210D01*
X1227Y210D02*
X1233Y210D01*
X1250Y210D02*
X1256Y210D01*
X1277Y210D02*
X1283Y210D01*
X1300Y210D02*
X1333Y210D01*
X1350Y210D02*
X1356Y210D01*
X1413Y210D02*
X1419Y210D01*
X1427Y210D02*
X1433Y210D01*
X1451Y210D02*
X1479Y210D01*
X1103Y209D02*
X1109Y209D01*
X1124Y209D02*
X1130Y209D01*
X1150Y209D02*
X1156Y209D01*
X1177Y209D02*
X1183Y209D01*
X1199Y209D02*
X1205Y209D01*
X1213Y209D02*
X1219Y209D01*
X1227Y209D02*
X1233Y209D01*
X1250Y209D02*
X1256Y209D01*
X1277Y209D02*
X1283Y209D01*
X1300Y209D02*
X1333Y209D01*
X1350Y209D02*
X1356Y209D01*
X1413Y209D02*
X1419Y209D01*
X1427Y209D02*
X1433Y209D01*
X1466Y209D02*
X1478Y209D01*
X1103Y208D02*
X1109Y208D01*
X1124Y208D02*
X1130Y208D01*
X1150Y208D02*
X1156Y208D01*
X1177Y208D02*
X1183Y208D01*
X1199Y208D02*
X1205Y208D01*
X1213Y208D02*
X1219Y208D01*
X1227Y208D02*
X1233Y208D01*
X1250Y208D02*
X1256Y208D01*
X1277Y208D02*
X1283Y208D01*
X1300Y208D02*
X1332Y208D01*
X1350Y208D02*
X1356Y208D01*
X1413Y208D02*
X1419Y208D01*
X1427Y208D02*
X1433Y208D01*
X1472Y208D02*
X1478Y208D01*
X1103Y207D02*
X1109Y207D01*
X1124Y207D02*
X1130Y207D01*
X1150Y207D02*
X1156Y207D01*
X1177Y207D02*
X1183Y207D01*
X1199Y207D02*
X1205Y207D01*
X1213Y207D02*
X1219Y207D01*
X1227Y207D02*
X1233Y207D01*
X1250Y207D02*
X1256Y207D01*
X1277Y207D02*
X1283Y207D01*
X1300Y207D02*
X1331Y207D01*
X1350Y207D02*
X1356Y207D01*
X1413Y207D02*
X1419Y207D01*
X1427Y207D02*
X1433Y207D01*
X1472Y207D02*
X1478Y207D01*
X1103Y206D02*
X1109Y206D01*
X1124Y206D02*
X1130Y206D01*
X1150Y206D02*
X1156Y206D01*
X1177Y206D02*
X1183Y206D01*
X1199Y206D02*
X1205Y206D01*
X1213Y206D02*
X1219Y206D01*
X1227Y206D02*
X1233Y206D01*
X1250Y206D02*
X1256Y206D01*
X1277Y206D02*
X1283Y206D01*
X1300Y206D02*
X1306Y206D01*
X1350Y206D02*
X1356Y206D01*
X1413Y206D02*
X1419Y206D01*
X1427Y206D02*
X1433Y206D01*
X1472Y206D02*
X1478Y206D01*
X1103Y205D02*
X1109Y205D01*
X1124Y205D02*
X1130Y205D01*
X1150Y205D02*
X1156Y205D01*
X1175Y205D02*
X1183Y205D01*
X1199Y205D02*
X1205Y205D01*
X1213Y205D02*
X1219Y205D01*
X1227Y205D02*
X1233Y205D01*
X1250Y205D02*
X1256Y205D01*
X1277Y205D02*
X1283Y205D01*
X1300Y205D02*
X1306Y205D01*
X1350Y205D02*
X1356Y205D01*
X1413Y205D02*
X1419Y205D01*
X1427Y205D02*
X1433Y205D01*
X1472Y205D02*
X1478Y205D01*
X1103Y204D02*
X1109Y204D01*
X1124Y204D02*
X1130Y204D01*
X1150Y204D02*
X1156Y204D01*
X1174Y204D02*
X1183Y204D01*
X1199Y204D02*
X1205Y204D01*
X1213Y204D02*
X1219Y204D01*
X1227Y204D02*
X1233Y204D01*
X1250Y204D02*
X1257Y204D01*
X1276Y204D02*
X1283Y204D01*
X1300Y204D02*
X1306Y204D01*
X1350Y204D02*
X1356Y204D01*
X1413Y204D02*
X1419Y204D01*
X1427Y204D02*
X1433Y204D01*
X1472Y204D02*
X1478Y204D01*
X1103Y203D02*
X1109Y203D01*
X1124Y203D02*
X1130Y203D01*
X1150Y203D02*
X1156Y203D01*
X1172Y203D02*
X1183Y203D01*
X1199Y203D02*
X1205Y203D01*
X1213Y203D02*
X1219Y203D01*
X1227Y203D02*
X1233Y203D01*
X1250Y203D02*
X1258Y203D01*
X1275Y203D02*
X1283Y203D01*
X1300Y203D02*
X1306Y203D01*
X1350Y203D02*
X1356Y203D01*
X1413Y203D02*
X1419Y203D01*
X1427Y203D02*
X1433Y203D01*
X1472Y203D02*
X1478Y203D01*
X1103Y202D02*
X1109Y202D01*
X1124Y202D02*
X1130Y202D01*
X1150Y202D02*
X1157Y202D01*
X1170Y202D02*
X1183Y202D01*
X1199Y202D02*
X1205Y202D01*
X1213Y202D02*
X1219Y202D01*
X1227Y202D02*
X1233Y202D01*
X1250Y202D02*
X1259Y202D01*
X1274Y202D02*
X1282Y202D01*
X1300Y202D02*
X1307Y202D01*
X1350Y202D02*
X1356Y202D01*
X1413Y202D02*
X1419Y202D01*
X1427Y202D02*
X1433Y202D01*
X1472Y202D02*
X1478Y202D01*
X1103Y201D02*
X1110Y201D01*
X1123Y201D02*
X1130Y201D01*
X1151Y201D02*
X1157Y201D01*
X1169Y201D02*
X1183Y201D01*
X1199Y201D02*
X1205Y201D01*
X1213Y201D02*
X1219Y201D01*
X1227Y201D02*
X1234Y201D01*
X1250Y201D02*
X1260Y201D01*
X1273Y201D02*
X1282Y201D01*
X1300Y201D02*
X1308Y201D01*
X1350Y201D02*
X1356Y201D01*
X1413Y201D02*
X1419Y201D01*
X1427Y201D02*
X1433Y201D01*
X1472Y201D02*
X1478Y201D01*
X1103Y200D02*
X1110Y200D01*
X1123Y200D02*
X1129Y200D01*
X1151Y200D02*
X1158Y200D01*
X1167Y200D02*
X1183Y200D01*
X1199Y200D02*
X1205Y200D01*
X1213Y200D02*
X1219Y200D01*
X1228Y200D02*
X1234Y200D01*
X1250Y200D02*
X1261Y200D01*
X1272Y200D02*
X1281Y200D01*
X1301Y200D02*
X1309Y200D01*
X1350Y200D02*
X1356Y200D01*
X1413Y200D02*
X1419Y200D01*
X1427Y200D02*
X1433Y200D01*
X1472Y200D02*
X1478Y200D01*
X1104Y199D02*
X1129Y199D01*
X1151Y199D02*
X1183Y199D01*
X1199Y199D02*
X1205Y199D01*
X1213Y199D02*
X1219Y199D01*
X1228Y199D02*
X1234Y199D01*
X1250Y199D02*
X1262Y199D01*
X1271Y199D02*
X1280Y199D01*
X1301Y199D02*
X1330Y199D01*
X1350Y199D02*
X1356Y199D01*
X1403Y199D02*
X1433Y199D01*
X1472Y199D02*
X1478Y199D01*
X1104Y198D02*
X1129Y198D01*
X1151Y198D02*
X1183Y198D01*
X1199Y198D02*
X1205Y198D01*
X1213Y198D02*
X1219Y198D01*
X1228Y198D02*
X1234Y198D01*
X1250Y198D02*
X1264Y198D01*
X1269Y198D02*
X1279Y198D01*
X1302Y198D02*
X1332Y198D01*
X1350Y198D02*
X1356Y198D01*
X1401Y198D02*
X1433Y198D01*
X1472Y198D02*
X1478Y198D01*
X1105Y197D02*
X1128Y197D01*
X1152Y197D02*
X1175Y197D01*
X1177Y197D02*
X1183Y197D01*
X1199Y197D02*
X1205Y197D01*
X1213Y197D02*
X1219Y197D01*
X1228Y197D02*
X1234Y197D01*
X1250Y197D02*
X1278Y197D01*
X1303Y197D02*
X1333Y197D01*
X1350Y197D02*
X1356Y197D01*
X1400Y197D02*
X1433Y197D01*
X1472Y197D02*
X1478Y197D01*
X1105Y196D02*
X1127Y196D01*
X1153Y196D02*
X1173Y196D01*
X1177Y196D02*
X1183Y196D01*
X1199Y196D02*
X1205Y196D01*
X1213Y196D02*
X1219Y196D01*
X1228Y196D02*
X1234Y196D01*
X1250Y196D02*
X1277Y196D01*
X1304Y196D02*
X1333Y196D01*
X1350Y196D02*
X1356Y196D01*
X1400Y196D02*
X1433Y196D01*
X1472Y196D02*
X1478Y196D01*
X1106Y195D02*
X1126Y195D01*
X1154Y195D02*
X1172Y195D01*
X1177Y195D02*
X1183Y195D01*
X1199Y195D02*
X1205Y195D01*
X1213Y195D02*
X1219Y195D01*
X1228Y195D02*
X1234Y195D01*
X1250Y195D02*
X1276Y195D01*
X1305Y195D02*
X1333Y195D01*
X1350Y195D02*
X1356Y195D01*
X1400Y195D02*
X1433Y195D01*
X1472Y195D02*
X1478Y195D01*
X1108Y194D02*
X1125Y194D01*
X1155Y194D02*
X1170Y194D01*
X1178Y194D02*
X1183Y194D01*
X1200Y194D02*
X1205Y194D01*
X1214Y194D02*
X1219Y194D01*
X1228Y194D02*
X1233Y194D01*
X1250Y194D02*
X1256Y194D01*
X1258Y194D02*
X1275Y194D01*
X1306Y194D02*
X1333Y194D01*
X1350Y194D02*
X1355Y194D01*
X1400Y194D02*
X1433Y194D01*
X1472Y194D02*
X1477Y194D01*
X1109Y193D02*
X1124Y193D01*
X1157Y193D02*
X1168Y193D01*
X1178Y193D02*
X1182Y193D01*
X1200Y193D02*
X1204Y193D01*
X1215Y193D02*
X1218Y193D01*
X1229Y193D02*
X1233Y193D01*
X1250Y193D02*
X1256Y193D01*
X1260Y193D02*
X1273Y193D01*
X1308Y193D02*
X1332Y193D01*
X1351Y193D02*
X1354Y193D01*
X1401Y193D02*
X1432Y193D01*
X1473Y193D02*
X1477Y193D01*
X1250Y192D02*
X1256Y192D01*
X1261Y192D02*
X1272Y192D01*
X1250Y191D02*
X1256Y191D01*
X1264Y191D02*
X1270Y191D01*
X1250Y190D02*
X1256Y190D01*
X1250Y189D02*
X1256Y189D01*
X1250Y188D02*
X1256Y188D01*
X1250Y187D02*
X1256Y187D01*
X1250Y186D02*
X1256Y186D01*
X1250Y185D02*
X1256Y185D01*
X1250Y184D02*
X1256Y184D01*
X1250Y183D02*
X1256Y183D01*
X1250Y182D02*
X1256Y182D01*
X1250Y181D02*
X1256Y181D01*
X1250Y180D02*
X1255Y180D01*
X1250Y179D02*
X1255Y179D01*
X1251Y178D02*
X1254Y178D01*
X1196Y149D02*
X1226Y149D01*
X1246Y149D02*
X1256Y149D01*
X1267Y149D02*
X1273Y149D01*
X1195Y148D02*
X1227Y148D01*
X1245Y148D02*
X1257Y148D01*
X1266Y148D02*
X1274Y148D01*
X1195Y147D02*
X1228Y147D01*
X1245Y147D02*
X1257Y147D01*
X1264Y147D02*
X1276Y147D01*
X1194Y146D02*
X1228Y146D01*
X1244Y146D02*
X1258Y146D01*
X1263Y146D02*
X1276Y146D01*
X1194Y145D02*
X1228Y145D01*
X1245Y145D02*
X1258Y145D01*
X1262Y145D02*
X1277Y145D01*
X1194Y144D02*
X1227Y144D01*
X1245Y144D02*
X1258Y144D01*
X1261Y144D02*
X1277Y144D01*
X1194Y143D02*
X1226Y143D01*
X1247Y143D02*
X1278Y143D01*
X1194Y142D02*
X1200Y142D01*
X1208Y142D02*
X1214Y142D01*
X1253Y142D02*
X1268Y142D01*
X1272Y142D02*
X1278Y142D01*
X1194Y141D02*
X1200Y141D01*
X1208Y141D02*
X1214Y141D01*
X1253Y141D02*
X1267Y141D01*
X1272Y141D02*
X1278Y141D01*
X1194Y140D02*
X1200Y140D01*
X1208Y140D02*
X1214Y140D01*
X1253Y140D02*
X1266Y140D01*
X1272Y140D02*
X1278Y140D01*
X1194Y139D02*
X1200Y139D01*
X1208Y139D02*
X1214Y139D01*
X1254Y139D02*
X1265Y139D01*
X1272Y139D02*
X1278Y139D01*
X1194Y138D02*
X1200Y138D01*
X1208Y138D02*
X1214Y138D01*
X1254Y138D02*
X1263Y138D01*
X1272Y138D02*
X1278Y138D01*
X1194Y137D02*
X1200Y137D01*
X1208Y137D02*
X1214Y137D01*
X1252Y137D02*
X1262Y137D01*
X1272Y137D02*
X1278Y137D01*
X1194Y136D02*
X1200Y136D01*
X1208Y136D02*
X1214Y136D01*
X1251Y136D02*
X1262Y136D01*
X1272Y136D02*
X1278Y136D01*
X1194Y135D02*
X1200Y135D01*
X1208Y135D02*
X1214Y135D01*
X1250Y135D02*
X1262Y135D01*
X1272Y135D02*
X1278Y135D01*
X1194Y134D02*
X1200Y134D01*
X1208Y134D02*
X1214Y134D01*
X1249Y134D02*
X1262Y134D01*
X1272Y134D02*
X1278Y134D01*
X1194Y133D02*
X1200Y133D01*
X1208Y133D02*
X1214Y133D01*
X1248Y133D02*
X1263Y133D01*
X1272Y133D02*
X1278Y133D01*
X1194Y132D02*
X1200Y132D01*
X1208Y132D02*
X1214Y132D01*
X1247Y132D02*
X1263Y132D01*
X1272Y132D02*
X1278Y132D01*
X1194Y131D02*
X1200Y131D01*
X1208Y131D02*
X1214Y131D01*
X1246Y131D02*
X1255Y131D01*
X1257Y131D02*
X1263Y131D01*
X1272Y131D02*
X1278Y131D01*
X1194Y130D02*
X1200Y130D01*
X1208Y130D02*
X1214Y130D01*
X1246Y130D02*
X1254Y130D01*
X1257Y130D02*
X1264Y130D01*
X1272Y130D02*
X1278Y130D01*
X1194Y129D02*
X1200Y129D01*
X1208Y129D02*
X1214Y129D01*
X1245Y129D02*
X1253Y129D01*
X1258Y129D02*
X1264Y129D01*
X1272Y129D02*
X1278Y129D01*
X1194Y128D02*
X1200Y128D01*
X1208Y128D02*
X1214Y128D01*
X1245Y128D02*
X1252Y128D01*
X1258Y128D02*
X1264Y128D01*
X1272Y128D02*
X1278Y128D01*
X1195Y127D02*
X1200Y127D01*
X1208Y127D02*
X1214Y127D01*
X1245Y127D02*
X1251Y127D01*
X1259Y127D02*
X1264Y127D01*
X1272Y127D02*
X1278Y127D01*
X1196Y126D02*
X1199Y126D01*
X1208Y126D02*
X1214Y126D01*
X1245Y126D02*
X1251Y126D01*
X1259Y126D02*
X1263Y126D01*
X1272Y126D02*
X1278Y126D01*
X1208Y125D02*
X1214Y125D01*
X1244Y125D02*
X1251Y125D01*
X1272Y125D02*
X1278Y125D01*
X1208Y124D02*
X1214Y124D01*
X1244Y124D02*
X1250Y124D01*
X1272Y124D02*
X1278Y124D01*
X1208Y123D02*
X1214Y123D01*
X1244Y123D02*
X1250Y123D01*
X1272Y123D02*
X1278Y123D01*
X1208Y122D02*
X1214Y122D01*
X1244Y122D02*
X1250Y122D01*
X1272Y122D02*
X1278Y122D01*
X1208Y121D02*
X1214Y121D01*
X1244Y121D02*
X1250Y121D01*
X1272Y121D02*
X1278Y121D01*
X1208Y120D02*
X1214Y120D01*
X1244Y120D02*
X1250Y120D01*
X1272Y120D02*
X1278Y120D01*
X1208Y119D02*
X1214Y119D01*
X1244Y119D02*
X1250Y119D01*
X1271Y119D02*
X1278Y119D01*
X1208Y118D02*
X1214Y118D01*
X1244Y118D02*
X1250Y118D01*
X1271Y118D02*
X1277Y118D01*
X1208Y117D02*
X1214Y117D01*
X1244Y117D02*
X1250Y117D01*
X1270Y117D02*
X1277Y117D01*
X1208Y116D02*
X1214Y116D01*
X1244Y116D02*
X1250Y116D01*
X1269Y116D02*
X1277Y116D01*
X1208Y115D02*
X1214Y115D01*
X1244Y115D02*
X1250Y115D01*
X1268Y115D02*
X1276Y115D01*
X1208Y114D02*
X1214Y114D01*
X1244Y114D02*
X1250Y114D01*
X1267Y114D02*
X1276Y114D01*
X1208Y113D02*
X1214Y113D01*
X1244Y113D02*
X1250Y113D01*
X1266Y113D02*
X1275Y113D01*
X1208Y112D02*
X1214Y112D01*
X1244Y112D02*
X1250Y112D01*
X1265Y112D02*
X1274Y112D01*
X1208Y111D02*
X1214Y111D01*
X1244Y111D02*
X1250Y111D01*
X1263Y111D02*
X1273Y111D01*
X1208Y110D02*
X1214Y110D01*
X1244Y110D02*
X1250Y110D01*
X1262Y110D02*
X1272Y110D01*
X1208Y109D02*
X1214Y109D01*
X1244Y109D02*
X1250Y109D01*
X1261Y109D02*
X1271Y109D01*
X1208Y108D02*
X1214Y108D01*
X1244Y108D02*
X1250Y108D01*
X1260Y108D02*
X1270Y108D01*
X1208Y107D02*
X1214Y107D01*
X1244Y107D02*
X1250Y107D01*
X1259Y107D02*
X1269Y107D01*
X1208Y106D02*
X1214Y106D01*
X1244Y106D02*
X1250Y106D01*
X1257Y106D02*
X1267Y106D01*
X1208Y105D02*
X1214Y105D01*
X1244Y105D02*
X1250Y105D01*
X1256Y105D02*
X1266Y105D01*
X1208Y104D02*
X1214Y104D01*
X1244Y104D02*
X1250Y104D01*
X1255Y104D02*
X1265Y104D01*
X1208Y103D02*
X1214Y103D01*
X1244Y103D02*
X1251Y103D01*
X1254Y103D02*
X1264Y103D01*
X1208Y102D02*
X1226Y102D01*
X1245Y102D02*
X1263Y102D01*
X1208Y101D02*
X1227Y101D01*
X1245Y101D02*
X1261Y101D01*
X1208Y100D02*
X1228Y100D01*
X1245Y100D02*
X1260Y100D01*
X1208Y99D02*
X1228Y99D01*
X1246Y99D02*
X1259Y99D01*
X1208Y98D02*
X1228Y98D01*
X1247Y98D02*
X1258Y98D01*
X1208Y97D02*
X1227Y97D01*
X1248Y97D02*
X1257Y97D01*
X1208Y96D02*
X1226Y96D01*
X1250Y96D02*
X1255Y96D01*
D02*
G04 End of Silk1*
M02*