<?xml version='1.0' encoding='UTF-8' standalone='no'?>
<!-- Created with Fritzing (http://www.fritzing.org/) -->
<svg xmlns="http://www.w3.org/2000/svg" y="0in" version="1.2" baseProfile="tiny" x="0in" width="1.88654in"  viewBox="0 0 135.831 96.378" xmlns:svg="http://www.w3.org/2000/svg" height="1.33858in">
 <g transform="matrix(-1, 0, 0, 1, 135.831, 0)">
  <g partID="854364220">
   <g id="board" >
    <rect y="0.288" id="boardoutline" stroke="black" fill-opacity="0.5" width="135.255" x="0.288"  stroke-width="0.5" height="95.802" fill="none"/>
   </g>
  </g>
  <g partID="855060520">
   <g transform="translate(40.7624,27.3344)">
    <g id="copper0" >
     <rect y="2.34" id="square" stroke="black" width="3.96" x="2.34"  stroke-width="2.16" height="3.96" fill="black"/>
     <circle id="connector0pin" stroke="black"  cy="4.32" cx="4.32" stroke-width="2.16" r="1.98" fill="black"/>
     <circle id="connector15pin" stroke="black"  cy="4.32" cx="25.92" stroke-width="2.16" r="1.98" fill="black"/>
     <circle id="connector1pin" stroke="black"  cy="11.52" cx="4.32" stroke-width="2.16" r="1.98" fill="black"/>
     <circle id="connector14pin" stroke="black"  cy="11.52" cx="25.92" stroke-width="2.16" r="1.98" fill="black"/>
     <circle id="connector2pin" stroke="black"  cy="18.72" cx="4.32" stroke-width="2.16" r="1.98" fill="black"/>
     <circle id="connector13pin" stroke="black"  cy="18.72" cx="25.92" stroke-width="2.16" r="1.98" fill="black"/>
     <circle id="connector3pin" stroke="black"  cy="25.92" cx="4.32" stroke-width="2.16" r="1.98" fill="black"/>
     <circle id="connector12pin" stroke="black"  cy="25.92" cx="25.92" stroke-width="2.16" r="1.98" fill="black"/>
     <circle id="connector4pin" stroke="black"  cy="33.12" cx="4.32" stroke-width="2.16" r="1.98" fill="black"/>
     <circle id="connector11pin" stroke="black"  cy="33.12" cx="25.92" stroke-width="2.16" r="1.98" fill="black"/>
     <circle id="connector5pin" stroke="black"  cy="40.32" cx="4.32" stroke-width="2.16" r="1.98" fill="black"/>
     <circle id="connector10pin" stroke="black"  cy="40.32" cx="25.92" stroke-width="2.16" r="1.98" fill="black"/>
     <circle id="connector6pin" stroke="black"  cy="47.52" cx="4.32" stroke-width="2.16" r="1.98" fill="black"/>
     <circle id="connector9pin" stroke="black"  cy="47.52" cx="25.92" stroke-width="2.16" r="1.98" fill="black"/>
     <circle id="connector7pin" stroke="black"  cy="54.72" cx="4.32" stroke-width="2.16" r="1.98" fill="black"/>
     <circle id="connector8pin" stroke="black"  cy="54.72" cx="25.92" stroke-width="2.16" r="1.98" fill="black"/>
    </g>
   </g>
  </g>
  <g partID="855024720">
   <g transform="translate(4.3304,26.9024)">
    <g id="copper0" >
     <circle stroke="black" id="connector0pad"  cy="4.752" cx="4.752" stroke-width="2.16" r="1.98" fill="black"/>
     <circle stroke="black" id="connector1pad"  cy="4.752" cx="33.552" stroke-width="2.16" r="1.98" fill="black"/>
    </g>
   </g>
  </g>
  <g partID="855034560">
   <g transform="translate(76.3304,19.7024)">
    <g id="copper0" >
     <circle stroke="black" id="connector0pad"  cy="4.752" cx="4.752" stroke-width="2.16" r="1.98" fill="black"/>
     <circle stroke="black" id="connector1pad"  cy="62.352" cx="4.752" stroke-width="2.16" r="1.98" fill="black"/>
    </g>
   </g>
  </g>
  <g partID="855036360">
   <g transform="translate(83.5304,19.7024)">
    <g id="copper0" >
     <circle stroke="black" id="connector0pad"  cy="47.952" cx="4.752" stroke-width="2.16" r="1.98" fill="black"/>
     <circle stroke="black" id="connector1pad"  cy="4.752" cx="4.752" stroke-width="2.16" r="1.98" fill="black"/>
    </g>
   </g>
  </g>
  <g partID="855036510">
   <g transform="translate(90.7304,19.7024)">
    <g id="copper0" >
     <circle stroke="black" id="connector0pad"  cy="40.752" cx="4.752" stroke-width="2.16" r="1.98" fill="black"/>
     <circle stroke="black" id="connector1pad"  cy="4.752" cx="4.752" stroke-width="2.16" r="1.98" fill="black"/>
    </g>
   </g>
  </g>
  <g partID="855036660">
   <g transform="translate(97.9304,19.7024)">
    <g id="copper0" >
     <circle stroke="black" id="connector0pad"  cy="33.552" cx="4.752" stroke-width="2.16" r="1.98" fill="black"/>
     <circle stroke="black" id="connector1pad"  cy="4.752" cx="4.752" stroke-width="2.16" r="1.98" fill="black"/>
    </g>
   </g>
  </g>
  <g partID="855040890">
   <g transform="translate(112.33,19.7024)">
    <g id="copper0" >
     <circle stroke="black" id="connector0pad"  cy="40.752" cx="4.752" stroke-width="2.16" r="1.98" fill="black"/>
     <circle stroke="black" id="connector1pad"  cy="4.752" cx="4.752" stroke-width="2.16" r="1.98" fill="black"/>
    </g>
   </g>
  </g>
  <g partID="855041700">
   <g transform="translate(47.5304,84.5024)">
    <g id="copper0" >
     <circle stroke="black" id="connector0pad"  cy="4.752" cx="4.752" stroke-width="2.16" r="1.98" fill="black"/>
     <circle stroke="black" id="connector1pad"  cy="4.752" cx="47.952" stroke-width="2.16" r="1.98" fill="black"/>
    </g>
   </g>
  </g>
  <g partID="855044720">
   <g transform="translate(105.13,19.7024)">
    <g id="copper0" >
     <circle stroke="black" id="connector0pad"  cy="4.752" cx="4.752" stroke-width="2.16" r="1.98" fill="black"/>
     <circle stroke="black" id="connector1pad"  cy="47.952" cx="4.752" stroke-width="2.16" r="1.98" fill="black"/>
    </g>
   </g>
  </g>
  <g partID="855046620">
   <g transform="translate(119.564,84.536)">
    <g id="copper0" >
     <circle stroke="black" id="nonconn0"  cy="4.71811" cx="4.71811" stroke-width="0.72" r="3.11811" fill="black"/>
    </g>
   </g>
  </g>
  <g partID="855046650">
   <g transform="translate(119.564,1.6144)">
    <g id="copper0" >
     <circle stroke="black" id="nonconn0"  cy="4.71811" cx="4.71811" stroke-width="0.72" r="3.11811" fill="black"/>
    </g>
   </g>
  </g>
  <g partID="855046680">
   <g transform="translate(25.964,48.536)">
    <g id="copper0" >
     <circle stroke="black" id="nonconn0"  cy="4.71811" cx="4.71811" stroke-width="0.72" r="3.11811" fill="black"/>
    </g>
   </g>
  </g>
  <g partID="854994560">
   <g transform="translate(4.364,1.6144)">
    <g id="copper0" >
     <circle stroke="black" id="nonconn0"  cy="4.71811" cx="4.71811" stroke-width="0.72" r="3.11811" fill="black"/>
    </g>
   </g>
  </g>
  <g partID="854705550">
   <g transform="translate(94.4744,85.6544)">
    <g transform="matrix(0,-1,1,0,0,0)">
     <g id="copper0" >
      <circle id="connector0pin" stroke="black"  cy="8.208" cx="3.6" stroke-width="2.16" r="1.98" fill="black"/>
      <circle id="connector1pin" stroke="black"  cy="8.208" cx="10.8" stroke-width="2.16" r="1.98" fill="black"/>
      <circle id="connector2pin" stroke="black"  cy="8.208" cx="18" stroke-width="2.16" r="1.98" fill="black"/>
     </g>
    </g>
   </g>
  </g>
  <g partID="854688090">
   <g transform="translate(119.242,69.8144)">
    <g id="copper0" >
     <circle id="connector0pin" stroke="black"  cy="5.04" cx="5.04" stroke-width="2.16" r="2.088" fill="black"/>
     <circle id="connector1pin" stroke="black"  cy="12.24" cx="5.04" stroke-width="2.16" r="2.088" fill="black"/>
    </g>
   </g>
  </g>
  <g partID="854688690">
   <g transform="translate(119.242,41.0144)">
    <g id="copper0" >
     <circle id="connector0pin" stroke="black"  cy="5.04" cx="5.04" stroke-width="2.16" r="2.088" fill="black"/>
     <circle id="connector1pin" stroke="black"  cy="12.24" cx="5.04" stroke-width="2.16" r="2.088" fill="black"/>
    </g>
   </g>
  </g>
  <g partID="854690350">
   <g transform="translate(-13.5976,10.0544)">
    <g id="copper0" >
     <rect y="5.184" stroke="black" width="3.96" x="20.664"  stroke-width="2.16" height="3.96" fill="black"/>
     <circle id="connector0pin" stroke="black"  cy="7.2" cx="22.68" stroke-width="2.16" r="1.98" fill="black"/>
     <circle id="connector1pin" stroke="black"  cy="7.2" cx="29.88" stroke-width="2.16" r="1.98" fill="black"/>
     <circle id="connector2pin" stroke="black"  cy="7.2" cx="37.08" stroke-width="2.16" r="1.98" fill="black"/>
     <circle id="connector3pin" stroke="black"  cy="7.2" cx="44.28" stroke-width="2.16" r="1.98" fill="black"/>
     <circle id="connector4pin" stroke="black"  cy="7.2" cx="51.48" stroke-width="2.16" r="1.98" fill="black"/>
     <circle id="connector5pin" stroke="black"  cy="7.2" cx="58.68" stroke-width="2.16" r="1.98" fill="black"/>
     <circle id="connector6pin" stroke="black"  cy="7.2" cx="65.88" stroke-width="2.16" r="1.98" fill="black"/>
     <circle id="connector7pin" stroke="black"  cy="7.2" cx="73.08" stroke-width="2.16" r="1.98" fill="black"/>
     <circle id="connector8pin" stroke="black"  cy="7.2" cx="80.28" stroke-width="2.16" r="1.98" fill="black"/>
     <circle id="connector9pin" stroke="black"  cy="7.2" cx="87.48" stroke-width="2.16" r="1.98" fill="black"/>
     <circle id="connector10pin" stroke="black"  cy="7.2" cx="94.68" stroke-width="2.16" r="1.98" fill="black"/>
     <circle id="connector11pin" stroke="black"  cy="7.2" cx="101.88" stroke-width="2.16" r="1.98" fill="black"/>
     <circle id="connector12pin" stroke="black"  cy="7.2" cx="109.08" stroke-width="2.16" r="1.98" fill="black"/>
     <circle id="connector13pin" stroke="black"  cy="7.2" cx="116.28" stroke-width="2.16" r="1.98" fill="black"/>
     <circle id="connector14pin" stroke="black"  cy="7.2" cx="123.48" stroke-width="2.16" r="1.98" fill="black"/>
     <circle id="connector15pin" stroke="black"  cy="7.2" cx="130.68" stroke-width="2.16" r="1.98" fill="black"/>
    </g>
   </g>
  </g>
  <g partID="854694650">
   <g transform="translate(34.1384,84.9344)">
    <g transform="matrix(-1,0,0,-1,0,0)">
     <g id="copper0" flipped="1">
      <g transform="matrix(-1, 0, 0, 1, 22.176, 0)">
       <g>
        <g>
         <g gorn="0.3">
          <circle connectorname="1" id="connector0pad" stroke="black" cy="10.08" gorn="0.3.0" stroke-width="2.052" cx="3.456" r="1.71" fill="black"/>
          <path d="m1.08,7.704,4.752,0,0,4.752,-4.752,0,0,-4.752zM2.412,10.08a1.044,1.044,0,1,0,2.088,0,1.044,1.044,0,1,0,-2.088,0z" id="path6" stroke="black" gorn="0.3.1" stroke-width="0.72" fill="black"/>
          <circle connectorname="2" id="connector1pad" stroke="black" cy="2.87887" gorn="0.3.2" stroke-width="2.052" cx="11.088" r="1.71" fill="black"/>
          <circle connectorname="3" id="connector2pad" stroke="black" cy="10.08" gorn="0.3.3" stroke-width="2.052" cx="18.72" r="1.71" fill="black"/>
          <circle connectorname="1" id="circle11" stroke="black" cy="10.08" gorn="0.3.4" stroke-width="2.052" cx="3.456" r="1.71" fill="black"/>
          <path d="m1.08,7.704,4.752,0,0,4.752,-4.752,0,0,-4.752zM2.412,10.08a1.044,1.044,0,1,0,2.088,0,1.044,1.044,0,1,0,-2.088,0z" id="path13" stroke="black" gorn="0.3.5" stroke-width="0.72" fill="black"/>
          <circle connectorname="2" id="circle15" stroke="black" cy="2.87887" gorn="0.3.6" stroke-width="2.052" cx="11.088" r="1.71" fill="black"/>
          <circle connectorname="3" id="circle17" stroke="black" cy="10.08" gorn="0.3.7" stroke-width="2.052" cx="18.72" r="1.71" fill="black"/>
         </g>
        </g>
       </g>
      </g>
     </g>
    </g>
   </g>
  </g>
 </g>
</svg>
