<?xml version='1.0' encoding='UTF-8' standalone='no'?>
<!-- Created with Fritzing (http://www.fritzing.org/) -->
<svg xmlns="http://www.w3.org/2000/svg" y="0in" version="1.2" baseProfile="tiny" x="0in" width="1.88654in"  viewBox="0 0 135.831 96.378" xmlns:svg="http://www.w3.org/2000/svg" height="1.33858in">
 <g transform="matrix(-1, 0, 0, 1, 135.831, 0)">
  <g partID="854364221">
   <g id="silkscreen0">
    <rect y="0.288" stroke="black" width="135.255" x="0.288" stroke-width="0.576" height="95.802" fill="none"/>
   </g>
  </g>
  <g partID="854364220">
   <g id="board">
    <rect y="0.288" id="boardoutline" stroke="black" fill-opacity="0.5" width="135.255" x="0.288" stroke-width="0.5" height="95.802" fill="none"/>
   </g>
  </g>
  <g partID="855070490">
   <g transform="translate(120.726,22.7464)">
    <g transform="matrix(-1, 0, 0, 1, 12.885, 0)">
     <g id="silkscreen0" _flipped_="1">
      <polygon stroke="none" points="4.68066,0.105184,4.68066,0.157776,4.57548,0.157776,4.57548,0.210368,4.52289,0.210368,4.52289,0.631103,4.57548,0.631103,4.57548,0.736287,4.62807,0.736287,4.62807,0.841471,4.68066,0.841471,4.68066,0.999247,4.73326,0.999247,4.73326,1.10443,4.78585,1.10443,4.78585,1.15702,5.52213,1.15702,5.52213,1.05184,5.46954,1.05184,5.46954,0.946655,5.41695,0.946655,5.41695,0.736287,5.36436,0.736287,5.36436,0.631103,5.31177,0.631103,5.31177,0.578511,5.25917,0.578511,5.25917,0.420735,5.20658,0.420735,5.20658,0.315552,5.15399,0.315552,5.15399,0.210368,5.1014,0.210368,5.1014,0.157776,5.04881,0.157776,5.04881,0.105184" stroke-width="0" fill="black"/>
      <polygon stroke="none" points="7.88876,0.105184,7.88876,0.157776,7.83617,0.157776,7.83617,0.210368,7.78358,0.210368,7.78358,0.26296,7.73099,0.26296,7.73099,0.368143,7.67839,0.368143,7.67839,0.473327,7.6258,0.473327,7.6258,0.631103,7.57321,0.631103,7.57321,0.788879,7.52062,0.788879,7.52062,0.841471,7.46803,0.841471,7.46803,0.946655,7.41544,0.946655,7.41544,1.10443,7.36284,1.10443,7.36284,1.15702,8.15172,1.15702,8.15172,1.05184,8.20431,1.05184,8.20431,0.946655,8.2569,0.946655,8.2569,0.841471,8.30949,0.841471,8.30949,0.683695,8.36209,0.683695,8.36209,0.525919,8.41468,0.525919,8.41468,0.315552,8.36209,0.315552,8.36209,0.210368,8.30949,0.210368,8.30949,0.157776,8.2569,0.157776,8.2569,0.105184" stroke-width="0" fill="black"/>
      <polygon stroke="none" points="5.94287,1.05184,5.94287,1.10443,5.67991,1.10443,5.67991,1.15702,7.20507,1.15702,7.20507,1.10443,6.94211,1.10443,6.94211,1.05184" stroke-width="0" fill="black"/>
      <polygon stroke="none" points="4.78585,1.15702,4.78585,1.20961,8.09913,1.20961,8.09913,1.15702" stroke-width="0" fill="black"/>
      <polygon stroke="none" points="4.78585,1.15702,4.78585,1.20961,8.09913,1.20961,8.09913,1.15702" stroke-width="0" fill="black"/>
      <polygon stroke="none" points="4.78585,1.15702,4.78585,1.20961,8.09913,1.20961,8.09913,1.15702" stroke-width="0" fill="black"/>
      <polygon stroke="none" points="4.78585,1.20961,4.78585,1.26221,4.83844,1.26221,4.83844,1.36739,4.89103,1.36739,4.89103,1.47257,4.83844,1.47257,4.83844,1.52517,4.78585,1.52517,4.78585,1.57776,4.73326,1.57776,4.73326,1.63035,6.10064,1.63035,6.10064,1.68294,6.25842,1.68294,6.25842,1.73553,6.31101,1.73553,6.31101,1.78813,6.41619,1.78813,6.41619,1.84072,6.52138,1.84072,6.52138,1.9459,6.57397,1.9459,6.57397,2.05109,6.62656,2.05109,6.62656,2.36664,6.57397,2.36664,6.57397,2.47182,8.9406,2.47182,8.9406,2.41923,8.888,2.41923,8.888,2.31404,8.83541,2.31404,8.83541,2.20886,8.78282,2.20886,8.78282,2.15627,8.73023,2.15627,8.73023,2.10368,8.67764,2.10368,8.67764,1.99849,8.62505,1.99849,8.62505,1.9459,8.57245,1.9459,8.57245,1.89331,8.51986,1.89331,8.51986,1.84072,8.46727,1.84072,8.46727,1.78813,8.41468,1.78813,8.41468,1.73553,8.36209,1.73553,8.36209,1.68294,8.30949,1.68294,8.30949,1.63035,8.20431,1.63035,8.20431,1.57776,8.15172,1.57776,8.15172,1.52517,8.09913,1.52517,8.09913,1.47257,8.04654,1.47257,8.04654,1.3148,8.09913,1.3148,8.09913,1.20961" stroke-width="0" fill="black"/>
      <polygon stroke="none" points="4.62807,1.63035,4.62807,1.68294,4.52289,1.68294,4.52289,1.73553,4.4703,1.73553,4.4703,1.84072,4.41771,1.84072,4.41771,1.89331,4.36511,1.89331,4.36511,1.9459,4.31252,1.9459,4.31252,1.99849,4.25993,1.99849,4.25993,2.05109,4.20734,2.05109,4.20734,2.15627,4.15475,2.15627,4.15475,2.20886,4.10216,2.20886,4.10216,2.31404,3.99697,2.31404,3.99697,2.47182,5.15399,2.47182,5.15399,2.31404,5.1014,2.31404,5.1014,2.10368,5.15399,2.10368,5.15399,1.9459,5.20658,1.9459,5.20658,1.89331,5.25917,1.89331,5.25917,1.84072,5.36436,1.84072,5.36436,1.78813,5.41695,1.78813,5.41695,1.73553,5.46954,1.73553,5.46954,1.68294,5.62732,1.68294,5.62732,1.63035" stroke-width="0" fill="black"/>
      <polygon stroke="none" points="2.5244,2.36664,2.5244,2.41923,2.15626,2.41923,2.15626,2.47182,3.68142,2.47182,3.68142,2.41923,3.31328,2.41923,3.31328,2.36664" stroke-width="0" fill="black"/>
      <polygon stroke="none" points="9.5717,2.36664,9.5717,2.41923,9.20355,2.41923,9.20355,2.47182,10.7287,2.47182,10.7287,2.41923,10.4132,2.41923,10.4132,2.36664" stroke-width="0" fill="black"/>
      <polygon stroke="none" points="1.94589,2.47182,1.94589,2.52441,5.20658,2.52441,5.20658,2.47182" stroke-width="0" fill="black"/>
      <polygon stroke="none" points="1.94589,2.47182,1.94589,2.52441,5.20658,2.52441,5.20658,2.47182" stroke-width="0" fill="black"/>
      <polygon stroke="none" points="6.52138,2.47182,6.52138,2.52441,10.9917,2.52441,10.9917,2.47182" stroke-width="0" fill="black"/>
      <polygon stroke="none" points="6.52138,2.47182,6.52138,2.52441,10.9917,2.52441,10.9917,2.47182" stroke-width="0" fill="black"/>
      <polygon stroke="none" points="1.73553,2.52441,1.73553,2.577,1.68294,2.577,1.68294,2.6296,1.57775,2.6296,1.57775,2.68219,1.47257,2.68219,1.47257,2.73478,1.31479,2.73478,1.31479,2.78737,5.67991,2.78737,5.67991,2.73478,5.46954,2.73478,5.46954,2.68219,5.36436,2.68219,5.36436,2.6296,5.31177,2.6296,5.31177,2.577,5.25917,2.577,5.25917,2.52441" stroke-width="0" fill="black"/>
      <polygon stroke="none" points="6.46878,2.52441,6.46878,2.577,6.41619,2.577,6.41619,2.6296,6.3636,2.6296,6.3636,2.68219,6.25842,2.68219,6.25842,2.73478,6.04805,2.73478,6.04805,2.78737,11.5702,2.78737,11.5702,2.73478,11.465,2.73478,11.465,2.68219,11.3598,2.68219,11.3598,2.6296,11.2546,2.6296,11.2546,2.577,11.1494,2.577,11.1494,2.52441" stroke-width="0" fill="black"/>
      <polygon stroke="none" points="1.2622,2.78737,1.2622,2.83996,11.6754,2.83996,11.6754,2.78737" stroke-width="0" fill="black"/>
      <polygon stroke="none" points="1.2622,2.78737,1.2622,2.83996,11.6754,2.83996,11.6754,2.78737" stroke-width="0" fill="black"/>
      <polygon stroke="none" points="1.20961,2.83996,1.20961,2.89256,10.5709,2.89256,10.5709,2.94515,10.8339,2.94515,10.8339,2.99774,10.9917,2.99774,10.9917,3.05033,11.0443,3.05033,11.0443,3.10292,11.1494,3.10292,11.1494,3.15552,11.3072,3.15552,11.3072,3.20811,11.4124,3.20811,11.4124,3.2607,11.465,3.2607,11.465,3.31329,11.5176,3.31329,11.5176,3.36588,11.6228,3.36588,11.6228,3.41848,11.6754,3.41848,11.6754,3.47107,11.728,3.47107,11.728,3.52366,11.7805,3.52366,11.7805,3.57625,11.8331,3.57625,11.8331,3.62884,11.8857,3.62884,11.8857,3.68143,11.9383,3.68143,11.9383,3.78662,12.0435,3.78662,12.0435,3.8918,12.0961,3.8918,12.0961,3.99699,12.1487,3.99699,12.1487,4.15476,12.2013,4.15476,12.2013,4.25995,12.2539,4.25995,12.2539,4.36513,12.3065,4.36513,12.3065,4.73327,12.3591,4.73327,12.3591,4.89105,12.3065,4.89105,12.3065,5.2066,12.2539,5.2066,12.2539,5.31178,12.2013,5.31178,12.2013,5.46956,12.1487,5.46956,12.1487,5.57474,12.0961,5.57474,12.0961,5.67993,12.0435,5.67993,12.0435,5.78511,11.9909,5.78511,11.9909,5.8377,11.9383,5.8377,11.9383,5.8903,11.8857,5.8903,11.8857,5.94289,11.8331,5.94289,11.8331,5.99548,11.7805,5.99548,11.7805,6.04807,11.728,6.04807,11.728,6.10066,11.6754,6.10066,11.6754,6.15326,11.6228,6.15326,11.6228,6.20585,11.5702,6.20585,11.5702,6.25844,11.465,6.25844,11.465,6.31103,11.4124,6.31103,11.4124,6.36362,11.3072,6.36362,11.3072,6.41621,11.202,6.41621,11.202,6.46881,11.0969,6.46881,11.0969,6.5214,10.9917,6.5214,10.9917,6.57399,10.8865,6.57399,10.8865,6.62658,10.6761,6.62658,10.6761,6.67917,10.308,6.67917,10.308,6.73177,11.728,6.73177,11.728,6.67917,11.8331,6.67917,11.8331,6.62658,11.8857,6.62658,11.8857,6.57399,11.9909,6.57399,11.9909,6.5214,12.0435,6.5214,12.0435,6.46881,12.0961,6.46881,12.0961,6.41621,12.1487,6.41621,12.1487,6.36362,12.2013,6.36362,12.2013,6.31103,12.2539,6.31103,12.2539,6.25844,12.3065,6.25844,12.3065,6.15326,12.3591,6.15326,12.3591,6.10066,12.4117,6.10066,12.4117,6.04807,12.4642,6.04807,12.4642,5.99548,12.5168,5.99548,12.5168,5.8377,12.5694,5.8377,12.5694,5.78511,12.622,5.78511,12.622,5.62734,12.6746,5.62734,12.6746,5.46956,12.7272,5.46956,12.7272,5.41697,12.7798,5.41697,12.7798,5.15401,12.8324,5.15401,12.8324,4.47031,12.7798,4.47031,12.7798,4.15476,12.7272,4.15476,12.7272,4.10217,12.6746,4.10217,12.6746,3.94439,12.622,3.94439,12.622,3.83921,12.5694,3.83921,12.5694,3.73403,12.5168,3.73403,12.5168,3.57625,12.4117,3.57625,12.4117,3.52366,12.3591,3.52366,12.3591,3.41848,12.3065,3.41848,12.3065,3.31329,12.2539,3.31329,12.2539,3.2607,12.2013,3.2607,12.2013,3.20811,12.0961,3.20811,12.0961,3.10292,12.0435,3.10292,12.0435,3.05033,11.9909,3.05033,11.9909,2.99774,11.8857,2.99774,11.8857,2.94515,11.7805,2.94515,11.7805,2.89256,11.728,2.89256,11.728,2.83996" stroke-width="0" fill="black"/>
      <polygon stroke="none" points="1.10443,2.89256,1.10443,2.94515,1.05183,2.94515,1.05183,2.99774,0.999243,2.99774,0.999243,3.05033,0.89406,3.05033,0.89406,3.10292,0.841468,3.10292,0.841468,3.15552,0.788876,3.15552,0.788876,3.20811,0.736284,3.20811,0.736284,3.2607,0.683693,3.2607,0.683693,3.31329,0.631101,3.31329,0.631101,3.36588,0.578509,3.36588,0.578509,3.47107,0.525917,3.47107,0.525917,3.52366,0.473326,3.52366,0.473326,3.62884,0.420734,3.62884,0.420734,3.68143,0.368142,3.68143,0.368142,3.73403,0.31555,3.73403,0.31555,3.83921,0.262959,3.83921,0.262959,3.99699,0.210367,3.99699,0.210367,4.20735,0.157775,4.20735,0.157775,4.41772,0.105183,4.41772,0.105183,4.5755,0.0525917,4.5755,0.0525917,4.99623,0.105183,4.99623,0.105183,5.2066,0.157775,5.2066,0.157775,5.41697,0.210367,5.41697,0.210367,5.57474,0.262959,5.57474,0.262959,5.73252,0.31555,5.73252,0.31555,5.8377,0.368142,5.8377,0.368142,5.8903,0.420734,5.8903,0.420734,5.99548,0.473326,5.99548,0.473326,6.04807,0.525917,6.04807,0.525917,6.15326,0.578509,6.15326,0.578509,6.25844,0.683693,6.25844,0.683693,6.31103,0.736284,6.31103,0.736284,6.36362,0.788876,6.36362,0.788876,6.41621,0.841468,6.41621,0.841468,6.5214,0.946651,6.5214,0.946651,6.57399,0.999243,6.57399,0.999243,6.62658,1.10443,6.62658,1.10443,6.67917,1.15702,6.67917,1.15702,6.73177,2.577,6.73177,2.577,6.67917,2.26144,6.67917,2.26144,6.62658,2.05108,6.62658,2.05108,6.57399,1.8933,6.57399,1.8933,6.5214,1.84071,6.5214,1.84071,6.46881,1.68294,6.46881,1.68294,6.41621,1.57775,6.41621,1.57775,6.36362,1.47257,6.36362,1.47257,6.31103,1.41998,6.31103,1.41998,6.25844,1.36739,6.25844,1.36739,6.20585,1.2622,6.20585,1.2622,6.15326,1.20961,6.15326,1.20961,6.10066,1.15702,6.10066,1.15702,6.04807,1.10443,6.04807,1.10443,5.99548,1.05183,5.99548,1.05183,5.94289,0.999243,5.94289,0.999243,5.8903,0.946651,5.8903,0.946651,5.78511,0.89406,5.78511,0.89406,5.67993,0.841468,5.67993,0.841468,5.62734,0.788876,5.62734,0.788876,5.57474,0.736284,5.57474,0.736284,5.41697,0.683693,5.41697,0.683693,5.2066,0.631101,5.2066,0.631101,4.36513,0.683693,4.36513,0.683693,4.15476,0.736284,4.15476,0.736284,4.04958,0.788876,4.04958,0.788876,3.94439,0.841468,3.94439,0.841468,3.8918,0.89406,3.8918,0.89406,3.78662,0.946651,3.78662,0.946651,3.73403,0.999243,3.73403,0.999243,3.68143,1.05183,3.68143,1.05183,3.62884,1.10443,3.62884,1.10443,3.52366,1.20961,3.52366,1.20961,3.47107,1.2622,3.47107,1.2622,3.41848,1.31479,3.41848,1.31479,3.36588,1.41998,3.36588,1.41998,3.2607,1.52516,3.2607,1.52516,3.20811,1.63034,3.20811,1.63034,3.15552,1.73553,3.15552,1.73553,3.10292,1.84071,3.10292,1.84071,3.05033,1.94589,3.05033,1.94589,2.99774,2.10367,2.99774,2.10367,2.94515,2.31404,2.94515,2.31404,2.89256" stroke-width="0" fill="black"/>
      <polygon stroke="none" points="3.52365,2.89256,3.52365,2.94515,3.78661,2.94515,3.78661,2.99774,3.94438,2.99774,3.94438,3.05033,3.99697,3.05033,3.99697,3.10292,4.15475,3.10292,4.15475,3.15552,4.31252,3.15552,4.31252,3.20811,4.41771,3.20811,4.41771,3.2607,4.52289,3.2607,4.52289,3.31329,4.57548,3.31329,4.57548,3.36588,4.68066,3.36588,4.68066,3.41848,4.78585,3.41848,4.78585,3.47107,4.83844,3.47107,4.83844,3.52366,4.94362,3.52366,4.94362,3.57625,4.99622,3.57625,4.99622,3.62884,5.04881,3.62884,5.04881,3.68143,5.1014,3.68143,5.1014,3.73403,5.20658,3.73403,5.20658,3.78662,5.25917,3.78662,5.25917,3.83921,5.31177,3.83921,5.31177,3.8918,5.36436,3.8918,5.36436,3.94439,5.41695,3.94439,5.41695,3.99699,5.52213,3.99699,5.52213,4.04958,5.57472,4.04958,5.57472,4.15476,5.62732,4.15476,5.62732,4.20735,5.7325,4.20735,5.7325,4.31254,5.78509,4.31254,5.78509,4.36513,5.83768,4.36513,5.83768,4.47031,5.94287,4.47031,5.94287,4.52291,5.99546,4.52291,5.99546,4.62809,6.04805,4.62809,6.04805,4.68068,6.10064,4.68068,6.10064,4.89105,6.04805,4.89105,6.04805,4.99623,5.99546,4.99623,5.99546,5.04882,5.94287,5.04882,5.94287,5.10142,5.89027,5.10142,5.89027,5.15401,5.83768,5.15401,5.83768,5.2066,5.78509,5.2066,5.78509,5.31178,5.7325,5.31178,5.7325,5.36438,5.62732,5.36438,5.62732,5.41697,5.57472,5.41697,5.57472,5.52215,5.52213,5.52215,5.52213,5.57474,5.46954,5.57474,5.46954,5.62734,5.36436,5.62734,5.36436,5.67993,5.31177,5.67993,5.31177,5.73252,5.25917,5.73252,5.25917,5.78511,6.94211,5.78511,6.94211,5.8377,6.9947,5.8377,6.9947,5.8903,7.04729,5.8903,7.04729,5.94289,7.09988,5.94289,7.09988,5.99548,7.15248,5.99548,7.15248,6.04807,7.20507,6.04807,7.20507,6.10066,7.31025,6.10066,7.31025,6.15326,7.36284,6.15326,7.36284,6.25844,7.46803,6.25844,7.46803,6.31103,7.57321,6.31103,7.57321,6.36362,7.6258,6.36362,7.6258,6.41621,7.67839,6.41621,7.67839,6.46881,7.73099,6.46881,7.73099,6.5214,7.83617,6.5214,7.83617,6.57399,7.94135,6.57399,7.94135,6.62658,7.99394,6.62658,7.99394,6.67917,8.04654,6.67917,8.04654,6.73177,9.67688,6.73177,9.67688,6.67917,9.30874,6.67917,9.30874,6.62658,9.09837,6.62658,9.09837,6.57399,8.9406,6.57399,8.9406,6.5214,8.83541,6.5214,8.83541,6.46881,8.73023,6.46881,8.73023,6.41621,8.57245,6.41621,8.57245,6.36362,8.46727,6.36362,8.46727,6.31103,8.36209,6.31103,8.36209,6.25844,8.30949,6.25844,8.30949,6.20585,8.20431,6.20585,8.20431,6.15326,8.09913,6.15326,8.09913,6.10066,8.04654,6.10066,8.04654,6.04807,7.94135,6.04807,7.94135,5.99548,7.88876,5.99548,7.88876,5.94289,7.83617,5.94289,7.83617,5.8903,7.78358,5.8903,7.78358,5.8377,7.67839,5.8377,7.67839,5.78511,7.6258,5.78511,7.6258,5.73252,7.57321,5.73252,7.57321,5.67993,7.52062,5.67993,7.52062,5.62734,7.46803,5.62734,7.46803,5.57474,7.41544,5.57474,7.41544,5.52215,7.36284,5.52215,7.36284,5.46956,7.31025,5.46956,7.31025,5.41697,7.25766,5.41697,7.25766,5.36438,7.20507,5.36438,7.20507,5.31178,7.15248,5.31178,7.15248,5.25919,7.09988,5.25919,7.09988,5.2066,7.04729,5.2066,7.04729,5.10142,6.9947,5.10142,6.9947,5.04882,6.94211,5.04882,6.94211,4.99623,6.88952,4.99623,6.88952,4.94364,6.83693,4.94364,6.83693,4.89105,6.78433,4.89105,6.78433,4.73327,6.83693,4.73327,6.83693,4.62809,6.88952,4.62809,6.88952,4.5755,6.94211,4.5755,6.94211,4.52291,6.9947,4.52291,6.9947,4.47031,7.04729,4.47031,7.04729,4.41772,7.09988,4.41772,7.09988,4.31254,7.15248,4.31254,7.15248,4.25995,7.20507,4.25995,7.20507,4.20735,7.25766,4.20735,7.25766,4.15476,7.31025,4.15476,7.31025,4.10217,7.36284,4.10217,7.36284,4.04958,7.41544,4.04958,7.41544,3.99699,7.46803,3.99699,7.46803,3.94439,7.57321,3.94439,7.57321,3.8918,7.6258,3.8918,7.6258,3.78662,7.73099,3.78662,7.73099,3.73403,7.78358,3.73403,7.78358,3.68143,7.83617,3.68143,7.83617,3.62884,7.94135,3.62884,7.94135,3.57625,7.99394,3.57625,7.99394,3.52366,8.04654,3.52366,8.04654,3.47107,8.15172,3.47107,8.15172,3.41848,8.2569,3.41848,8.2569,3.36588,8.36209,3.36588,8.36209,3.2607,8.51986,3.2607,8.51986,3.20811,8.62505,3.20811,8.62505,3.15552,8.78282,3.15552,8.78282,3.10292,8.888,3.10292,8.888,3.05033,8.99319,3.05033,8.99319,2.99774,9.15096,2.99774,9.15096,2.94515,9.41392,2.94515,9.41392,2.89256" stroke-width="0" fill="black"/>
      <polygon stroke="none" points="5.20658,5.78511,5.20658,5.8377,5.15399,5.8377,5.15399,5.8903,5.04881,5.8903,5.04881,5.94289,4.99622,5.94289,4.99622,5.99548,4.94362,5.99548,4.94362,6.04807,4.89103,6.04807,4.89103,6.10066,4.78585,6.10066,4.78585,6.15326,4.73326,6.15326,4.73326,6.20585,4.57548,6.20585,4.57548,6.25844,4.52289,6.25844,4.52289,6.31103,4.4703,6.31103,4.4703,6.36362,4.31252,6.36362,4.31252,6.41621,4.20734,6.41621,4.20734,6.46881,4.04956,6.46881,4.04956,6.5214,3.99697,6.5214,3.99697,6.57399,3.8392,6.57399,3.8392,6.62658,3.62883,6.62658,3.62883,6.67917,3.26069,6.67917,3.26069,6.73177,4.89103,6.73177,4.89103,6.62658,4.99622,6.62658,4.99622,6.57399,5.1014,6.57399,5.1014,6.5214,5.20658,6.5214,5.20658,6.41621,5.31177,6.41621,5.31177,6.36362,5.36436,6.36362,5.36436,6.31103,5.46954,6.31103,5.46954,6.25844,5.52213,6.25844,5.52213,6.20585,5.57472,6.20585,5.57472,6.15326,5.62732,6.15326,5.62732,6.10066,5.67991,6.10066,5.67991,6.04807,5.7325,6.04807,5.7325,5.99548,5.78509,5.99548,5.78509,5.94289,5.83768,5.94289,5.83768,5.8903,5.89027,5.8903,5.89027,5.8377,5.94287,5.8377,5.94287,5.78511" stroke-width="0" fill="black"/>
      <polygon stroke="none" points="1.20961,6.73177,1.20961,6.78436,4.83844,6.78436,4.83844,6.73177" stroke-width="0" fill="black"/>
      <polygon stroke="none" points="1.20961,6.73177,1.20961,6.78436,4.83844,6.78436,4.83844,6.73177" stroke-width="0" fill="black"/>
      <polygon stroke="none" points="8.04654,6.73177,8.04654,6.78436,11.728,6.78436,11.728,6.73177" stroke-width="0" fill="black"/>
      <polygon stroke="none" points="8.04654,6.73177,8.04654,6.78436,11.728,6.78436,11.728,6.73177" stroke-width="0" fill="black"/>
      <polygon stroke="none" points="1.31479,6.78436,1.31479,6.83695,4.89103,6.83695,4.89103,6.78436" stroke-width="0" fill="black"/>
      <polygon stroke="none" points="7.99394,6.78436,7.99394,6.83695,11.5702,6.83695,11.5702,6.78436" stroke-width="0" fill="black"/>
      <polygon stroke="none" points="1.41998,6.83695,1.41998,6.88954,11.5176,6.88954,11.5176,6.83695" stroke-width="0" fill="black"/>
      <polygon stroke="none" points="1.41998,6.83695,1.41998,6.88954,11.5176,6.88954,11.5176,6.83695" stroke-width="0" fill="black"/>
      <polygon stroke="none" points="1.52516,6.88954,1.52516,6.94213,1.63034,6.94213,1.63034,6.99473,1.68294,6.99473,1.68294,7.04732,1.8933,7.04732,1.8933,7.09991,2.10367,7.09991,2.10367,7.1525,2.36663,7.1525,2.36663,7.20509,3.2081,7.20509,3.2081,7.25769,3.26069,7.25769,3.26069,7.31028,3.31328,7.31028,3.31328,7.67842,8.888,7.67842,8.888,7.73101,8.9406,7.73101,8.9406,7.99397,8.888,7.99397,8.888,8.20434,8.83541,8.20434,8.83541,8.30952,8.78282,8.30952,8.78282,8.41471,8.73023,8.41471,8.73023,8.51989,8.67764,8.51989,8.67764,8.62508,8.62505,8.62508,8.62505,8.67767,9.30874,8.67767,9.30874,8.62508,9.36133,8.62508,9.36133,8.4673,9.41392,8.4673,9.41392,8.30952,9.46651,8.30952,9.46651,8.09916,9.5191,8.09916,9.5191,7.88879,9.5717,7.88879,9.5717,7.73101,9.62429,7.73101,9.62429,7.25769,9.67688,7.25769,9.67688,7.20509,10.5709,7.20509,10.5709,7.1525,10.8339,7.1525,10.8339,7.09991,11.0443,7.09991,11.0443,7.04732,11.202,7.04732,11.202,6.99473,11.2546,6.99473,11.2546,6.94213,11.4124,6.94213,11.4124,6.88954" stroke-width="0" fill="black"/>
      <polygon stroke="none" points="3.31328,7.67842,3.31328,7.73101,3.36587,7.73101,3.36587,7.99397,3.41846,7.99397,3.41846,8.25693,3.47105,8.25693,3.47105,8.41471,3.52365,8.41471,3.52365,8.51989,3.57624,8.51989,3.57624,8.62508,3.62883,8.62508,3.62883,8.67767,4.31252,8.67767,4.31252,8.62508,4.25993,8.62508,4.25993,8.57248,4.20734,8.57248,4.20734,8.4673,4.15475,8.4673,4.15475,8.30952,4.10216,8.30952,4.10216,8.20434,4.04956,8.20434,4.04956,7.99397,3.99697,7.99397,3.99697,7.88879,3.94438,7.88879,3.94438,7.7836,3.99697,7.7836,3.99697,7.73101,4.04956,7.73101,4.04956,7.67842" stroke-width="0" fill="black"/>
      <polygon stroke="none" points="3.62883,8.67767,3.62883,8.73026,9.25615,8.73026,9.25615,8.67767" stroke-width="0" fill="black"/>
      <polygon stroke="none" points="3.62883,8.67767,3.62883,8.73026,9.25615,8.73026,9.25615,8.67767" stroke-width="0" fill="black"/>
      <polygon stroke="none" points="3.62883,8.73026,3.62883,8.78285,3.68142,8.78285,3.68142,8.88804,3.73401,8.88804,3.73401,8.99322,3.78661,8.99322,3.78661,9.04581,3.8392,9.04581,3.8392,9.15099,3.89179,9.15099,3.89179,9.20359,3.94438,9.20359,3.94438,9.30877,3.99697,9.30877,3.99697,9.41395,4.04956,9.41395,4.04956,9.46655,4.10216,9.46655,4.10216,9.51914,7.78358,9.51914,7.78358,9.57173,7.83617,9.57173,7.83617,9.67691,7.78358,9.67691,7.78358,9.72951,7.67839,9.72951,7.67839,9.7821,7.6258,9.7821,7.6258,9.83469,7.52062,9.83469,7.52062,9.88728,7.41544,9.88728,7.41544,9.99247,7.36284,9.99247,7.36284,10.0451,7.20507,10.0451,7.20507,10.0976,7.15248,10.0976,7.15248,10.1502,7.04729,10.1502,7.04729,10.2028,6.9947,10.2028,6.9947,10.2554,6.88952,10.2554,6.88952,10.308,6.73174,10.308,6.73174,10.3606,6.57397,10.3606,6.57397,10.4132,7.83617,10.4132,7.83617,10.3606,7.88876,10.3606,7.88876,10.308,7.99394,10.308,7.99394,10.2554,8.04654,10.2554,8.04654,10.2028,8.09913,10.2028,8.09913,10.1502,8.15172,10.1502,8.15172,10.0976,8.2569,10.0976,8.2569,10.0451,8.30949,10.0451,8.30949,9.99247,8.36209,9.99247,8.36209,9.93987,8.41468,9.93987,8.41468,9.88728,8.46727,9.88728,8.46727,9.83469,8.51986,9.83469,8.51986,9.7821,8.57245,9.7821,8.57245,9.72951,8.62505,9.72951,8.62505,9.67691,8.67764,9.67691,8.67764,9.62432,8.73023,9.62432,8.73023,9.51914,8.78282,9.51914,8.78282,9.46655,8.83541,9.46655,8.83541,9.41395,8.888,9.41395,8.888,9.36136,8.9406,9.36136,8.9406,9.25618,8.99319,9.25618,8.99319,9.20359,9.04578,9.20359,9.04578,9.15099,9.09837,9.15099,9.09837,8.99322,9.15096,8.99322,9.15096,8.88804,9.20355,8.88804,9.20355,8.78285,9.25615,8.78285,9.25615,8.73026" stroke-width="0" fill="black"/>
      <polygon stroke="none" points="4.15475,9.51914,4.15475,9.57173,4.20734,9.57173,4.20734,9.67691,4.25993,9.67691,4.25993,9.72951,4.31252,9.72951,4.31252,9.7821,4.41771,9.7821,4.41771,9.88728,4.4703,9.88728,4.4703,9.93987,4.52289,9.93987,4.52289,9.99247,4.62807,9.99247,4.62807,10.0451,4.68066,10.0451,4.68066,10.0976,4.73326,10.0976,4.73326,10.1502,4.78585,10.1502,4.78585,10.2028,4.83844,10.2028,4.83844,10.2554,4.94362,10.2554,4.94362,10.308,4.99622,10.308,4.99622,10.3606,5.1014,10.3606,5.1014,10.4132,6.31101,10.4132,6.31101,10.3606,6.20583,10.3606,6.20583,10.308,6.04805,10.308,6.04805,10.2554,5.94287,10.2554,5.94287,10.1502,5.78509,10.1502,5.78509,10.0976,5.67991,10.0976,5.67991,10.0451,5.62732,10.0451,5.62732,9.99247,5.52213,9.99247,5.52213,9.93987,5.46954,9.93987,5.46954,9.88728,5.41695,9.88728,5.41695,9.83469,5.31177,9.83469,5.31177,9.7821,5.20658,9.7821,5.20658,9.72951,5.15399,9.72951,5.15399,9.62432,5.1014,9.62432,5.1014,9.57173,5.15399,9.57173,5.15399,9.51914" stroke-width="0" fill="black"/>
      <polygon stroke="none" points="5.1014,10.4132,5.1014,10.4658,7.78358,10.4658,7.78358,10.4132" stroke-width="0" fill="black"/>
      <polygon stroke="none" points="5.1014,10.4132,5.1014,10.4658,7.78358,10.4658,7.78358,10.4132" stroke-width="0" fill="black"/>
      <polygon stroke="none" points="5.25917,10.4658,5.25917,10.5184,5.31177,10.5184,5.31177,10.571,5.41695,10.571,5.41695,10.6236,5.46954,10.6236,5.46954,10.6762,5.57472,10.6762,5.57472,10.7288,5.67991,10.7288,5.67991,10.7813,5.78509,10.7813,5.78509,10.8339,5.89027,10.8339,5.89027,10.8865,5.99546,10.8865,5.99546,10.9391,6.10064,10.9391,6.10064,10.9917,6.25842,10.9917,6.25842,11.0443,6.67915,11.0443,6.67915,10.9917,6.78433,10.9917,6.78433,10.9391,6.88952,10.9391,6.88952,10.8865,6.9947,10.8865,6.9947,10.8339,7.09988,10.8339,7.09988,10.7813,7.25766,10.7813,7.25766,10.7288,7.36284,10.7288,7.36284,10.6762,7.41544,10.6762,7.41544,10.6236,7.46803,10.6236,7.46803,10.571,7.57321,10.571,7.57321,10.5184,7.67839,10.5184,7.67839,10.4658" stroke-width="0" fill="black"/>
      <polygon stroke="none" points="10.2028,3.41848,10.2028,4.62809,8.99319,4.62809,8.99319,4.99623,10.2028,4.99623,10.2028,6.20585,10.5183,6.20585,10.5183,4.99623,11.7805,4.99623,11.7805,4.62809,10.5183,4.62809,10.5183,3.41848" stroke-width="0" fill="black"/>
      <polygon stroke="none" points="1.31479,4.41772,1.31479,5.15401,3.78661,5.15401,3.78661,4.41772" stroke-width="0" fill="black"/>
     </g>
    </g>
   </g>
  </g>
  <g partID="854773430">
   <g transform="translate(59.8824,4.6888)">
    <g transform="matrix(-1, 0, 0, 1, 69.7758, 0)">
     <g id="silkscreen0" _flipped_="1">
      <text y="7.84977" id="label" xml:space="preserve" xmlns:xml="http://www.w3.org/XML/1998/namespace" x="34.8879" font-family="OCRA" font-size="8.72197" stroke-width="0" text-anchor="middle" fill="black">REEF LCD</text>
     </g>
    </g>
   </g>
  </g>
  <g partID="854364221">
   <g id="silkscreen0">
    <rect y="0.288" stroke="black" width="135.255" x="0.288" stroke-width="0.576" height="95.802" fill="none"/>
   </g>
  </g>
  <g partID="854694651">
   <g transform="translate(34.1384,84.9344)">
    <g transform="matrix(-1,0,0,-1,0,0)">
     <g id="silkscreen0" flipped="1">
      <g transform="matrix(-1, 0, 0, 1, 22.176, 0)">
       <g>
        <g>
         <g gorn="0.4">
          <circle id="circle20" stroke="black" cy="1.872" class="other" gorn="0.4.0" stroke-width="0.36" cx="20.016" r="0.419811" fill="none"/>
          <line y2="19.296" id="line22" stroke="black" class="other" gorn="0.4.1" stroke-width="0.576" stroke-linecap="round" x2="21.888" y1="19.296" x1="0.288"/>
          <line y2="0.288" id="line24" stroke="black" class="other" gorn="0.4.2" stroke-width="0.576" stroke-linecap="round" x2="21.888" y1="19.296" x1="21.888"/>
          <line y2="0.288" id="line26" stroke="black" class="other" gorn="0.4.3" stroke-width="0.576" stroke-linecap="round" x2="0.288" y1="0.288" x1="21.888"/>
          <line y2="19.296" id="line28" stroke="black" class="other" gorn="0.4.4" stroke-width="0.576" stroke-linecap="round" x2="0.288" y1="0.288" x1="0.288"/>
         </g>
        </g>
       </g>
      </g>
     </g>
    </g>
   </g>
  </g>
  <g id="partLabel" partID="854694650">
   <g transform="translate(38.4424,86.2304)">
    <g transform="matrix(0,1,-1,0,0,0)">
     <g font-style="normal" id="silkscreen0Label" stroke="none" fill-opacity="1" font-size="5" font-family="'OCRA'" font-weight="normal" fill="#000000">
      <text y="3.75" x="0">R3</text>
     </g>
    </g>
   </g>
  </g>
  <g partID="855060520">
   <g transform="translate(40.7624,27.3344)">
    <g id="copper0">
     <rect y="2.34" id="square" stroke="white" width="3.96" x="2.34" stroke-width="2.16" height="3.96" fill="white"/>
     <circle id="connector0pin" stroke="white" cy="4.32" cx="4.32" stroke-width="2.16" r="1.98" fill="white"/>
     <circle id="connector15pin" stroke="white" cy="4.32" cx="25.92" stroke-width="2.16" r="1.98" fill="white"/>
     <circle id="connector1pin" stroke="white" cy="11.52" cx="4.32" stroke-width="2.16" r="1.98" fill="white"/>
     <circle id="connector14pin" stroke="white" cy="11.52" cx="25.92" stroke-width="2.16" r="1.98" fill="white"/>
     <circle id="connector2pin" stroke="white" cy="18.72" cx="4.32" stroke-width="2.16" r="1.98" fill="white"/>
     <circle id="connector13pin" stroke="white" cy="18.72" cx="25.92" stroke-width="2.16" r="1.98" fill="white"/>
     <circle id="connector3pin" stroke="white" cy="25.92" cx="4.32" stroke-width="2.16" r="1.98" fill="white"/>
     <circle id="connector12pin" stroke="white" cy="25.92" cx="25.92" stroke-width="2.16" r="1.98" fill="white"/>
     <circle id="connector4pin" stroke="white" cy="33.12" cx="4.32" stroke-width="2.16" r="1.98" fill="white"/>
     <circle id="connector11pin" stroke="white" cy="33.12" cx="25.92" stroke-width="2.16" r="1.98" fill="white"/>
     <circle id="connector5pin" stroke="white" cy="40.32" cx="4.32" stroke-width="2.16" r="1.98" fill="white"/>
     <circle id="connector10pin" stroke="white" cy="40.32" cx="25.92" stroke-width="2.16" r="1.98" fill="white"/>
     <circle id="connector6pin" stroke="white" cy="47.52" cx="4.32" stroke-width="2.16" r="1.98" fill="white"/>
     <circle id="connector9pin" stroke="white" cy="47.52" cx="25.92" stroke-width="2.16" r="1.98" fill="white"/>
     <circle id="connector7pin" stroke="white" cy="54.72" cx="4.32" stroke-width="2.16" r="1.98" fill="white"/>
     <circle id="connector8pin" stroke="white" cy="54.72" cx="25.92" stroke-width="2.16" r="1.98" fill="white"/>
    </g>
   </g>
  </g>
  <g partID="855024720">
   <g transform="translate(4.3304,26.9024)">
    <g id="copper0">
     <circle stroke="white" id="connector0pad" cy="4.752" cx="4.752" stroke-width="2.16" r="1.98" fill="white"/>
     <circle stroke="white" id="connector1pad" cy="4.752" cx="33.552" stroke-width="2.16" r="1.98" fill="white"/>
    </g>
   </g>
  </g>
  <g partID="855034560">
   <g transform="translate(76.3304,19.7024)">
    <g id="copper0">
     <circle stroke="white" id="connector0pad" cy="4.752" cx="4.752" stroke-width="2.16" r="1.98" fill="white"/>
     <circle stroke="white" id="connector1pad" cy="62.352" cx="4.752" stroke-width="2.16" r="1.98" fill="white"/>
    </g>
   </g>
  </g>
  <g partID="855036360">
   <g transform="translate(83.5304,19.7024)">
    <g id="copper0">
     <circle stroke="white" id="connector0pad" cy="47.952" cx="4.752" stroke-width="2.16" r="1.98" fill="white"/>
     <circle stroke="white" id="connector1pad" cy="4.752" cx="4.752" stroke-width="2.16" r="1.98" fill="white"/>
    </g>
   </g>
  </g>
  <g partID="855036510">
   <g transform="translate(90.7304,19.7024)">
    <g id="copper0">
     <circle stroke="white" id="connector0pad" cy="40.752" cx="4.752" stroke-width="2.16" r="1.98" fill="white"/>
     <circle stroke="white" id="connector1pad" cy="4.752" cx="4.752" stroke-width="2.16" r="1.98" fill="white"/>
    </g>
   </g>
  </g>
  <g partID="855036660">
   <g transform="translate(97.9304,19.7024)">
    <g id="copper0">
     <circle stroke="white" id="connector0pad" cy="33.552" cx="4.752" stroke-width="2.16" r="1.98" fill="white"/>
     <circle stroke="white" id="connector1pad" cy="4.752" cx="4.752" stroke-width="2.16" r="1.98" fill="white"/>
    </g>
   </g>
  </g>
  <g partID="855040890">
   <g transform="translate(112.33,19.7024)">
    <g id="copper0">
     <circle stroke="white" id="connector0pad" cy="40.752" cx="4.752" stroke-width="2.16" r="1.98" fill="white"/>
     <circle stroke="white" id="connector1pad" cy="4.752" cx="4.752" stroke-width="2.16" r="1.98" fill="white"/>
    </g>
   </g>
  </g>
  <g partID="855041700">
   <g transform="translate(47.5304,84.5024)">
    <g id="copper0">
     <circle stroke="white" id="connector0pad" cy="4.752" cx="4.752" stroke-width="2.16" r="1.98" fill="white"/>
     <circle stroke="white" id="connector1pad" cy="4.752" cx="47.952" stroke-width="2.16" r="1.98" fill="white"/>
    </g>
   </g>
  </g>
  <g partID="855044720">
   <g transform="translate(105.13,19.7024)">
    <g id="copper0">
     <circle stroke="white" id="connector0pad" cy="4.752" cx="4.752" stroke-width="2.16" r="1.98" fill="white"/>
     <circle stroke="white" id="connector1pad" cy="47.952" cx="4.752" stroke-width="2.16" r="1.98" fill="white"/>
    </g>
   </g>
  </g>
  <g partID="855046620">
   <g transform="translate(119.564,84.536)">
    <g id="copper0">
     <circle stroke="white" id="nonconn0" cy="4.71811" cx="4.71811" stroke-width="0.72" r="3.11811" fill="white"/>
    </g>
   </g>
  </g>
  <g partID="855046650">
   <g transform="translate(119.564,1.6144)">
    <g id="copper0">
     <circle stroke="white" id="nonconn0" cy="4.71811" cx="4.71811" stroke-width="0.72" r="3.11811" fill="white"/>
    </g>
   </g>
  </g>
  <g partID="855046680">
   <g transform="translate(25.964,48.536)">
    <g id="copper0">
     <circle stroke="white" id="nonconn0" cy="4.71811" cx="4.71811" stroke-width="0.72" r="3.11811" fill="white"/>
    </g>
   </g>
  </g>
  <g partID="854994560">
   <g transform="translate(4.364,1.6144)">
    <g id="copper0">
     <circle stroke="white" id="nonconn0" cy="4.71811" cx="4.71811" stroke-width="0.72" r="3.11811" fill="white"/>
    </g>
   </g>
  </g>
  <g partID="854705550">
   <g transform="translate(94.4744,85.6544)">
    <g transform="matrix(0,-1,1,0,0,0)">
     <g id="copper0">
      <circle id="connector0pin" stroke="white" cy="8.208" cx="3.6" stroke-width="2.16" r="1.98" fill="white"/>
      <circle id="connector1pin" stroke="white" cy="8.208" cx="10.8" stroke-width="2.16" r="1.98" fill="white"/>
      <circle id="connector2pin" stroke="white" cy="8.208" cx="18" stroke-width="2.16" r="1.98" fill="white"/>
     </g>
    </g>
   </g>
  </g>
  <g partID="854688090">
   <g transform="translate(119.242,69.8144)">
    <g id="copper0">
     <circle id="connector0pin" stroke="white" cy="5.04" cx="5.04" stroke-width="2.16" r="2.088" fill="white"/>
     <circle id="connector1pin" stroke="white" cy="12.24" cx="5.04" stroke-width="2.16" r="2.088" fill="white"/>
    </g>
   </g>
  </g>
  <g partID="854688690">
   <g transform="translate(119.242,41.0144)">
    <g id="copper0">
     <circle id="connector0pin" stroke="white" cy="5.04" cx="5.04" stroke-width="2.16" r="2.088" fill="white"/>
     <circle id="connector1pin" stroke="white" cy="12.24" cx="5.04" stroke-width="2.16" r="2.088" fill="white"/>
    </g>
   </g>
  </g>
  <g partID="854690350">
   <g transform="translate(-13.5976,10.0544)">
    <g id="copper0">
     <rect y="5.184" stroke="white" width="3.96" x="20.664" stroke-width="2.16" height="3.96" fill="white"/>
     <circle id="connector0pin" stroke="white" cy="7.2" cx="22.68" stroke-width="2.16" r="1.98" fill="white"/>
     <circle id="connector1pin" stroke="white" cy="7.2" cx="29.88" stroke-width="2.16" r="1.98" fill="white"/>
     <circle id="connector2pin" stroke="white" cy="7.2" cx="37.08" stroke-width="2.16" r="1.98" fill="white"/>
     <circle id="connector3pin" stroke="white" cy="7.2" cx="44.28" stroke-width="2.16" r="1.98" fill="white"/>
     <circle id="connector4pin" stroke="white" cy="7.2" cx="51.48" stroke-width="2.16" r="1.98" fill="white"/>
     <circle id="connector5pin" stroke="white" cy="7.2" cx="58.68" stroke-width="2.16" r="1.98" fill="white"/>
     <circle id="connector6pin" stroke="white" cy="7.2" cx="65.88" stroke-width="2.16" r="1.98" fill="white"/>
     <circle id="connector7pin" stroke="white" cy="7.2" cx="73.08" stroke-width="2.16" r="1.98" fill="white"/>
     <circle id="connector8pin" stroke="white" cy="7.2" cx="80.28" stroke-width="2.16" r="1.98" fill="white"/>
     <circle id="connector9pin" stroke="white" cy="7.2" cx="87.48" stroke-width="2.16" r="1.98" fill="white"/>
     <circle id="connector10pin" stroke="white" cy="7.2" cx="94.68" stroke-width="2.16" r="1.98" fill="white"/>
     <circle id="connector11pin" stroke="white" cy="7.2" cx="101.88" stroke-width="2.16" r="1.98" fill="white"/>
     <circle id="connector12pin" stroke="white" cy="7.2" cx="109.08" stroke-width="2.16" r="1.98" fill="white"/>
     <circle id="connector13pin" stroke="white" cy="7.2" cx="116.28" stroke-width="2.16" r="1.98" fill="white"/>
     <circle id="connector14pin" stroke="white" cy="7.2" cx="123.48" stroke-width="2.16" r="1.98" fill="white"/>
     <circle id="connector15pin" stroke="white" cy="7.2" cx="130.68" stroke-width="2.16" r="1.98" fill="white"/>
    </g>
   </g>
  </g>
  <g partID="854694650">
   <g transform="translate(34.1384,84.9344)">
    <g transform="matrix(-1,0,0,-1,0,0)">
     <g id="copper0" flipped="1">
      <g transform="matrix(-1, 0, 0, 1, 22.176, 0)">
       <g>
        <g>
         <g gorn="0.3">
          <circle connectorname="1" id="connector0pad" stroke="white" cy="10.08" gorn="0.3.0" stroke-width="2.052" cx="3.456" r="1.71" fill="white"/>
          <path d="m1.08,7.704,4.752,0,0,4.752,-4.752,0,0,-4.752zM2.412,10.08a1.044,1.044,0,1,0,2.088,0,1.044,1.044,0,1,0,-2.088,0z" id="path6" stroke="white" gorn="0.3.1" stroke-width="0.72" fill="white"/>
          <circle connectorname="2" id="connector1pad" stroke="white" cy="2.87887" gorn="0.3.2" stroke-width="2.052" cx="11.088" r="1.71" fill="white"/>
          <circle connectorname="3" id="connector2pad" stroke="white" cy="10.08" gorn="0.3.3" stroke-width="2.052" cx="18.72" r="1.71" fill="white"/>
          <circle connectorname="1" id="circle11" stroke="white" cy="10.08" gorn="0.3.4" stroke-width="2.052" cx="3.456" r="1.71" fill="white"/>
          <path d="m1.08,7.704,4.752,0,0,4.752,-4.752,0,0,-4.752zM2.412,10.08a1.044,1.044,0,1,0,2.088,0,1.044,1.044,0,1,0,-2.088,0z" id="path13" stroke="white" gorn="0.3.5" stroke-width="0.72" fill="white"/>
          <circle connectorname="2" id="circle15" stroke="white" cy="2.87887" gorn="0.3.6" stroke-width="2.052" cx="11.088" r="1.71" fill="white"/>
          <circle connectorname="3" id="circle17" stroke="white" cy="10.08" gorn="0.3.7" stroke-width="2.052" cx="18.72" r="1.71" fill="white"/>
         </g>
        </g>
       </g>
      </g>
     </g>
    </g>
   </g>
  </g>
 </g>
</svg>
