G04 MADE WITH FRITZING*
G04 WWW.FRITZING.ORG*
G04 DOUBLE SIDED*
G04 HOLES PLATED*
G04 CONTOUR ON CENTER OF CONTOUR VECTOR*
%ASAXBY*%
%FSLAX23Y23*%
%MOIN*%
%OFA0B0*%
%SFA1.0B1.0*%
%ADD10C,0.078740*%
%ADD11C,0.094488*%
%ADD12C,0.075000*%
%ADD13C,0.066000*%
%ADD14C,0.078000*%
%ADD15R,0.075000X0.075000*%
%ADD16C,0.048000*%
%ADD17C,0.020000*%
%ADD18R,0.001000X0.001000*%
%LNCOPPER0*%
G90*
G70*
G54D10*
X1580Y395D03*
X1280Y595D03*
X1280Y995D03*
X1380Y995D03*
G54D11*
X1380Y695D03*
X1480Y795D03*
G54D10*
X1480Y995D03*
X480Y195D03*
X480Y595D03*
G54D11*
X1780Y395D03*
G54D12*
X1180Y295D03*
X880Y295D03*
X1180Y395D03*
X880Y395D03*
X1180Y495D03*
X880Y495D03*
X1180Y595D03*
X880Y595D03*
X1180Y695D03*
X880Y695D03*
X1180Y795D03*
X880Y795D03*
X1180Y895D03*
X880Y895D03*
X1180Y995D03*
X880Y995D03*
X1780Y595D03*
X1680Y595D03*
X1580Y595D03*
G54D13*
X380Y901D03*
X280Y795D03*
X380Y689D03*
X380Y901D03*
X280Y795D03*
X380Y689D03*
G54D12*
X280Y1095D03*
X380Y1095D03*
X480Y1095D03*
X580Y1095D03*
X680Y1095D03*
X780Y1095D03*
X880Y1095D03*
X980Y1095D03*
X1080Y1095D03*
X1180Y1095D03*
X1280Y1095D03*
X1380Y1095D03*
X1480Y1095D03*
X1580Y1095D03*
X1680Y1095D03*
X1780Y1095D03*
G54D14*
X180Y595D03*
X180Y495D03*
X180Y295D03*
X180Y395D03*
G54D15*
X279Y1096D03*
G54D16*
X1180Y395D02*
X1180Y455D01*
D02*
X1180Y355D02*
X1180Y395D01*
D02*
X580Y795D02*
X840Y795D01*
D02*
X580Y1055D02*
X580Y795D01*
D02*
X680Y895D02*
X840Y895D01*
D02*
X680Y1055D02*
X680Y895D01*
D02*
X780Y995D02*
X840Y995D01*
D02*
X780Y1055D02*
X780Y995D01*
D02*
X581Y496D02*
X221Y495D01*
D02*
X581Y694D02*
X581Y496D01*
D02*
X417Y690D02*
X581Y694D01*
D02*
X680Y395D02*
X221Y395D01*
D02*
X680Y495D02*
X680Y395D01*
D02*
X840Y495D02*
X680Y495D01*
D02*
X780Y295D02*
X221Y295D01*
D02*
X780Y395D02*
X780Y295D01*
D02*
X840Y395D02*
X780Y395D01*
D02*
X480Y795D02*
X317Y795D01*
D02*
X480Y1055D02*
X480Y795D01*
D02*
X380Y1195D02*
X380Y1135D01*
D02*
X1680Y1195D02*
X380Y1195D01*
D02*
X1680Y1135D02*
X1680Y1195D01*
D02*
X1580Y895D02*
X1220Y895D01*
D02*
X1580Y1055D02*
X1580Y895D01*
D02*
X1779Y797D02*
X1580Y797D01*
D02*
X1580Y797D02*
X1580Y635D01*
D02*
X1780Y1055D02*
X1779Y797D01*
D02*
X1080Y595D02*
X1140Y595D01*
D02*
X1080Y1095D02*
X1080Y595D01*
D02*
X1240Y1095D02*
X1080Y1095D01*
D02*
X980Y695D02*
X920Y695D01*
D02*
X1680Y195D02*
X980Y195D01*
D02*
X980Y195D02*
X980Y695D01*
D02*
X1680Y555D02*
X1680Y195D01*
D02*
X1480Y1055D02*
X1480Y1033D01*
D02*
X1220Y795D02*
X1442Y795D01*
D02*
X1342Y695D02*
X1220Y695D01*
D02*
X1380Y1055D02*
X1380Y1033D01*
D02*
X1279Y496D02*
X1280Y557D01*
D02*
X1220Y495D02*
X1279Y496D01*
D02*
X1220Y995D02*
X1242Y995D01*
D02*
X880Y195D02*
X880Y255D01*
D02*
X518Y195D02*
X880Y195D01*
D02*
X1780Y433D02*
X1780Y555D01*
D02*
X380Y1094D02*
X380Y938D01*
D02*
X374Y1056D02*
X380Y1094D01*
D02*
X1279Y496D02*
X1580Y496D01*
D02*
X1580Y496D02*
X1580Y433D01*
D02*
X1280Y557D02*
X1279Y496D01*
D02*
X221Y595D02*
X442Y595D01*
D02*
X180Y894D02*
X343Y900D01*
D02*
X180Y636D02*
X180Y894D01*
D02*
X79Y496D02*
X139Y495D01*
D02*
X79Y1094D02*
X79Y496D01*
D02*
X240Y1095D02*
X79Y1094D01*
D02*
X79Y96D02*
X1779Y96D01*
D02*
X1779Y96D02*
X1780Y357D01*
D02*
X79Y496D02*
X79Y96D01*
G54D17*
X1152Y268D02*
X1152Y323D01*
X1207Y323D01*
X1207Y268D01*
X1152Y268D01*
D02*
G54D18*
X347Y934D02*
X412Y934D01*
X347Y933D02*
X412Y933D01*
X347Y932D02*
X412Y932D01*
X347Y931D02*
X412Y931D01*
X347Y930D02*
X412Y930D01*
X347Y929D02*
X412Y929D01*
X347Y928D02*
X412Y928D01*
X347Y927D02*
X412Y927D01*
X347Y926D02*
X412Y926D01*
X347Y925D02*
X412Y925D01*
X347Y924D02*
X412Y924D01*
X347Y923D02*
X412Y923D01*
X347Y922D02*
X412Y922D01*
X347Y921D02*
X412Y921D01*
X347Y920D02*
X412Y920D01*
X347Y919D02*
X412Y919D01*
X347Y918D02*
X412Y918D01*
X347Y917D02*
X412Y917D01*
X347Y916D02*
X412Y916D01*
X347Y915D02*
X374Y915D01*
X384Y915D02*
X412Y915D01*
X347Y914D02*
X372Y914D01*
X387Y914D02*
X412Y914D01*
X347Y913D02*
X370Y913D01*
X388Y913D02*
X412Y913D01*
X347Y912D02*
X369Y912D01*
X390Y912D02*
X412Y912D01*
X347Y911D02*
X368Y911D01*
X391Y911D02*
X412Y911D01*
X347Y910D02*
X367Y910D01*
X391Y910D02*
X412Y910D01*
X347Y909D02*
X367Y909D01*
X392Y909D02*
X412Y909D01*
X347Y908D02*
X366Y908D01*
X393Y908D02*
X412Y908D01*
X347Y907D02*
X366Y907D01*
X393Y907D02*
X412Y907D01*
X347Y906D02*
X365Y906D01*
X393Y906D02*
X412Y906D01*
X347Y905D02*
X365Y905D01*
X394Y905D02*
X412Y905D01*
X347Y904D02*
X365Y904D01*
X394Y904D02*
X412Y904D01*
X347Y903D02*
X365Y903D01*
X394Y903D02*
X412Y903D01*
X347Y902D02*
X364Y902D01*
X394Y902D02*
X412Y902D01*
X347Y901D02*
X364Y901D01*
X394Y901D02*
X412Y901D01*
X347Y900D02*
X364Y900D01*
X394Y900D02*
X412Y900D01*
X347Y899D02*
X365Y899D01*
X394Y899D02*
X412Y899D01*
X347Y898D02*
X365Y898D01*
X394Y898D02*
X412Y898D01*
X347Y897D02*
X365Y897D01*
X394Y897D02*
X412Y897D01*
X347Y896D02*
X365Y896D01*
X393Y896D02*
X412Y896D01*
X347Y895D02*
X366Y895D01*
X393Y895D02*
X412Y895D01*
X347Y894D02*
X366Y894D01*
X392Y894D02*
X412Y894D01*
X347Y893D02*
X367Y893D01*
X392Y893D02*
X412Y893D01*
X347Y892D02*
X368Y892D01*
X391Y892D02*
X412Y892D01*
X347Y891D02*
X369Y891D01*
X390Y891D02*
X412Y891D01*
X347Y890D02*
X370Y890D01*
X389Y890D02*
X412Y890D01*
X347Y889D02*
X371Y889D01*
X387Y889D02*
X412Y889D01*
X347Y888D02*
X373Y888D01*
X385Y888D02*
X412Y888D01*
X347Y887D02*
X377Y887D01*
X381Y887D02*
X412Y887D01*
X347Y886D02*
X412Y886D01*
X347Y885D02*
X412Y885D01*
X347Y884D02*
X412Y884D01*
X347Y883D02*
X412Y883D01*
X347Y882D02*
X412Y882D01*
X347Y881D02*
X412Y881D01*
X347Y880D02*
X412Y880D01*
X347Y879D02*
X412Y879D01*
X347Y878D02*
X412Y878D01*
X347Y877D02*
X412Y877D01*
X347Y876D02*
X412Y876D01*
X347Y875D02*
X412Y875D01*
X347Y874D02*
X412Y874D01*
X347Y873D02*
X412Y873D01*
X347Y872D02*
X412Y872D01*
X347Y871D02*
X412Y871D01*
X347Y870D02*
X412Y870D01*
X347Y869D02*
X412Y869D01*
D02*
G04 End of Copper0*
M02*