; NON-PLATED HOLES START AT T1
; THROUGH (PLATED) HOLES START AT T100
M48
INCH
T100C0.031496
T101C0.038000
T102C0.029000
T103C0.035000
%
T100
X004799Y001950
X013799Y009950
X014799Y009950
X004799Y005950
X012799Y005950
X017799Y003950
X012799Y009950
X013799Y006950
X015799Y003950
X014799Y007950
T101
X001799Y004950
X001799Y002950
X001799Y005950
X001799Y003950
T102
X003799Y006890
X002799Y007950
X003799Y009010
T103
X008799Y004950
X012799Y010950
X008799Y002950
X009799Y010950
X008799Y003950
X007799Y010950
X017799Y010950
X016799Y010950
X011799Y005950
X008799Y009950
X016799Y005950
X008799Y010950
X011799Y003950
X005799Y010950
X002799Y010950
X003799Y010950
X017799Y005950
X013799Y010950
X010799Y010950
X011799Y004950
X011799Y008950
X011799Y009950
X011799Y007950
X004799Y010950
X008799Y006950
X008799Y007950
X015799Y010950
X008799Y005950
X015799Y005950
X011799Y010950
X006799Y010950
X011799Y006950
X011799Y002950
X014799Y010950
X008799Y008950
T00
M30
