G04 MADE WITH FRITZING*
G04 WWW.FRITZING.ORG*
G04 DOUBLE SIDED*
G04 HOLES PLATED*
G04 CONTOUR ON CENTER OF CONTOUR VECTOR*
%ASAXBY*%
%FSLAX23Y23*%
%MOIN*%
%OFA0B0*%
%SFA1.0B1.0*%
%ADD10C,0.016661X0.00666142*%
%ADD11C,0.008000*%
%ADD12R,0.001000X0.001000*%
%LNSILK0*%
G90*
G70*
G54D10*
X444Y185D03*
G54D11*
X170Y427D02*
X470Y427D01*
D02*
X470Y427D02*
X470Y163D01*
D02*
X170Y163D02*
X170Y427D01*
G54D12*
X0Y1339D02*
X1885Y1339D01*
X0Y1338D02*
X1885Y1338D01*
X0Y1337D02*
X1885Y1337D01*
X0Y1336D02*
X1885Y1336D01*
X0Y1335D02*
X1885Y1335D01*
X0Y1334D02*
X1885Y1334D01*
X0Y1333D02*
X1885Y1333D01*
X0Y1332D02*
X1885Y1332D01*
X0Y1331D02*
X7Y1331D01*
X1878Y1331D02*
X1885Y1331D01*
X0Y1330D02*
X7Y1330D01*
X1878Y1330D02*
X1885Y1330D01*
X0Y1329D02*
X7Y1329D01*
X1878Y1329D02*
X1885Y1329D01*
X0Y1328D02*
X7Y1328D01*
X1878Y1328D02*
X1885Y1328D01*
X0Y1327D02*
X7Y1327D01*
X1878Y1327D02*
X1885Y1327D01*
X0Y1326D02*
X7Y1326D01*
X1878Y1326D02*
X1885Y1326D01*
X0Y1325D02*
X7Y1325D01*
X1878Y1325D02*
X1885Y1325D01*
X0Y1324D02*
X7Y1324D01*
X1878Y1324D02*
X1885Y1324D01*
X0Y1323D02*
X7Y1323D01*
X1878Y1323D02*
X1885Y1323D01*
X0Y1322D02*
X7Y1322D01*
X1878Y1322D02*
X1885Y1322D01*
X0Y1321D02*
X7Y1321D01*
X1878Y1321D02*
X1885Y1321D01*
X0Y1320D02*
X7Y1320D01*
X1878Y1320D02*
X1885Y1320D01*
X0Y1319D02*
X7Y1319D01*
X1878Y1319D02*
X1885Y1319D01*
X0Y1318D02*
X7Y1318D01*
X1878Y1318D02*
X1885Y1318D01*
X0Y1317D02*
X7Y1317D01*
X1878Y1317D02*
X1885Y1317D01*
X0Y1316D02*
X7Y1316D01*
X1878Y1316D02*
X1885Y1316D01*
X0Y1315D02*
X7Y1315D01*
X1878Y1315D02*
X1885Y1315D01*
X0Y1314D02*
X7Y1314D01*
X1878Y1314D02*
X1885Y1314D01*
X0Y1313D02*
X7Y1313D01*
X1878Y1313D02*
X1885Y1313D01*
X0Y1312D02*
X7Y1312D01*
X1878Y1312D02*
X1885Y1312D01*
X0Y1311D02*
X7Y1311D01*
X1878Y1311D02*
X1885Y1311D01*
X0Y1310D02*
X7Y1310D01*
X1878Y1310D02*
X1885Y1310D01*
X0Y1309D02*
X7Y1309D01*
X1878Y1309D02*
X1885Y1309D01*
X0Y1308D02*
X7Y1308D01*
X1878Y1308D02*
X1885Y1308D01*
X0Y1307D02*
X7Y1307D01*
X1878Y1307D02*
X1885Y1307D01*
X0Y1306D02*
X7Y1306D01*
X1878Y1306D02*
X1885Y1306D01*
X0Y1305D02*
X7Y1305D01*
X1878Y1305D02*
X1885Y1305D01*
X0Y1304D02*
X7Y1304D01*
X1878Y1304D02*
X1885Y1304D01*
X0Y1303D02*
X7Y1303D01*
X1878Y1303D02*
X1885Y1303D01*
X0Y1302D02*
X7Y1302D01*
X1878Y1302D02*
X1885Y1302D01*
X0Y1301D02*
X7Y1301D01*
X1878Y1301D02*
X1885Y1301D01*
X0Y1300D02*
X7Y1300D01*
X1878Y1300D02*
X1885Y1300D01*
X0Y1299D02*
X7Y1299D01*
X1878Y1299D02*
X1885Y1299D01*
X0Y1298D02*
X7Y1298D01*
X1878Y1298D02*
X1885Y1298D01*
X0Y1297D02*
X7Y1297D01*
X1878Y1297D02*
X1885Y1297D01*
X0Y1296D02*
X7Y1296D01*
X1878Y1296D02*
X1885Y1296D01*
X0Y1295D02*
X7Y1295D01*
X1878Y1295D02*
X1885Y1295D01*
X0Y1294D02*
X7Y1294D01*
X1878Y1294D02*
X1885Y1294D01*
X0Y1293D02*
X7Y1293D01*
X1878Y1293D02*
X1885Y1293D01*
X0Y1292D02*
X7Y1292D01*
X1878Y1292D02*
X1885Y1292D01*
X0Y1291D02*
X7Y1291D01*
X1878Y1291D02*
X1885Y1291D01*
X0Y1290D02*
X7Y1290D01*
X1878Y1290D02*
X1885Y1290D01*
X0Y1289D02*
X7Y1289D01*
X1878Y1289D02*
X1885Y1289D01*
X0Y1288D02*
X7Y1288D01*
X1878Y1288D02*
X1885Y1288D01*
X0Y1287D02*
X7Y1287D01*
X1878Y1287D02*
X1885Y1287D01*
X0Y1286D02*
X7Y1286D01*
X1878Y1286D02*
X1885Y1286D01*
X0Y1285D02*
X7Y1285D01*
X1878Y1285D02*
X1885Y1285D01*
X0Y1284D02*
X7Y1284D01*
X1878Y1284D02*
X1885Y1284D01*
X0Y1283D02*
X7Y1283D01*
X1878Y1283D02*
X1885Y1283D01*
X0Y1282D02*
X7Y1282D01*
X1878Y1282D02*
X1885Y1282D01*
X0Y1281D02*
X7Y1281D01*
X1878Y1281D02*
X1885Y1281D01*
X0Y1280D02*
X7Y1280D01*
X1878Y1280D02*
X1885Y1280D01*
X0Y1279D02*
X7Y1279D01*
X1878Y1279D02*
X1885Y1279D01*
X0Y1278D02*
X7Y1278D01*
X1878Y1278D02*
X1885Y1278D01*
X0Y1277D02*
X7Y1277D01*
X1878Y1277D02*
X1885Y1277D01*
X0Y1276D02*
X7Y1276D01*
X1878Y1276D02*
X1885Y1276D01*
X0Y1275D02*
X7Y1275D01*
X1878Y1275D02*
X1885Y1275D01*
X0Y1274D02*
X7Y1274D01*
X1878Y1274D02*
X1885Y1274D01*
X0Y1273D02*
X7Y1273D01*
X1878Y1273D02*
X1885Y1273D01*
X0Y1272D02*
X7Y1272D01*
X1878Y1272D02*
X1885Y1272D01*
X0Y1271D02*
X7Y1271D01*
X1878Y1271D02*
X1885Y1271D01*
X0Y1270D02*
X7Y1270D01*
X1878Y1270D02*
X1885Y1270D01*
X0Y1269D02*
X7Y1269D01*
X1878Y1269D02*
X1885Y1269D01*
X0Y1268D02*
X7Y1268D01*
X1878Y1268D02*
X1885Y1268D01*
X0Y1267D02*
X7Y1267D01*
X1878Y1267D02*
X1885Y1267D01*
X0Y1266D02*
X7Y1266D01*
X1878Y1266D02*
X1885Y1266D01*
X0Y1265D02*
X7Y1265D01*
X1878Y1265D02*
X1885Y1265D01*
X0Y1264D02*
X7Y1264D01*
X1878Y1264D02*
X1885Y1264D01*
X0Y1263D02*
X7Y1263D01*
X1878Y1263D02*
X1885Y1263D01*
X0Y1262D02*
X7Y1262D01*
X1878Y1262D02*
X1885Y1262D01*
X0Y1261D02*
X7Y1261D01*
X1878Y1261D02*
X1885Y1261D01*
X0Y1260D02*
X7Y1260D01*
X1878Y1260D02*
X1885Y1260D01*
X0Y1259D02*
X7Y1259D01*
X1007Y1259D02*
X1037Y1259D01*
X1071Y1259D02*
X1101Y1259D01*
X1206Y1259D02*
X1211Y1259D01*
X1332Y1259D02*
X1388Y1259D01*
X1419Y1259D02*
X1476Y1259D01*
X1507Y1259D02*
X1563Y1259D01*
X1604Y1259D02*
X1650Y1259D01*
X1878Y1259D02*
X1885Y1259D01*
X0Y1258D02*
X7Y1258D01*
X1004Y1258D02*
X1038Y1258D01*
X1069Y1258D02*
X1103Y1258D01*
X1205Y1258D02*
X1212Y1258D01*
X1331Y1258D02*
X1388Y1258D01*
X1418Y1258D02*
X1476Y1258D01*
X1505Y1258D02*
X1563Y1258D01*
X1601Y1258D02*
X1650Y1258D01*
X1878Y1258D02*
X1885Y1258D01*
X0Y1257D02*
X7Y1257D01*
X1002Y1257D02*
X1039Y1257D01*
X1069Y1257D02*
X1105Y1257D01*
X1204Y1257D02*
X1213Y1257D01*
X1330Y1257D02*
X1388Y1257D01*
X1417Y1257D02*
X1476Y1257D01*
X1505Y1257D02*
X1563Y1257D01*
X1599Y1257D02*
X1650Y1257D01*
X1878Y1257D02*
X1885Y1257D01*
X0Y1256D02*
X7Y1256D01*
X1001Y1256D02*
X1039Y1256D01*
X1068Y1256D02*
X1107Y1256D01*
X1203Y1256D02*
X1214Y1256D01*
X1330Y1256D02*
X1388Y1256D01*
X1417Y1256D02*
X1476Y1256D01*
X1504Y1256D02*
X1563Y1256D01*
X1598Y1256D02*
X1650Y1256D01*
X1878Y1256D02*
X1885Y1256D01*
X0Y1255D02*
X7Y1255D01*
X1000Y1255D02*
X1039Y1255D01*
X1068Y1255D02*
X1108Y1255D01*
X1203Y1255D02*
X1214Y1255D01*
X1329Y1255D02*
X1388Y1255D01*
X1416Y1255D02*
X1476Y1255D01*
X1504Y1255D02*
X1563Y1255D01*
X1597Y1255D02*
X1650Y1255D01*
X1878Y1255D02*
X1885Y1255D01*
X0Y1254D02*
X7Y1254D01*
X999Y1254D02*
X1040Y1254D01*
X1068Y1254D02*
X1109Y1254D01*
X1203Y1254D02*
X1214Y1254D01*
X1329Y1254D02*
X1388Y1254D01*
X1416Y1254D02*
X1476Y1254D01*
X1503Y1254D02*
X1563Y1254D01*
X1596Y1254D02*
X1650Y1254D01*
X1878Y1254D02*
X1885Y1254D01*
X0Y1253D02*
X7Y1253D01*
X998Y1253D02*
X1040Y1253D01*
X1068Y1253D02*
X1110Y1253D01*
X1203Y1253D02*
X1214Y1253D01*
X1329Y1253D02*
X1388Y1253D01*
X1416Y1253D02*
X1476Y1253D01*
X1504Y1253D02*
X1563Y1253D01*
X1595Y1253D02*
X1650Y1253D01*
X1878Y1253D02*
X1885Y1253D01*
X0Y1252D02*
X7Y1252D01*
X997Y1252D02*
X1039Y1252D01*
X1068Y1252D02*
X1110Y1252D01*
X1203Y1252D02*
X1214Y1252D01*
X1329Y1252D02*
X1388Y1252D01*
X1417Y1252D02*
X1476Y1252D01*
X1504Y1252D02*
X1563Y1252D01*
X1594Y1252D02*
X1650Y1252D01*
X1878Y1252D02*
X1885Y1252D01*
X0Y1251D02*
X7Y1251D01*
X996Y1251D02*
X1039Y1251D01*
X1068Y1251D02*
X1111Y1251D01*
X1203Y1251D02*
X1214Y1251D01*
X1330Y1251D02*
X1388Y1251D01*
X1417Y1251D02*
X1476Y1251D01*
X1504Y1251D02*
X1563Y1251D01*
X1593Y1251D02*
X1650Y1251D01*
X1878Y1251D02*
X1885Y1251D01*
X0Y1250D02*
X7Y1250D01*
X996Y1250D02*
X1038Y1250D01*
X1069Y1250D02*
X1112Y1250D01*
X1203Y1250D02*
X1214Y1250D01*
X1331Y1250D02*
X1388Y1250D01*
X1418Y1250D02*
X1476Y1250D01*
X1505Y1250D02*
X1563Y1250D01*
X1593Y1250D02*
X1650Y1250D01*
X1878Y1250D02*
X1885Y1250D01*
X0Y1249D02*
X7Y1249D01*
X995Y1249D02*
X1037Y1249D01*
X1070Y1249D02*
X1112Y1249D01*
X1203Y1249D02*
X1214Y1249D01*
X1332Y1249D02*
X1388Y1249D01*
X1419Y1249D02*
X1476Y1249D01*
X1506Y1249D02*
X1563Y1249D01*
X1592Y1249D02*
X1650Y1249D01*
X1878Y1249D02*
X1885Y1249D01*
X0Y1248D02*
X7Y1248D01*
X995Y1248D02*
X1036Y1248D01*
X1072Y1248D02*
X1113Y1248D01*
X1203Y1248D02*
X1214Y1248D01*
X1333Y1248D02*
X1388Y1248D01*
X1420Y1248D02*
X1476Y1248D01*
X1508Y1248D02*
X1563Y1248D01*
X1592Y1248D02*
X1650Y1248D01*
X1878Y1248D02*
X1885Y1248D01*
X0Y1247D02*
X7Y1247D01*
X994Y1247D02*
X1008Y1247D01*
X1016Y1247D02*
X1028Y1247D01*
X1099Y1247D02*
X1113Y1247D01*
X1203Y1247D02*
X1214Y1247D01*
X1377Y1247D02*
X1388Y1247D01*
X1464Y1247D02*
X1476Y1247D01*
X1552Y1247D02*
X1563Y1247D01*
X1592Y1247D02*
X1606Y1247D01*
X1639Y1247D02*
X1650Y1247D01*
X1878Y1247D02*
X1885Y1247D01*
X0Y1246D02*
X7Y1246D01*
X994Y1246D02*
X1007Y1246D01*
X1016Y1246D02*
X1028Y1246D01*
X1100Y1246D02*
X1114Y1246D01*
X1203Y1246D02*
X1214Y1246D01*
X1377Y1246D02*
X1388Y1246D01*
X1464Y1246D02*
X1476Y1246D01*
X1552Y1246D02*
X1563Y1246D01*
X1591Y1246D02*
X1604Y1246D01*
X1639Y1246D02*
X1650Y1246D01*
X1878Y1246D02*
X1885Y1246D01*
X0Y1245D02*
X7Y1245D01*
X993Y1245D02*
X1006Y1245D01*
X1016Y1245D02*
X1028Y1245D01*
X1101Y1245D02*
X1114Y1245D01*
X1203Y1245D02*
X1214Y1245D01*
X1377Y1245D02*
X1388Y1245D01*
X1464Y1245D02*
X1476Y1245D01*
X1552Y1245D02*
X1563Y1245D01*
X1591Y1245D02*
X1603Y1245D01*
X1639Y1245D02*
X1650Y1245D01*
X1878Y1245D02*
X1885Y1245D01*
X0Y1244D02*
X7Y1244D01*
X993Y1244D02*
X1006Y1244D01*
X1016Y1244D02*
X1028Y1244D01*
X1102Y1244D02*
X1115Y1244D01*
X1203Y1244D02*
X1214Y1244D01*
X1377Y1244D02*
X1388Y1244D01*
X1464Y1244D02*
X1476Y1244D01*
X1552Y1244D02*
X1563Y1244D01*
X1591Y1244D02*
X1603Y1244D01*
X1639Y1244D02*
X1650Y1244D01*
X1878Y1244D02*
X1885Y1244D01*
X0Y1243D02*
X7Y1243D01*
X992Y1243D02*
X1005Y1243D01*
X1016Y1243D02*
X1028Y1243D01*
X1102Y1243D02*
X1115Y1243D01*
X1203Y1243D02*
X1214Y1243D01*
X1377Y1243D02*
X1388Y1243D01*
X1464Y1243D02*
X1476Y1243D01*
X1552Y1243D02*
X1563Y1243D01*
X1591Y1243D02*
X1602Y1243D01*
X1639Y1243D02*
X1650Y1243D01*
X1878Y1243D02*
X1885Y1243D01*
X0Y1242D02*
X7Y1242D01*
X992Y1242D02*
X1005Y1242D01*
X1016Y1242D02*
X1028Y1242D01*
X1103Y1242D02*
X1116Y1242D01*
X1203Y1242D02*
X1214Y1242D01*
X1377Y1242D02*
X1388Y1242D01*
X1464Y1242D02*
X1476Y1242D01*
X1552Y1242D02*
X1563Y1242D01*
X1591Y1242D02*
X1602Y1242D01*
X1639Y1242D02*
X1650Y1242D01*
X1878Y1242D02*
X1885Y1242D01*
X0Y1241D02*
X7Y1241D01*
X991Y1241D02*
X1004Y1241D01*
X1016Y1241D02*
X1028Y1241D01*
X1103Y1241D02*
X1116Y1241D01*
X1203Y1241D02*
X1214Y1241D01*
X1377Y1241D02*
X1388Y1241D01*
X1464Y1241D02*
X1476Y1241D01*
X1552Y1241D02*
X1563Y1241D01*
X1591Y1241D02*
X1602Y1241D01*
X1639Y1241D02*
X1650Y1241D01*
X1878Y1241D02*
X1885Y1241D01*
X0Y1240D02*
X7Y1240D01*
X991Y1240D02*
X1004Y1240D01*
X1016Y1240D02*
X1028Y1240D01*
X1104Y1240D02*
X1117Y1240D01*
X1203Y1240D02*
X1214Y1240D01*
X1377Y1240D02*
X1388Y1240D01*
X1464Y1240D02*
X1476Y1240D01*
X1552Y1240D02*
X1563Y1240D01*
X1591Y1240D02*
X1602Y1240D01*
X1639Y1240D02*
X1650Y1240D01*
X1878Y1240D02*
X1885Y1240D01*
X0Y1239D02*
X7Y1239D01*
X990Y1239D02*
X1003Y1239D01*
X1016Y1239D02*
X1028Y1239D01*
X1104Y1239D02*
X1117Y1239D01*
X1203Y1239D02*
X1214Y1239D01*
X1377Y1239D02*
X1388Y1239D01*
X1464Y1239D02*
X1476Y1239D01*
X1552Y1239D02*
X1563Y1239D01*
X1591Y1239D02*
X1602Y1239D01*
X1639Y1239D02*
X1650Y1239D01*
X1878Y1239D02*
X1885Y1239D01*
X0Y1238D02*
X7Y1238D01*
X990Y1238D02*
X1003Y1238D01*
X1016Y1238D02*
X1028Y1238D01*
X1105Y1238D02*
X1118Y1238D01*
X1203Y1238D02*
X1214Y1238D01*
X1377Y1238D02*
X1388Y1238D01*
X1464Y1238D02*
X1476Y1238D01*
X1552Y1238D02*
X1563Y1238D01*
X1591Y1238D02*
X1602Y1238D01*
X1639Y1238D02*
X1650Y1238D01*
X1878Y1238D02*
X1885Y1238D01*
X0Y1237D02*
X7Y1237D01*
X989Y1237D02*
X1002Y1237D01*
X1016Y1237D02*
X1028Y1237D01*
X1105Y1237D02*
X1118Y1237D01*
X1203Y1237D02*
X1214Y1237D01*
X1377Y1237D02*
X1388Y1237D01*
X1464Y1237D02*
X1476Y1237D01*
X1552Y1237D02*
X1563Y1237D01*
X1591Y1237D02*
X1602Y1237D01*
X1639Y1237D02*
X1650Y1237D01*
X1878Y1237D02*
X1885Y1237D01*
X0Y1236D02*
X7Y1236D01*
X989Y1236D02*
X1002Y1236D01*
X1016Y1236D02*
X1028Y1236D01*
X1106Y1236D02*
X1119Y1236D01*
X1203Y1236D02*
X1214Y1236D01*
X1377Y1236D02*
X1388Y1236D01*
X1464Y1236D02*
X1476Y1236D01*
X1552Y1236D02*
X1563Y1236D01*
X1591Y1236D02*
X1602Y1236D01*
X1639Y1236D02*
X1650Y1236D01*
X1878Y1236D02*
X1885Y1236D01*
X0Y1235D02*
X7Y1235D01*
X988Y1235D02*
X1001Y1235D01*
X1016Y1235D02*
X1028Y1235D01*
X1106Y1235D02*
X1119Y1235D01*
X1203Y1235D02*
X1214Y1235D01*
X1377Y1235D02*
X1388Y1235D01*
X1464Y1235D02*
X1476Y1235D01*
X1552Y1235D02*
X1563Y1235D01*
X1591Y1235D02*
X1602Y1235D01*
X1639Y1235D02*
X1650Y1235D01*
X1878Y1235D02*
X1885Y1235D01*
X0Y1234D02*
X7Y1234D01*
X988Y1234D02*
X1001Y1234D01*
X1016Y1234D02*
X1028Y1234D01*
X1107Y1234D02*
X1120Y1234D01*
X1203Y1234D02*
X1214Y1234D01*
X1377Y1234D02*
X1388Y1234D01*
X1464Y1234D02*
X1476Y1234D01*
X1552Y1234D02*
X1563Y1234D01*
X1591Y1234D02*
X1602Y1234D01*
X1639Y1234D02*
X1650Y1234D01*
X1878Y1234D02*
X1885Y1234D01*
X0Y1233D02*
X7Y1233D01*
X987Y1233D02*
X1000Y1233D01*
X1016Y1233D02*
X1028Y1233D01*
X1107Y1233D02*
X1120Y1233D01*
X1203Y1233D02*
X1214Y1233D01*
X1377Y1233D02*
X1388Y1233D01*
X1464Y1233D02*
X1476Y1233D01*
X1552Y1233D02*
X1563Y1233D01*
X1591Y1233D02*
X1602Y1233D01*
X1639Y1233D02*
X1650Y1233D01*
X1878Y1233D02*
X1885Y1233D01*
X0Y1232D02*
X7Y1232D01*
X987Y1232D02*
X999Y1232D01*
X1016Y1232D02*
X1028Y1232D01*
X1108Y1232D02*
X1120Y1232D01*
X1203Y1232D02*
X1214Y1232D01*
X1377Y1232D02*
X1388Y1232D01*
X1464Y1232D02*
X1476Y1232D01*
X1552Y1232D02*
X1563Y1232D01*
X1591Y1232D02*
X1603Y1232D01*
X1639Y1232D02*
X1650Y1232D01*
X1878Y1232D02*
X1885Y1232D01*
X0Y1231D02*
X7Y1231D01*
X986Y1231D02*
X999Y1231D01*
X1016Y1231D02*
X1028Y1231D01*
X1108Y1231D02*
X1121Y1231D01*
X1203Y1231D02*
X1214Y1231D01*
X1377Y1231D02*
X1388Y1231D01*
X1464Y1231D02*
X1476Y1231D01*
X1552Y1231D02*
X1563Y1231D01*
X1591Y1231D02*
X1604Y1231D01*
X1639Y1231D02*
X1650Y1231D01*
X1878Y1231D02*
X1885Y1231D01*
X0Y1230D02*
X7Y1230D01*
X986Y1230D02*
X998Y1230D01*
X1016Y1230D02*
X1028Y1230D01*
X1109Y1230D02*
X1121Y1230D01*
X1203Y1230D02*
X1214Y1230D01*
X1377Y1230D02*
X1388Y1230D01*
X1464Y1230D02*
X1476Y1230D01*
X1552Y1230D02*
X1563Y1230D01*
X1591Y1230D02*
X1605Y1230D01*
X1639Y1230D02*
X1650Y1230D01*
X1878Y1230D02*
X1885Y1230D01*
X0Y1229D02*
X7Y1229D01*
X985Y1229D02*
X998Y1229D01*
X1016Y1229D02*
X1028Y1229D01*
X1109Y1229D02*
X1122Y1229D01*
X1203Y1229D02*
X1214Y1229D01*
X1348Y1229D02*
X1388Y1229D01*
X1464Y1229D02*
X1476Y1229D01*
X1552Y1229D02*
X1563Y1229D01*
X1592Y1229D02*
X1650Y1229D01*
X1878Y1229D02*
X1885Y1229D01*
X0Y1228D02*
X7Y1228D01*
X985Y1228D02*
X997Y1228D01*
X1016Y1228D02*
X1028Y1228D01*
X1110Y1228D02*
X1122Y1228D01*
X1203Y1228D02*
X1214Y1228D01*
X1344Y1228D02*
X1388Y1228D01*
X1464Y1228D02*
X1476Y1228D01*
X1552Y1228D02*
X1563Y1228D01*
X1592Y1228D02*
X1650Y1228D01*
X1878Y1228D02*
X1885Y1228D01*
X0Y1227D02*
X7Y1227D01*
X984Y1227D02*
X997Y1227D01*
X1016Y1227D02*
X1028Y1227D01*
X1110Y1227D02*
X1123Y1227D01*
X1203Y1227D02*
X1214Y1227D01*
X1343Y1227D02*
X1388Y1227D01*
X1464Y1227D02*
X1476Y1227D01*
X1552Y1227D02*
X1563Y1227D01*
X1593Y1227D02*
X1650Y1227D01*
X1878Y1227D02*
X1885Y1227D01*
X0Y1226D02*
X7Y1226D01*
X984Y1226D02*
X996Y1226D01*
X1016Y1226D02*
X1028Y1226D01*
X1111Y1226D02*
X1123Y1226D01*
X1203Y1226D02*
X1214Y1226D01*
X1342Y1226D02*
X1388Y1226D01*
X1464Y1226D02*
X1476Y1226D01*
X1552Y1226D02*
X1563Y1226D01*
X1593Y1226D02*
X1650Y1226D01*
X1878Y1226D02*
X1885Y1226D01*
X0Y1225D02*
X7Y1225D01*
X983Y1225D02*
X996Y1225D01*
X1016Y1225D02*
X1028Y1225D01*
X1111Y1225D02*
X1124Y1225D01*
X1203Y1225D02*
X1214Y1225D01*
X1342Y1225D02*
X1388Y1225D01*
X1464Y1225D02*
X1476Y1225D01*
X1552Y1225D02*
X1563Y1225D01*
X1594Y1225D02*
X1650Y1225D01*
X1878Y1225D02*
X1885Y1225D01*
X0Y1224D02*
X7Y1224D01*
X983Y1224D02*
X995Y1224D01*
X1016Y1224D02*
X1028Y1224D01*
X1112Y1224D02*
X1124Y1224D01*
X1203Y1224D02*
X1214Y1224D01*
X1341Y1224D02*
X1388Y1224D01*
X1464Y1224D02*
X1476Y1224D01*
X1552Y1224D02*
X1563Y1224D01*
X1595Y1224D02*
X1650Y1224D01*
X1878Y1224D02*
X1885Y1224D01*
X0Y1223D02*
X7Y1223D01*
X982Y1223D02*
X995Y1223D01*
X1016Y1223D02*
X1028Y1223D01*
X1112Y1223D02*
X1125Y1223D01*
X1203Y1223D02*
X1214Y1223D01*
X1341Y1223D02*
X1388Y1223D01*
X1464Y1223D02*
X1476Y1223D01*
X1552Y1223D02*
X1563Y1223D01*
X1596Y1223D02*
X1650Y1223D01*
X1878Y1223D02*
X1885Y1223D01*
X0Y1222D02*
X7Y1222D01*
X982Y1222D02*
X994Y1222D01*
X1016Y1222D02*
X1028Y1222D01*
X1113Y1222D02*
X1125Y1222D01*
X1203Y1222D02*
X1214Y1222D01*
X1341Y1222D02*
X1388Y1222D01*
X1464Y1222D02*
X1476Y1222D01*
X1552Y1222D02*
X1563Y1222D01*
X1596Y1222D02*
X1650Y1222D01*
X1878Y1222D02*
X1885Y1222D01*
X0Y1221D02*
X7Y1221D01*
X982Y1221D02*
X994Y1221D01*
X1016Y1221D02*
X1028Y1221D01*
X1113Y1221D02*
X1125Y1221D01*
X1203Y1221D02*
X1214Y1221D01*
X1342Y1221D02*
X1388Y1221D01*
X1464Y1221D02*
X1476Y1221D01*
X1552Y1221D02*
X1563Y1221D01*
X1598Y1221D02*
X1650Y1221D01*
X1878Y1221D02*
X1885Y1221D01*
X0Y1220D02*
X7Y1220D01*
X981Y1220D02*
X993Y1220D01*
X1016Y1220D02*
X1028Y1220D01*
X1114Y1220D02*
X1126Y1220D01*
X1203Y1220D02*
X1214Y1220D01*
X1342Y1220D02*
X1388Y1220D01*
X1464Y1220D02*
X1476Y1220D01*
X1552Y1220D02*
X1563Y1220D01*
X1599Y1220D02*
X1650Y1220D01*
X1878Y1220D02*
X1885Y1220D01*
X0Y1219D02*
X7Y1219D01*
X981Y1219D02*
X993Y1219D01*
X1016Y1219D02*
X1028Y1219D01*
X1114Y1219D02*
X1126Y1219D01*
X1203Y1219D02*
X1214Y1219D01*
X1343Y1219D02*
X1388Y1219D01*
X1464Y1219D02*
X1476Y1219D01*
X1551Y1219D02*
X1563Y1219D01*
X1601Y1219D02*
X1650Y1219D01*
X1878Y1219D02*
X1885Y1219D01*
X0Y1218D02*
X7Y1218D01*
X981Y1218D02*
X993Y1218D01*
X1016Y1218D02*
X1028Y1218D01*
X1115Y1218D02*
X1126Y1218D01*
X1203Y1218D02*
X1214Y1218D01*
X1344Y1218D02*
X1388Y1218D01*
X1444Y1218D02*
X1476Y1218D01*
X1531Y1218D02*
X1563Y1218D01*
X1603Y1218D02*
X1650Y1218D01*
X1878Y1218D02*
X1885Y1218D01*
X0Y1217D02*
X7Y1217D01*
X981Y1217D02*
X992Y1217D01*
X1016Y1217D02*
X1028Y1217D01*
X1115Y1217D02*
X1126Y1217D01*
X1203Y1217D02*
X1214Y1217D01*
X1346Y1217D02*
X1388Y1217D01*
X1442Y1217D02*
X1476Y1217D01*
X1529Y1217D02*
X1563Y1217D01*
X1607Y1217D02*
X1650Y1217D01*
X1878Y1217D02*
X1885Y1217D01*
X0Y1216D02*
X7Y1216D01*
X981Y1216D02*
X992Y1216D01*
X1016Y1216D02*
X1028Y1216D01*
X1115Y1216D02*
X1127Y1216D01*
X1203Y1216D02*
X1214Y1216D01*
X1377Y1216D02*
X1388Y1216D01*
X1441Y1216D02*
X1476Y1216D01*
X1529Y1216D02*
X1563Y1216D01*
X1616Y1216D02*
X1629Y1216D01*
X1639Y1216D02*
X1650Y1216D01*
X1878Y1216D02*
X1885Y1216D01*
X0Y1215D02*
X7Y1215D01*
X980Y1215D02*
X992Y1215D01*
X1016Y1215D02*
X1028Y1215D01*
X1115Y1215D02*
X1127Y1215D01*
X1203Y1215D02*
X1214Y1215D01*
X1377Y1215D02*
X1388Y1215D01*
X1441Y1215D02*
X1476Y1215D01*
X1528Y1215D02*
X1563Y1215D01*
X1615Y1215D02*
X1628Y1215D01*
X1639Y1215D02*
X1650Y1215D01*
X1878Y1215D02*
X1885Y1215D01*
X0Y1214D02*
X7Y1214D01*
X980Y1214D02*
X992Y1214D01*
X1016Y1214D02*
X1028Y1214D01*
X1115Y1214D02*
X1127Y1214D01*
X1203Y1214D02*
X1214Y1214D01*
X1377Y1214D02*
X1388Y1214D01*
X1441Y1214D02*
X1476Y1214D01*
X1528Y1214D02*
X1563Y1214D01*
X1614Y1214D02*
X1628Y1214D01*
X1639Y1214D02*
X1650Y1214D01*
X1878Y1214D02*
X1885Y1214D01*
X0Y1213D02*
X7Y1213D01*
X980Y1213D02*
X992Y1213D01*
X1016Y1213D02*
X1028Y1213D01*
X1116Y1213D02*
X1127Y1213D01*
X1203Y1213D02*
X1214Y1213D01*
X1377Y1213D02*
X1388Y1213D01*
X1440Y1213D02*
X1476Y1213D01*
X1528Y1213D02*
X1563Y1213D01*
X1614Y1213D02*
X1627Y1213D01*
X1639Y1213D02*
X1650Y1213D01*
X1878Y1213D02*
X1885Y1213D01*
X0Y1212D02*
X7Y1212D01*
X980Y1212D02*
X992Y1212D01*
X1016Y1212D02*
X1028Y1212D01*
X1116Y1212D02*
X1127Y1212D01*
X1203Y1212D02*
X1214Y1212D01*
X1377Y1212D02*
X1388Y1212D01*
X1440Y1212D02*
X1476Y1212D01*
X1528Y1212D02*
X1563Y1212D01*
X1613Y1212D02*
X1627Y1212D01*
X1639Y1212D02*
X1650Y1212D01*
X1878Y1212D02*
X1885Y1212D01*
X0Y1211D02*
X7Y1211D01*
X980Y1211D02*
X992Y1211D01*
X1016Y1211D02*
X1028Y1211D01*
X1115Y1211D02*
X1127Y1211D01*
X1203Y1211D02*
X1214Y1211D01*
X1377Y1211D02*
X1388Y1211D01*
X1441Y1211D02*
X1476Y1211D01*
X1528Y1211D02*
X1563Y1211D01*
X1613Y1211D02*
X1626Y1211D01*
X1639Y1211D02*
X1650Y1211D01*
X1878Y1211D02*
X1885Y1211D01*
X0Y1210D02*
X7Y1210D01*
X980Y1210D02*
X992Y1210D01*
X1016Y1210D02*
X1028Y1210D01*
X1115Y1210D02*
X1127Y1210D01*
X1203Y1210D02*
X1214Y1210D01*
X1377Y1210D02*
X1388Y1210D01*
X1441Y1210D02*
X1476Y1210D01*
X1528Y1210D02*
X1563Y1210D01*
X1612Y1210D02*
X1625Y1210D01*
X1639Y1210D02*
X1650Y1210D01*
X1878Y1210D02*
X1885Y1210D01*
X0Y1209D02*
X7Y1209D01*
X981Y1209D02*
X992Y1209D01*
X1016Y1209D02*
X1028Y1209D01*
X1115Y1209D02*
X1127Y1209D01*
X1203Y1209D02*
X1214Y1209D01*
X1377Y1209D02*
X1388Y1209D01*
X1442Y1209D02*
X1476Y1209D01*
X1529Y1209D02*
X1563Y1209D01*
X1612Y1209D02*
X1625Y1209D01*
X1639Y1209D02*
X1650Y1209D01*
X1878Y1209D02*
X1885Y1209D01*
X0Y1208D02*
X7Y1208D01*
X981Y1208D02*
X992Y1208D01*
X1016Y1208D02*
X1028Y1208D01*
X1115Y1208D02*
X1126Y1208D01*
X1203Y1208D02*
X1214Y1208D01*
X1377Y1208D02*
X1388Y1208D01*
X1443Y1208D02*
X1476Y1208D01*
X1530Y1208D02*
X1563Y1208D01*
X1611Y1208D02*
X1624Y1208D01*
X1639Y1208D02*
X1650Y1208D01*
X1878Y1208D02*
X1885Y1208D01*
X0Y1207D02*
X7Y1207D01*
X981Y1207D02*
X993Y1207D01*
X1016Y1207D02*
X1028Y1207D01*
X1114Y1207D02*
X1126Y1207D01*
X1203Y1207D02*
X1214Y1207D01*
X1377Y1207D02*
X1388Y1207D01*
X1444Y1207D02*
X1476Y1207D01*
X1532Y1207D02*
X1563Y1207D01*
X1610Y1207D02*
X1624Y1207D01*
X1639Y1207D02*
X1650Y1207D01*
X1878Y1207D02*
X1885Y1207D01*
X0Y1206D02*
X7Y1206D01*
X981Y1206D02*
X993Y1206D01*
X1016Y1206D02*
X1028Y1206D01*
X1114Y1206D02*
X1126Y1206D01*
X1203Y1206D02*
X1214Y1206D01*
X1377Y1206D02*
X1388Y1206D01*
X1464Y1206D02*
X1476Y1206D01*
X1552Y1206D02*
X1563Y1206D01*
X1610Y1206D02*
X1623Y1206D01*
X1639Y1206D02*
X1650Y1206D01*
X1878Y1206D02*
X1885Y1206D01*
X0Y1205D02*
X7Y1205D01*
X981Y1205D02*
X994Y1205D01*
X1016Y1205D02*
X1028Y1205D01*
X1114Y1205D02*
X1126Y1205D01*
X1203Y1205D02*
X1214Y1205D01*
X1377Y1205D02*
X1388Y1205D01*
X1464Y1205D02*
X1476Y1205D01*
X1552Y1205D02*
X1563Y1205D01*
X1609Y1205D02*
X1623Y1205D01*
X1639Y1205D02*
X1650Y1205D01*
X1878Y1205D02*
X1885Y1205D01*
X0Y1204D02*
X7Y1204D01*
X982Y1204D02*
X994Y1204D01*
X1016Y1204D02*
X1028Y1204D01*
X1113Y1204D02*
X1125Y1204D01*
X1203Y1204D02*
X1214Y1204D01*
X1377Y1204D02*
X1388Y1204D01*
X1464Y1204D02*
X1476Y1204D01*
X1552Y1204D02*
X1563Y1204D01*
X1609Y1204D02*
X1622Y1204D01*
X1639Y1204D02*
X1650Y1204D01*
X1878Y1204D02*
X1885Y1204D01*
X0Y1203D02*
X7Y1203D01*
X982Y1203D02*
X995Y1203D01*
X1016Y1203D02*
X1028Y1203D01*
X1113Y1203D02*
X1125Y1203D01*
X1203Y1203D02*
X1214Y1203D01*
X1377Y1203D02*
X1388Y1203D01*
X1464Y1203D02*
X1476Y1203D01*
X1552Y1203D02*
X1563Y1203D01*
X1608Y1203D02*
X1621Y1203D01*
X1639Y1203D02*
X1650Y1203D01*
X1878Y1203D02*
X1885Y1203D01*
X0Y1202D02*
X7Y1202D01*
X983Y1202D02*
X995Y1202D01*
X1016Y1202D02*
X1028Y1202D01*
X1112Y1202D02*
X1125Y1202D01*
X1203Y1202D02*
X1214Y1202D01*
X1377Y1202D02*
X1388Y1202D01*
X1464Y1202D02*
X1476Y1202D01*
X1552Y1202D02*
X1563Y1202D01*
X1607Y1202D02*
X1621Y1202D01*
X1639Y1202D02*
X1650Y1202D01*
X1878Y1202D02*
X1885Y1202D01*
X0Y1201D02*
X7Y1201D01*
X983Y1201D02*
X996Y1201D01*
X1016Y1201D02*
X1028Y1201D01*
X1112Y1201D02*
X1124Y1201D01*
X1203Y1201D02*
X1214Y1201D01*
X1377Y1201D02*
X1388Y1201D01*
X1464Y1201D02*
X1476Y1201D01*
X1552Y1201D02*
X1563Y1201D01*
X1607Y1201D02*
X1620Y1201D01*
X1639Y1201D02*
X1650Y1201D01*
X1878Y1201D02*
X1885Y1201D01*
X0Y1200D02*
X7Y1200D01*
X983Y1200D02*
X996Y1200D01*
X1016Y1200D02*
X1028Y1200D01*
X1111Y1200D02*
X1124Y1200D01*
X1203Y1200D02*
X1214Y1200D01*
X1377Y1200D02*
X1388Y1200D01*
X1464Y1200D02*
X1476Y1200D01*
X1552Y1200D02*
X1563Y1200D01*
X1606Y1200D02*
X1620Y1200D01*
X1639Y1200D02*
X1650Y1200D01*
X1878Y1200D02*
X1885Y1200D01*
X0Y1199D02*
X7Y1199D01*
X984Y1199D02*
X997Y1199D01*
X1016Y1199D02*
X1028Y1199D01*
X1111Y1199D02*
X1123Y1199D01*
X1203Y1199D02*
X1214Y1199D01*
X1377Y1199D02*
X1388Y1199D01*
X1464Y1199D02*
X1476Y1199D01*
X1552Y1199D02*
X1563Y1199D01*
X1606Y1199D02*
X1619Y1199D01*
X1639Y1199D02*
X1650Y1199D01*
X1878Y1199D02*
X1885Y1199D01*
X0Y1198D02*
X7Y1198D01*
X984Y1198D02*
X997Y1198D01*
X1016Y1198D02*
X1028Y1198D01*
X1110Y1198D02*
X1123Y1198D01*
X1203Y1198D02*
X1214Y1198D01*
X1377Y1198D02*
X1388Y1198D01*
X1464Y1198D02*
X1476Y1198D01*
X1552Y1198D02*
X1563Y1198D01*
X1605Y1198D02*
X1618Y1198D01*
X1639Y1198D02*
X1650Y1198D01*
X1878Y1198D02*
X1885Y1198D01*
X0Y1197D02*
X7Y1197D01*
X985Y1197D02*
X998Y1197D01*
X1016Y1197D02*
X1028Y1197D01*
X1110Y1197D02*
X1122Y1197D01*
X1203Y1197D02*
X1214Y1197D01*
X1377Y1197D02*
X1388Y1197D01*
X1464Y1197D02*
X1476Y1197D01*
X1552Y1197D02*
X1563Y1197D01*
X1605Y1197D02*
X1618Y1197D01*
X1639Y1197D02*
X1650Y1197D01*
X1878Y1197D02*
X1885Y1197D01*
X0Y1196D02*
X7Y1196D01*
X985Y1196D02*
X998Y1196D01*
X1016Y1196D02*
X1028Y1196D01*
X1109Y1196D02*
X1122Y1196D01*
X1203Y1196D02*
X1214Y1196D01*
X1377Y1196D02*
X1388Y1196D01*
X1464Y1196D02*
X1476Y1196D01*
X1552Y1196D02*
X1563Y1196D01*
X1604Y1196D02*
X1617Y1196D01*
X1639Y1196D02*
X1650Y1196D01*
X1878Y1196D02*
X1885Y1196D01*
X0Y1195D02*
X7Y1195D01*
X986Y1195D02*
X999Y1195D01*
X1016Y1195D02*
X1028Y1195D01*
X1109Y1195D02*
X1121Y1195D01*
X1203Y1195D02*
X1214Y1195D01*
X1377Y1195D02*
X1388Y1195D01*
X1464Y1195D02*
X1476Y1195D01*
X1552Y1195D02*
X1563Y1195D01*
X1603Y1195D02*
X1617Y1195D01*
X1639Y1195D02*
X1650Y1195D01*
X1878Y1195D02*
X1885Y1195D01*
X0Y1194D02*
X7Y1194D01*
X986Y1194D02*
X999Y1194D01*
X1016Y1194D02*
X1028Y1194D01*
X1108Y1194D02*
X1121Y1194D01*
X1203Y1194D02*
X1214Y1194D01*
X1377Y1194D02*
X1388Y1194D01*
X1464Y1194D02*
X1476Y1194D01*
X1552Y1194D02*
X1563Y1194D01*
X1603Y1194D02*
X1616Y1194D01*
X1639Y1194D02*
X1650Y1194D01*
X1878Y1194D02*
X1885Y1194D01*
X0Y1193D02*
X7Y1193D01*
X987Y1193D02*
X1000Y1193D01*
X1016Y1193D02*
X1028Y1193D01*
X1108Y1193D02*
X1120Y1193D01*
X1203Y1193D02*
X1214Y1193D01*
X1377Y1193D02*
X1388Y1193D01*
X1464Y1193D02*
X1476Y1193D01*
X1552Y1193D02*
X1563Y1193D01*
X1602Y1193D02*
X1616Y1193D01*
X1639Y1193D02*
X1650Y1193D01*
X1878Y1193D02*
X1885Y1193D01*
X0Y1192D02*
X7Y1192D01*
X987Y1192D02*
X1000Y1192D01*
X1016Y1192D02*
X1028Y1192D01*
X1107Y1192D02*
X1120Y1192D01*
X1203Y1192D02*
X1214Y1192D01*
X1377Y1192D02*
X1388Y1192D01*
X1464Y1192D02*
X1476Y1192D01*
X1552Y1192D02*
X1563Y1192D01*
X1602Y1192D02*
X1615Y1192D01*
X1639Y1192D02*
X1650Y1192D01*
X1878Y1192D02*
X1885Y1192D01*
X0Y1191D02*
X7Y1191D01*
X988Y1191D02*
X1001Y1191D01*
X1016Y1191D02*
X1028Y1191D01*
X1107Y1191D02*
X1119Y1191D01*
X1203Y1191D02*
X1214Y1191D01*
X1377Y1191D02*
X1388Y1191D01*
X1464Y1191D02*
X1476Y1191D01*
X1552Y1191D02*
X1563Y1191D01*
X1601Y1191D02*
X1614Y1191D01*
X1639Y1191D02*
X1650Y1191D01*
X1878Y1191D02*
X1885Y1191D01*
X0Y1190D02*
X7Y1190D01*
X988Y1190D02*
X1001Y1190D01*
X1016Y1190D02*
X1028Y1190D01*
X1106Y1190D02*
X1119Y1190D01*
X1203Y1190D02*
X1214Y1190D01*
X1377Y1190D02*
X1388Y1190D01*
X1464Y1190D02*
X1476Y1190D01*
X1552Y1190D02*
X1563Y1190D01*
X1600Y1190D02*
X1614Y1190D01*
X1639Y1190D02*
X1650Y1190D01*
X1878Y1190D02*
X1885Y1190D01*
X0Y1189D02*
X7Y1189D01*
X989Y1189D02*
X1002Y1189D01*
X1016Y1189D02*
X1028Y1189D01*
X1106Y1189D02*
X1118Y1189D01*
X1203Y1189D02*
X1214Y1189D01*
X1377Y1189D02*
X1388Y1189D01*
X1464Y1189D02*
X1476Y1189D01*
X1552Y1189D02*
X1563Y1189D01*
X1600Y1189D02*
X1613Y1189D01*
X1639Y1189D02*
X1650Y1189D01*
X1878Y1189D02*
X1885Y1189D01*
X0Y1188D02*
X7Y1188D01*
X989Y1188D02*
X1002Y1188D01*
X1016Y1188D02*
X1028Y1188D01*
X1105Y1188D02*
X1118Y1188D01*
X1203Y1188D02*
X1214Y1188D01*
X1377Y1188D02*
X1388Y1188D01*
X1464Y1188D02*
X1476Y1188D01*
X1552Y1188D02*
X1563Y1188D01*
X1599Y1188D02*
X1613Y1188D01*
X1639Y1188D02*
X1650Y1188D01*
X1878Y1188D02*
X1885Y1188D01*
X0Y1187D02*
X7Y1187D01*
X990Y1187D02*
X1003Y1187D01*
X1016Y1187D02*
X1028Y1187D01*
X1105Y1187D02*
X1117Y1187D01*
X1203Y1187D02*
X1214Y1187D01*
X1377Y1187D02*
X1388Y1187D01*
X1464Y1187D02*
X1476Y1187D01*
X1552Y1187D02*
X1563Y1187D01*
X1599Y1187D02*
X1612Y1187D01*
X1639Y1187D02*
X1650Y1187D01*
X1878Y1187D02*
X1885Y1187D01*
X0Y1186D02*
X7Y1186D01*
X990Y1186D02*
X1003Y1186D01*
X1016Y1186D02*
X1028Y1186D01*
X1104Y1186D02*
X1117Y1186D01*
X1203Y1186D02*
X1214Y1186D01*
X1377Y1186D02*
X1388Y1186D01*
X1464Y1186D02*
X1476Y1186D01*
X1552Y1186D02*
X1563Y1186D01*
X1598Y1186D02*
X1611Y1186D01*
X1639Y1186D02*
X1650Y1186D01*
X1878Y1186D02*
X1885Y1186D01*
X0Y1185D02*
X7Y1185D01*
X991Y1185D02*
X1004Y1185D01*
X1016Y1185D02*
X1028Y1185D01*
X1104Y1185D02*
X1116Y1185D01*
X1203Y1185D02*
X1214Y1185D01*
X1377Y1185D02*
X1388Y1185D01*
X1464Y1185D02*
X1476Y1185D01*
X1552Y1185D02*
X1563Y1185D01*
X1598Y1185D02*
X1611Y1185D01*
X1639Y1185D02*
X1650Y1185D01*
X1878Y1185D02*
X1885Y1185D01*
X0Y1184D02*
X7Y1184D01*
X991Y1184D02*
X1004Y1184D01*
X1016Y1184D02*
X1028Y1184D01*
X1103Y1184D02*
X1116Y1184D01*
X1203Y1184D02*
X1214Y1184D01*
X1377Y1184D02*
X1388Y1184D01*
X1464Y1184D02*
X1476Y1184D01*
X1552Y1184D02*
X1563Y1184D01*
X1597Y1184D02*
X1610Y1184D01*
X1639Y1184D02*
X1650Y1184D01*
X1878Y1184D02*
X1885Y1184D01*
X0Y1183D02*
X7Y1183D01*
X992Y1183D02*
X1005Y1183D01*
X1016Y1183D02*
X1028Y1183D01*
X1103Y1183D02*
X1115Y1183D01*
X1203Y1183D02*
X1214Y1183D01*
X1377Y1183D02*
X1388Y1183D01*
X1464Y1183D02*
X1476Y1183D01*
X1552Y1183D02*
X1563Y1183D01*
X1596Y1183D02*
X1610Y1183D01*
X1639Y1183D02*
X1650Y1183D01*
X1878Y1183D02*
X1885Y1183D01*
X0Y1182D02*
X7Y1182D01*
X992Y1182D02*
X1005Y1182D01*
X1016Y1182D02*
X1028Y1182D01*
X1102Y1182D02*
X1115Y1182D01*
X1203Y1182D02*
X1214Y1182D01*
X1377Y1182D02*
X1388Y1182D01*
X1464Y1182D02*
X1476Y1182D01*
X1552Y1182D02*
X1563Y1182D01*
X1596Y1182D02*
X1609Y1182D01*
X1639Y1182D02*
X1650Y1182D01*
X1878Y1182D02*
X1885Y1182D01*
X0Y1181D02*
X7Y1181D01*
X993Y1181D02*
X1006Y1181D01*
X1016Y1181D02*
X1028Y1181D01*
X1101Y1181D02*
X1114Y1181D01*
X1203Y1181D02*
X1214Y1181D01*
X1377Y1181D02*
X1388Y1181D01*
X1464Y1181D02*
X1476Y1181D01*
X1552Y1181D02*
X1563Y1181D01*
X1595Y1181D02*
X1608Y1181D01*
X1639Y1181D02*
X1650Y1181D01*
X1878Y1181D02*
X1885Y1181D01*
X0Y1180D02*
X7Y1180D01*
X993Y1180D02*
X1006Y1180D01*
X1016Y1180D02*
X1028Y1180D01*
X1101Y1180D02*
X1114Y1180D01*
X1203Y1180D02*
X1214Y1180D01*
X1377Y1180D02*
X1388Y1180D01*
X1464Y1180D02*
X1476Y1180D01*
X1552Y1180D02*
X1563Y1180D01*
X1595Y1180D02*
X1608Y1180D01*
X1639Y1180D02*
X1650Y1180D01*
X1878Y1180D02*
X1885Y1180D01*
X0Y1179D02*
X7Y1179D01*
X994Y1179D02*
X1007Y1179D01*
X1016Y1179D02*
X1028Y1179D01*
X1100Y1179D02*
X1113Y1179D01*
X1203Y1179D02*
X1214Y1179D01*
X1377Y1179D02*
X1388Y1179D01*
X1464Y1179D02*
X1476Y1179D01*
X1552Y1179D02*
X1563Y1179D01*
X1594Y1179D02*
X1607Y1179D01*
X1639Y1179D02*
X1650Y1179D01*
X1878Y1179D02*
X1885Y1179D01*
X0Y1178D02*
X7Y1178D01*
X994Y1178D02*
X1009Y1178D01*
X1016Y1178D02*
X1028Y1178D01*
X1098Y1178D02*
X1113Y1178D01*
X1203Y1178D02*
X1214Y1178D01*
X1377Y1178D02*
X1388Y1178D01*
X1464Y1178D02*
X1476Y1178D01*
X1551Y1178D02*
X1563Y1178D01*
X1593Y1178D02*
X1607Y1178D01*
X1639Y1178D02*
X1650Y1178D01*
X1878Y1178D02*
X1885Y1178D01*
X0Y1177D02*
X7Y1177D01*
X995Y1177D02*
X1036Y1177D01*
X1071Y1177D02*
X1112Y1177D01*
X1158Y1177D02*
X1214Y1177D01*
X1377Y1177D02*
X1388Y1177D01*
X1420Y1177D02*
X1476Y1177D01*
X1507Y1177D02*
X1563Y1177D01*
X1593Y1177D02*
X1606Y1177D01*
X1639Y1177D02*
X1650Y1177D01*
X1878Y1177D02*
X1885Y1177D01*
X0Y1176D02*
X7Y1176D01*
X995Y1176D02*
X1038Y1176D01*
X1070Y1176D02*
X1112Y1176D01*
X1157Y1176D02*
X1214Y1176D01*
X1377Y1176D02*
X1388Y1176D01*
X1418Y1176D02*
X1476Y1176D01*
X1506Y1176D02*
X1563Y1176D01*
X1592Y1176D02*
X1606Y1176D01*
X1639Y1176D02*
X1650Y1176D01*
X1878Y1176D02*
X1885Y1176D01*
X0Y1175D02*
X7Y1175D01*
X996Y1175D02*
X1038Y1175D01*
X1069Y1175D02*
X1111Y1175D01*
X1156Y1175D02*
X1214Y1175D01*
X1377Y1175D02*
X1388Y1175D01*
X1418Y1175D02*
X1476Y1175D01*
X1505Y1175D02*
X1563Y1175D01*
X1592Y1175D02*
X1605Y1175D01*
X1639Y1175D02*
X1650Y1175D01*
X1878Y1175D02*
X1885Y1175D01*
X0Y1174D02*
X7Y1174D01*
X996Y1174D02*
X1039Y1174D01*
X1068Y1174D02*
X1111Y1174D01*
X1155Y1174D02*
X1214Y1174D01*
X1377Y1174D02*
X1388Y1174D01*
X1417Y1174D02*
X1476Y1174D01*
X1504Y1174D02*
X1563Y1174D01*
X1591Y1174D02*
X1604Y1174D01*
X1639Y1174D02*
X1650Y1174D01*
X1878Y1174D02*
X1885Y1174D01*
X0Y1173D02*
X7Y1173D01*
X997Y1173D02*
X1039Y1173D01*
X1068Y1173D02*
X1110Y1173D01*
X1155Y1173D02*
X1214Y1173D01*
X1377Y1173D02*
X1388Y1173D01*
X1416Y1173D02*
X1476Y1173D01*
X1504Y1173D02*
X1563Y1173D01*
X1591Y1173D02*
X1604Y1173D01*
X1639Y1173D02*
X1650Y1173D01*
X1878Y1173D02*
X1885Y1173D01*
X0Y1172D02*
X7Y1172D01*
X998Y1172D02*
X1040Y1172D01*
X1068Y1172D02*
X1109Y1172D01*
X1155Y1172D02*
X1214Y1172D01*
X1377Y1172D02*
X1388Y1172D01*
X1416Y1172D02*
X1476Y1172D01*
X1504Y1172D02*
X1563Y1172D01*
X1591Y1172D02*
X1603Y1172D01*
X1639Y1172D02*
X1650Y1172D01*
X1878Y1172D02*
X1885Y1172D01*
X0Y1171D02*
X7Y1171D01*
X999Y1171D02*
X1040Y1171D01*
X1068Y1171D02*
X1108Y1171D01*
X1155Y1171D02*
X1214Y1171D01*
X1377Y1171D02*
X1388Y1171D01*
X1416Y1171D02*
X1476Y1171D01*
X1504Y1171D02*
X1563Y1171D01*
X1591Y1171D02*
X1603Y1171D01*
X1639Y1171D02*
X1650Y1171D01*
X1878Y1171D02*
X1885Y1171D01*
X0Y1170D02*
X7Y1170D01*
X1000Y1170D02*
X1039Y1170D01*
X1068Y1170D02*
X1107Y1170D01*
X1155Y1170D02*
X1214Y1170D01*
X1377Y1170D02*
X1388Y1170D01*
X1417Y1170D02*
X1476Y1170D01*
X1504Y1170D02*
X1563Y1170D01*
X1591Y1170D02*
X1602Y1170D01*
X1639Y1170D02*
X1650Y1170D01*
X1878Y1170D02*
X1885Y1170D01*
X0Y1169D02*
X7Y1169D01*
X1001Y1169D02*
X1039Y1169D01*
X1068Y1169D02*
X1106Y1169D01*
X1155Y1169D02*
X1214Y1169D01*
X1378Y1169D02*
X1388Y1169D01*
X1417Y1169D02*
X1476Y1169D01*
X1504Y1169D02*
X1563Y1169D01*
X1591Y1169D02*
X1601Y1169D01*
X1639Y1169D02*
X1649Y1169D01*
X1878Y1169D02*
X1885Y1169D01*
X0Y1168D02*
X7Y1168D01*
X1003Y1168D02*
X1038Y1168D01*
X1069Y1168D02*
X1104Y1168D01*
X1156Y1168D02*
X1214Y1168D01*
X1378Y1168D02*
X1387Y1168D01*
X1418Y1168D02*
X1476Y1168D01*
X1505Y1168D02*
X1563Y1168D01*
X1592Y1168D02*
X1601Y1168D01*
X1640Y1168D02*
X1649Y1168D01*
X1878Y1168D02*
X1885Y1168D01*
X0Y1167D02*
X7Y1167D01*
X1004Y1167D02*
X1037Y1167D01*
X1070Y1167D02*
X1102Y1167D01*
X1157Y1167D02*
X1214Y1167D01*
X1379Y1167D02*
X1386Y1167D01*
X1418Y1167D02*
X1476Y1167D01*
X1506Y1167D02*
X1563Y1167D01*
X1593Y1167D02*
X1600Y1167D01*
X1641Y1167D02*
X1648Y1167D01*
X1878Y1167D02*
X1885Y1167D01*
X0Y1166D02*
X7Y1166D01*
X1007Y1166D02*
X1036Y1166D01*
X1071Y1166D02*
X1100Y1166D01*
X1158Y1166D02*
X1214Y1166D01*
X1381Y1166D02*
X1385Y1166D01*
X1420Y1166D02*
X1476Y1166D01*
X1507Y1166D02*
X1563Y1166D01*
X1594Y1166D02*
X1598Y1166D01*
X1642Y1166D02*
X1646Y1166D01*
X1878Y1166D02*
X1885Y1166D01*
X0Y1165D02*
X7Y1165D01*
X1878Y1165D02*
X1885Y1165D01*
X0Y1164D02*
X7Y1164D01*
X1878Y1164D02*
X1885Y1164D01*
X0Y1163D02*
X7Y1163D01*
X1878Y1163D02*
X1885Y1163D01*
X0Y1162D02*
X7Y1162D01*
X1878Y1162D02*
X1885Y1162D01*
X0Y1161D02*
X7Y1161D01*
X1878Y1161D02*
X1885Y1161D01*
X0Y1160D02*
X7Y1160D01*
X1878Y1160D02*
X1885Y1160D01*
X0Y1159D02*
X7Y1159D01*
X1878Y1159D02*
X1885Y1159D01*
X0Y1158D02*
X7Y1158D01*
X1878Y1158D02*
X1885Y1158D01*
X0Y1157D02*
X7Y1157D01*
X1878Y1157D02*
X1885Y1157D01*
X0Y1156D02*
X7Y1156D01*
X1878Y1156D02*
X1885Y1156D01*
X0Y1155D02*
X7Y1155D01*
X1878Y1155D02*
X1885Y1155D01*
X0Y1154D02*
X7Y1154D01*
X1878Y1154D02*
X1885Y1154D01*
X0Y1153D02*
X7Y1153D01*
X1878Y1153D02*
X1885Y1153D01*
X0Y1152D02*
X7Y1152D01*
X1878Y1152D02*
X1885Y1152D01*
X0Y1151D02*
X7Y1151D01*
X1878Y1151D02*
X1885Y1151D01*
X0Y1150D02*
X7Y1150D01*
X1878Y1150D02*
X1885Y1150D01*
X0Y1149D02*
X7Y1149D01*
X1878Y1149D02*
X1885Y1149D01*
X0Y1148D02*
X7Y1148D01*
X1878Y1148D02*
X1885Y1148D01*
X0Y1147D02*
X7Y1147D01*
X1878Y1147D02*
X1885Y1147D01*
X0Y1146D02*
X7Y1146D01*
X1878Y1146D02*
X1885Y1146D01*
X0Y1145D02*
X7Y1145D01*
X1878Y1145D02*
X1885Y1145D01*
X0Y1144D02*
X7Y1144D01*
X1878Y1144D02*
X1885Y1144D01*
X0Y1143D02*
X7Y1143D01*
X1878Y1143D02*
X1885Y1143D01*
X0Y1142D02*
X7Y1142D01*
X1878Y1142D02*
X1885Y1142D01*
X0Y1141D02*
X7Y1141D01*
X1878Y1141D02*
X1885Y1141D01*
X0Y1140D02*
X7Y1140D01*
X1878Y1140D02*
X1885Y1140D01*
X0Y1139D02*
X7Y1139D01*
X1878Y1139D02*
X1885Y1139D01*
X0Y1138D02*
X7Y1138D01*
X1878Y1138D02*
X1885Y1138D01*
X0Y1137D02*
X7Y1137D01*
X1878Y1137D02*
X1885Y1137D01*
X0Y1136D02*
X7Y1136D01*
X1878Y1136D02*
X1885Y1136D01*
X0Y1135D02*
X7Y1135D01*
X1878Y1135D02*
X1885Y1135D01*
X0Y1134D02*
X7Y1134D01*
X1878Y1134D02*
X1885Y1134D01*
X0Y1133D02*
X7Y1133D01*
X1878Y1133D02*
X1885Y1133D01*
X0Y1132D02*
X7Y1132D01*
X1878Y1132D02*
X1885Y1132D01*
X0Y1131D02*
X7Y1131D01*
X1878Y1131D02*
X1885Y1131D01*
X0Y1130D02*
X7Y1130D01*
X1878Y1130D02*
X1885Y1130D01*
X0Y1129D02*
X7Y1129D01*
X1878Y1129D02*
X1885Y1129D01*
X0Y1128D02*
X7Y1128D01*
X1878Y1128D02*
X1885Y1128D01*
X0Y1127D02*
X7Y1127D01*
X1878Y1127D02*
X1885Y1127D01*
X0Y1126D02*
X7Y1126D01*
X1878Y1126D02*
X1885Y1126D01*
X0Y1125D02*
X7Y1125D01*
X1878Y1125D02*
X1885Y1125D01*
X0Y1124D02*
X7Y1124D01*
X1878Y1124D02*
X1885Y1124D01*
X0Y1123D02*
X7Y1123D01*
X1878Y1123D02*
X1885Y1123D01*
X0Y1122D02*
X7Y1122D01*
X1878Y1122D02*
X1885Y1122D01*
X0Y1121D02*
X7Y1121D01*
X1878Y1121D02*
X1885Y1121D01*
X0Y1120D02*
X7Y1120D01*
X1878Y1120D02*
X1885Y1120D01*
X0Y1119D02*
X7Y1119D01*
X1878Y1119D02*
X1885Y1119D01*
X0Y1118D02*
X7Y1118D01*
X1878Y1118D02*
X1885Y1118D01*
X0Y1117D02*
X7Y1117D01*
X1878Y1117D02*
X1885Y1117D01*
X0Y1116D02*
X7Y1116D01*
X1878Y1116D02*
X1885Y1116D01*
X0Y1115D02*
X7Y1115D01*
X1878Y1115D02*
X1885Y1115D01*
X0Y1114D02*
X7Y1114D01*
X1878Y1114D02*
X1885Y1114D01*
X0Y1113D02*
X7Y1113D01*
X1878Y1113D02*
X1885Y1113D01*
X0Y1112D02*
X7Y1112D01*
X1878Y1112D02*
X1885Y1112D01*
X0Y1111D02*
X7Y1111D01*
X1878Y1111D02*
X1885Y1111D01*
X0Y1110D02*
X7Y1110D01*
X1878Y1110D02*
X1885Y1110D01*
X0Y1109D02*
X7Y1109D01*
X1878Y1109D02*
X1885Y1109D01*
X0Y1108D02*
X7Y1108D01*
X1878Y1108D02*
X1885Y1108D01*
X0Y1107D02*
X7Y1107D01*
X1878Y1107D02*
X1885Y1107D01*
X0Y1106D02*
X7Y1106D01*
X1878Y1106D02*
X1885Y1106D01*
X0Y1105D02*
X7Y1105D01*
X1878Y1105D02*
X1885Y1105D01*
X0Y1104D02*
X7Y1104D01*
X1878Y1104D02*
X1885Y1104D01*
X0Y1103D02*
X7Y1103D01*
X1878Y1103D02*
X1885Y1103D01*
X0Y1102D02*
X7Y1102D01*
X1878Y1102D02*
X1885Y1102D01*
X0Y1101D02*
X7Y1101D01*
X1878Y1101D02*
X1885Y1101D01*
X0Y1100D02*
X7Y1100D01*
X1878Y1100D02*
X1885Y1100D01*
X0Y1099D02*
X7Y1099D01*
X1878Y1099D02*
X1885Y1099D01*
X0Y1098D02*
X7Y1098D01*
X1878Y1098D02*
X1885Y1098D01*
X0Y1097D02*
X7Y1097D01*
X1878Y1097D02*
X1885Y1097D01*
X0Y1096D02*
X7Y1096D01*
X1878Y1096D02*
X1885Y1096D01*
X0Y1095D02*
X7Y1095D01*
X1878Y1095D02*
X1885Y1095D01*
X0Y1094D02*
X7Y1094D01*
X1878Y1094D02*
X1885Y1094D01*
X0Y1093D02*
X7Y1093D01*
X1878Y1093D02*
X1885Y1093D01*
X0Y1092D02*
X7Y1092D01*
X1878Y1092D02*
X1885Y1092D01*
X0Y1091D02*
X7Y1091D01*
X1878Y1091D02*
X1885Y1091D01*
X0Y1090D02*
X7Y1090D01*
X1878Y1090D02*
X1885Y1090D01*
X0Y1089D02*
X7Y1089D01*
X1878Y1089D02*
X1885Y1089D01*
X0Y1088D02*
X7Y1088D01*
X1878Y1088D02*
X1885Y1088D01*
X0Y1087D02*
X7Y1087D01*
X1878Y1087D02*
X1885Y1087D01*
X0Y1086D02*
X7Y1086D01*
X1878Y1086D02*
X1885Y1086D01*
X0Y1085D02*
X7Y1085D01*
X1878Y1085D02*
X1885Y1085D01*
X0Y1084D02*
X7Y1084D01*
X1878Y1084D02*
X1885Y1084D01*
X0Y1083D02*
X7Y1083D01*
X1878Y1083D02*
X1885Y1083D01*
X0Y1082D02*
X7Y1082D01*
X1878Y1082D02*
X1885Y1082D01*
X0Y1081D02*
X7Y1081D01*
X1878Y1081D02*
X1885Y1081D01*
X0Y1080D02*
X7Y1080D01*
X1878Y1080D02*
X1885Y1080D01*
X0Y1079D02*
X7Y1079D01*
X1878Y1079D02*
X1885Y1079D01*
X0Y1078D02*
X7Y1078D01*
X1878Y1078D02*
X1885Y1078D01*
X0Y1077D02*
X7Y1077D01*
X1878Y1077D02*
X1885Y1077D01*
X0Y1076D02*
X7Y1076D01*
X1878Y1076D02*
X1885Y1076D01*
X0Y1075D02*
X7Y1075D01*
X1878Y1075D02*
X1885Y1075D01*
X0Y1074D02*
X7Y1074D01*
X1878Y1074D02*
X1885Y1074D01*
X0Y1073D02*
X7Y1073D01*
X1878Y1073D02*
X1885Y1073D01*
X0Y1072D02*
X7Y1072D01*
X1878Y1072D02*
X1885Y1072D01*
X0Y1071D02*
X7Y1071D01*
X1878Y1071D02*
X1885Y1071D01*
X0Y1070D02*
X7Y1070D01*
X1878Y1070D02*
X1885Y1070D01*
X0Y1069D02*
X7Y1069D01*
X1878Y1069D02*
X1885Y1069D01*
X0Y1068D02*
X7Y1068D01*
X1878Y1068D02*
X1885Y1068D01*
X0Y1067D02*
X7Y1067D01*
X1878Y1067D02*
X1885Y1067D01*
X0Y1066D02*
X7Y1066D01*
X1878Y1066D02*
X1885Y1066D01*
X0Y1065D02*
X7Y1065D01*
X1878Y1065D02*
X1885Y1065D01*
X0Y1064D02*
X7Y1064D01*
X1878Y1064D02*
X1885Y1064D01*
X0Y1063D02*
X7Y1063D01*
X1878Y1063D02*
X1885Y1063D01*
X0Y1062D02*
X7Y1062D01*
X1878Y1062D02*
X1885Y1062D01*
X0Y1061D02*
X7Y1061D01*
X1878Y1061D02*
X1885Y1061D01*
X0Y1060D02*
X7Y1060D01*
X1878Y1060D02*
X1885Y1060D01*
X0Y1059D02*
X7Y1059D01*
X1878Y1059D02*
X1885Y1059D01*
X0Y1058D02*
X7Y1058D01*
X1878Y1058D02*
X1885Y1058D01*
X0Y1057D02*
X7Y1057D01*
X1878Y1057D02*
X1885Y1057D01*
X0Y1056D02*
X7Y1056D01*
X1878Y1056D02*
X1885Y1056D01*
X0Y1055D02*
X7Y1055D01*
X1878Y1055D02*
X1885Y1055D01*
X0Y1054D02*
X7Y1054D01*
X1878Y1054D02*
X1885Y1054D01*
X0Y1053D02*
X7Y1053D01*
X1878Y1053D02*
X1885Y1053D01*
X0Y1052D02*
X7Y1052D01*
X1878Y1052D02*
X1885Y1052D01*
X0Y1051D02*
X7Y1051D01*
X1878Y1051D02*
X1885Y1051D01*
X0Y1050D02*
X7Y1050D01*
X1878Y1050D02*
X1885Y1050D01*
X0Y1049D02*
X7Y1049D01*
X1878Y1049D02*
X1885Y1049D01*
X0Y1048D02*
X7Y1048D01*
X1878Y1048D02*
X1885Y1048D01*
X0Y1047D02*
X7Y1047D01*
X1878Y1047D02*
X1885Y1047D01*
X0Y1046D02*
X7Y1046D01*
X1878Y1046D02*
X1885Y1046D01*
X0Y1045D02*
X7Y1045D01*
X1878Y1045D02*
X1885Y1045D01*
X0Y1044D02*
X7Y1044D01*
X1878Y1044D02*
X1885Y1044D01*
X0Y1043D02*
X7Y1043D01*
X1878Y1043D02*
X1885Y1043D01*
X0Y1042D02*
X7Y1042D01*
X1878Y1042D02*
X1885Y1042D01*
X0Y1041D02*
X7Y1041D01*
X1878Y1041D02*
X1885Y1041D01*
X0Y1040D02*
X7Y1040D01*
X1878Y1040D02*
X1885Y1040D01*
X0Y1039D02*
X7Y1039D01*
X1878Y1039D02*
X1885Y1039D01*
X0Y1038D02*
X7Y1038D01*
X1878Y1038D02*
X1885Y1038D01*
X0Y1037D02*
X7Y1037D01*
X1878Y1037D02*
X1885Y1037D01*
X0Y1036D02*
X7Y1036D01*
X1878Y1036D02*
X1885Y1036D01*
X0Y1035D02*
X7Y1035D01*
X1878Y1035D02*
X1885Y1035D01*
X0Y1034D02*
X7Y1034D01*
X1878Y1034D02*
X1885Y1034D01*
X0Y1033D02*
X7Y1033D01*
X1878Y1033D02*
X1885Y1033D01*
X0Y1032D02*
X7Y1032D01*
X1878Y1032D02*
X1885Y1032D01*
X0Y1031D02*
X7Y1031D01*
X1878Y1031D02*
X1885Y1031D01*
X0Y1030D02*
X7Y1030D01*
X1878Y1030D02*
X1885Y1030D01*
X0Y1029D02*
X7Y1029D01*
X1878Y1029D02*
X1885Y1029D01*
X0Y1028D02*
X7Y1028D01*
X1878Y1028D02*
X1885Y1028D01*
X0Y1027D02*
X7Y1027D01*
X1878Y1027D02*
X1885Y1027D01*
X0Y1026D02*
X7Y1026D01*
X1878Y1026D02*
X1885Y1026D01*
X0Y1025D02*
X7Y1025D01*
X1878Y1025D02*
X1885Y1025D01*
X0Y1024D02*
X7Y1024D01*
X1878Y1024D02*
X1885Y1024D01*
X0Y1023D02*
X7Y1023D01*
X1878Y1023D02*
X1885Y1023D01*
X0Y1022D02*
X7Y1022D01*
X1878Y1022D02*
X1885Y1022D01*
X0Y1021D02*
X7Y1021D01*
X1878Y1021D02*
X1885Y1021D01*
X0Y1020D02*
X7Y1020D01*
X1878Y1020D02*
X1885Y1020D01*
X0Y1019D02*
X7Y1019D01*
X1878Y1019D02*
X1885Y1019D01*
X0Y1018D02*
X7Y1018D01*
X1878Y1018D02*
X1885Y1018D01*
X0Y1017D02*
X7Y1017D01*
X1878Y1017D02*
X1885Y1017D01*
X0Y1016D02*
X7Y1016D01*
X1878Y1016D02*
X1885Y1016D01*
X0Y1015D02*
X7Y1015D01*
X1878Y1015D02*
X1885Y1015D01*
X0Y1014D02*
X7Y1014D01*
X1878Y1014D02*
X1885Y1014D01*
X0Y1013D02*
X7Y1013D01*
X1878Y1013D02*
X1885Y1013D01*
X0Y1012D02*
X7Y1012D01*
X1878Y1012D02*
X1885Y1012D01*
X0Y1011D02*
X7Y1011D01*
X1878Y1011D02*
X1885Y1011D01*
X0Y1010D02*
X7Y1010D01*
X1878Y1010D02*
X1885Y1010D01*
X0Y1009D02*
X7Y1009D01*
X1878Y1009D02*
X1885Y1009D01*
X0Y1008D02*
X7Y1008D01*
X1878Y1008D02*
X1885Y1008D01*
X0Y1007D02*
X7Y1007D01*
X1878Y1007D02*
X1885Y1007D01*
X0Y1006D02*
X7Y1006D01*
X1878Y1006D02*
X1885Y1006D01*
X0Y1005D02*
X7Y1005D01*
X1878Y1005D02*
X1885Y1005D01*
X0Y1004D02*
X7Y1004D01*
X1878Y1004D02*
X1885Y1004D01*
X0Y1003D02*
X7Y1003D01*
X1878Y1003D02*
X1885Y1003D01*
X0Y1002D02*
X7Y1002D01*
X1878Y1002D02*
X1885Y1002D01*
X0Y1001D02*
X7Y1001D01*
X1878Y1001D02*
X1885Y1001D01*
X0Y1000D02*
X7Y1000D01*
X1878Y1000D02*
X1885Y1000D01*
X0Y999D02*
X7Y999D01*
X1878Y999D02*
X1885Y999D01*
X0Y998D02*
X7Y998D01*
X1878Y998D02*
X1885Y998D01*
X0Y997D02*
X7Y997D01*
X1878Y997D02*
X1885Y997D01*
X0Y996D02*
X7Y996D01*
X1878Y996D02*
X1885Y996D01*
X0Y995D02*
X7Y995D01*
X1878Y995D02*
X1885Y995D01*
X0Y994D02*
X7Y994D01*
X1878Y994D02*
X1885Y994D01*
X0Y993D02*
X7Y993D01*
X1878Y993D02*
X1885Y993D01*
X0Y992D02*
X7Y992D01*
X1878Y992D02*
X1885Y992D01*
X0Y991D02*
X7Y991D01*
X1878Y991D02*
X1885Y991D01*
X0Y990D02*
X7Y990D01*
X1878Y990D02*
X1885Y990D01*
X0Y989D02*
X7Y989D01*
X1878Y989D02*
X1885Y989D01*
X0Y988D02*
X7Y988D01*
X1878Y988D02*
X1885Y988D01*
X0Y987D02*
X7Y987D01*
X1878Y987D02*
X1885Y987D01*
X0Y986D02*
X7Y986D01*
X1878Y986D02*
X1885Y986D01*
X0Y985D02*
X7Y985D01*
X1878Y985D02*
X1885Y985D01*
X0Y984D02*
X7Y984D01*
X1878Y984D02*
X1885Y984D01*
X0Y983D02*
X7Y983D01*
X1878Y983D02*
X1885Y983D01*
X0Y982D02*
X7Y982D01*
X1878Y982D02*
X1885Y982D01*
X0Y981D02*
X7Y981D01*
X1878Y981D02*
X1885Y981D01*
X0Y980D02*
X7Y980D01*
X1878Y980D02*
X1885Y980D01*
X0Y979D02*
X7Y979D01*
X1878Y979D02*
X1885Y979D01*
X0Y978D02*
X7Y978D01*
X1878Y978D02*
X1885Y978D01*
X0Y977D02*
X7Y977D01*
X1878Y977D02*
X1885Y977D01*
X0Y976D02*
X7Y976D01*
X1878Y976D02*
X1885Y976D01*
X0Y975D02*
X7Y975D01*
X1878Y975D02*
X1885Y975D01*
X0Y974D02*
X7Y974D01*
X1878Y974D02*
X1885Y974D01*
X0Y973D02*
X7Y973D01*
X1878Y973D02*
X1885Y973D01*
X0Y972D02*
X7Y972D01*
X1878Y972D02*
X1885Y972D01*
X0Y971D02*
X7Y971D01*
X1878Y971D02*
X1885Y971D01*
X0Y970D02*
X7Y970D01*
X1878Y970D02*
X1885Y970D01*
X0Y969D02*
X7Y969D01*
X1878Y969D02*
X1885Y969D01*
X0Y968D02*
X7Y968D01*
X1878Y968D02*
X1885Y968D01*
X0Y967D02*
X7Y967D01*
X1878Y967D02*
X1885Y967D01*
X0Y966D02*
X7Y966D01*
X1878Y966D02*
X1885Y966D01*
X0Y965D02*
X7Y965D01*
X1878Y965D02*
X1885Y965D01*
X0Y964D02*
X7Y964D01*
X1878Y964D02*
X1885Y964D01*
X0Y963D02*
X7Y963D01*
X1878Y963D02*
X1885Y963D01*
X0Y962D02*
X7Y962D01*
X1878Y962D02*
X1885Y962D01*
X0Y961D02*
X7Y961D01*
X1878Y961D02*
X1885Y961D01*
X0Y960D02*
X7Y960D01*
X1878Y960D02*
X1885Y960D01*
X0Y959D02*
X7Y959D01*
X1878Y959D02*
X1885Y959D01*
X0Y958D02*
X7Y958D01*
X1878Y958D02*
X1885Y958D01*
X0Y957D02*
X7Y957D01*
X1878Y957D02*
X1885Y957D01*
X0Y956D02*
X7Y956D01*
X1878Y956D02*
X1885Y956D01*
X0Y955D02*
X7Y955D01*
X1878Y955D02*
X1885Y955D01*
X0Y954D02*
X7Y954D01*
X1878Y954D02*
X1885Y954D01*
X0Y953D02*
X7Y953D01*
X1878Y953D02*
X1885Y953D01*
X0Y952D02*
X7Y952D01*
X1878Y952D02*
X1885Y952D01*
X0Y951D02*
X7Y951D01*
X1878Y951D02*
X1885Y951D01*
X0Y950D02*
X7Y950D01*
X1878Y950D02*
X1885Y950D01*
X0Y949D02*
X7Y949D01*
X1878Y949D02*
X1885Y949D01*
X0Y948D02*
X7Y948D01*
X1878Y948D02*
X1885Y948D01*
X0Y947D02*
X7Y947D01*
X1878Y947D02*
X1885Y947D01*
X0Y946D02*
X7Y946D01*
X1878Y946D02*
X1885Y946D01*
X0Y945D02*
X7Y945D01*
X1878Y945D02*
X1885Y945D01*
X0Y944D02*
X7Y944D01*
X1878Y944D02*
X1885Y944D01*
X0Y943D02*
X7Y943D01*
X1878Y943D02*
X1885Y943D01*
X0Y942D02*
X7Y942D01*
X1878Y942D02*
X1885Y942D01*
X0Y941D02*
X7Y941D01*
X1878Y941D02*
X1885Y941D01*
X0Y940D02*
X7Y940D01*
X1878Y940D02*
X1885Y940D01*
X0Y939D02*
X7Y939D01*
X1878Y939D02*
X1885Y939D01*
X0Y938D02*
X7Y938D01*
X1878Y938D02*
X1885Y938D01*
X0Y937D02*
X7Y937D01*
X1878Y937D02*
X1885Y937D01*
X0Y936D02*
X7Y936D01*
X1878Y936D02*
X1885Y936D01*
X0Y935D02*
X7Y935D01*
X1878Y935D02*
X1885Y935D01*
X0Y934D02*
X7Y934D01*
X1878Y934D02*
X1885Y934D01*
X0Y933D02*
X7Y933D01*
X1878Y933D02*
X1885Y933D01*
X0Y932D02*
X7Y932D01*
X1878Y932D02*
X1885Y932D01*
X0Y931D02*
X7Y931D01*
X1878Y931D02*
X1885Y931D01*
X0Y930D02*
X7Y930D01*
X1878Y930D02*
X1885Y930D01*
X0Y929D02*
X7Y929D01*
X1878Y929D02*
X1885Y929D01*
X0Y928D02*
X7Y928D01*
X1878Y928D02*
X1885Y928D01*
X0Y927D02*
X7Y927D01*
X1878Y927D02*
X1885Y927D01*
X0Y926D02*
X7Y926D01*
X1878Y926D02*
X1885Y926D01*
X0Y925D02*
X7Y925D01*
X1878Y925D02*
X1885Y925D01*
X0Y924D02*
X7Y924D01*
X1878Y924D02*
X1885Y924D01*
X0Y923D02*
X7Y923D01*
X1878Y923D02*
X1885Y923D01*
X0Y922D02*
X7Y922D01*
X1878Y922D02*
X1885Y922D01*
X0Y921D02*
X7Y921D01*
X1878Y921D02*
X1885Y921D01*
X0Y920D02*
X7Y920D01*
X1878Y920D02*
X1885Y920D01*
X0Y919D02*
X7Y919D01*
X1878Y919D02*
X1885Y919D01*
X0Y918D02*
X7Y918D01*
X1878Y918D02*
X1885Y918D01*
X0Y917D02*
X7Y917D01*
X1878Y917D02*
X1885Y917D01*
X0Y916D02*
X7Y916D01*
X1878Y916D02*
X1885Y916D01*
X0Y915D02*
X7Y915D01*
X1878Y915D02*
X1885Y915D01*
X0Y914D02*
X7Y914D01*
X1878Y914D02*
X1885Y914D01*
X0Y913D02*
X7Y913D01*
X1878Y913D02*
X1885Y913D01*
X0Y912D02*
X7Y912D01*
X1878Y912D02*
X1885Y912D01*
X0Y911D02*
X7Y911D01*
X1878Y911D02*
X1885Y911D01*
X0Y910D02*
X7Y910D01*
X1878Y910D02*
X1885Y910D01*
X0Y909D02*
X7Y909D01*
X1878Y909D02*
X1885Y909D01*
X0Y908D02*
X7Y908D01*
X1878Y908D02*
X1885Y908D01*
X0Y907D02*
X7Y907D01*
X1878Y907D02*
X1885Y907D01*
X0Y906D02*
X7Y906D01*
X1878Y906D02*
X1885Y906D01*
X0Y905D02*
X7Y905D01*
X1878Y905D02*
X1885Y905D01*
X0Y904D02*
X7Y904D01*
X1878Y904D02*
X1885Y904D01*
X0Y903D02*
X7Y903D01*
X1878Y903D02*
X1885Y903D01*
X0Y902D02*
X7Y902D01*
X1878Y902D02*
X1885Y902D01*
X0Y901D02*
X7Y901D01*
X1878Y901D02*
X1885Y901D01*
X0Y900D02*
X7Y900D01*
X1878Y900D02*
X1885Y900D01*
X0Y899D02*
X7Y899D01*
X1878Y899D02*
X1885Y899D01*
X0Y898D02*
X7Y898D01*
X1878Y898D02*
X1885Y898D01*
X0Y897D02*
X7Y897D01*
X1878Y897D02*
X1885Y897D01*
X0Y896D02*
X7Y896D01*
X1878Y896D02*
X1885Y896D01*
X0Y895D02*
X7Y895D01*
X1878Y895D02*
X1885Y895D01*
X0Y894D02*
X7Y894D01*
X1878Y894D02*
X1885Y894D01*
X0Y893D02*
X7Y893D01*
X1878Y893D02*
X1885Y893D01*
X0Y892D02*
X7Y892D01*
X1878Y892D02*
X1885Y892D01*
X0Y891D02*
X7Y891D01*
X1878Y891D02*
X1885Y891D01*
X0Y890D02*
X7Y890D01*
X1878Y890D02*
X1885Y890D01*
X0Y889D02*
X7Y889D01*
X1878Y889D02*
X1885Y889D01*
X0Y888D02*
X7Y888D01*
X1878Y888D02*
X1885Y888D01*
X0Y887D02*
X7Y887D01*
X1878Y887D02*
X1885Y887D01*
X0Y886D02*
X7Y886D01*
X1878Y886D02*
X1885Y886D01*
X0Y885D02*
X7Y885D01*
X1878Y885D02*
X1885Y885D01*
X0Y884D02*
X7Y884D01*
X1878Y884D02*
X1885Y884D01*
X0Y883D02*
X7Y883D01*
X1878Y883D02*
X1885Y883D01*
X0Y882D02*
X7Y882D01*
X1878Y882D02*
X1885Y882D01*
X0Y881D02*
X7Y881D01*
X1878Y881D02*
X1885Y881D01*
X0Y880D02*
X7Y880D01*
X1878Y880D02*
X1885Y880D01*
X0Y879D02*
X7Y879D01*
X1878Y879D02*
X1885Y879D01*
X0Y878D02*
X7Y878D01*
X1878Y878D02*
X1885Y878D01*
X0Y877D02*
X7Y877D01*
X1878Y877D02*
X1885Y877D01*
X0Y876D02*
X7Y876D01*
X1878Y876D02*
X1885Y876D01*
X0Y875D02*
X7Y875D01*
X1878Y875D02*
X1885Y875D01*
X0Y874D02*
X7Y874D01*
X1878Y874D02*
X1885Y874D01*
X0Y873D02*
X7Y873D01*
X1878Y873D02*
X1885Y873D01*
X0Y872D02*
X7Y872D01*
X1878Y872D02*
X1885Y872D01*
X0Y871D02*
X7Y871D01*
X1878Y871D02*
X1885Y871D01*
X0Y870D02*
X7Y870D01*
X1878Y870D02*
X1885Y870D01*
X0Y869D02*
X7Y869D01*
X1878Y869D02*
X1885Y869D01*
X0Y868D02*
X7Y868D01*
X1878Y868D02*
X1885Y868D01*
X0Y867D02*
X7Y867D01*
X1878Y867D02*
X1885Y867D01*
X0Y866D02*
X7Y866D01*
X1878Y866D02*
X1885Y866D01*
X0Y865D02*
X7Y865D01*
X1878Y865D02*
X1885Y865D01*
X0Y864D02*
X7Y864D01*
X1878Y864D02*
X1885Y864D01*
X0Y863D02*
X7Y863D01*
X1878Y863D02*
X1885Y863D01*
X0Y862D02*
X7Y862D01*
X1878Y862D02*
X1885Y862D01*
X0Y861D02*
X7Y861D01*
X1878Y861D02*
X1885Y861D01*
X0Y860D02*
X7Y860D01*
X1878Y860D02*
X1885Y860D01*
X0Y859D02*
X7Y859D01*
X1878Y859D02*
X1885Y859D01*
X0Y858D02*
X7Y858D01*
X1878Y858D02*
X1885Y858D01*
X0Y857D02*
X7Y857D01*
X1878Y857D02*
X1885Y857D01*
X0Y856D02*
X7Y856D01*
X1878Y856D02*
X1885Y856D01*
X0Y855D02*
X7Y855D01*
X1878Y855D02*
X1885Y855D01*
X0Y854D02*
X7Y854D01*
X1878Y854D02*
X1885Y854D01*
X0Y853D02*
X7Y853D01*
X1878Y853D02*
X1885Y853D01*
X0Y852D02*
X7Y852D01*
X1878Y852D02*
X1885Y852D01*
X0Y851D02*
X7Y851D01*
X1878Y851D02*
X1885Y851D01*
X0Y850D02*
X7Y850D01*
X1878Y850D02*
X1885Y850D01*
X0Y849D02*
X7Y849D01*
X1878Y849D02*
X1885Y849D01*
X0Y848D02*
X7Y848D01*
X1878Y848D02*
X1885Y848D01*
X0Y847D02*
X7Y847D01*
X1878Y847D02*
X1885Y847D01*
X0Y846D02*
X7Y846D01*
X1878Y846D02*
X1885Y846D01*
X0Y845D02*
X7Y845D01*
X1878Y845D02*
X1885Y845D01*
X0Y844D02*
X7Y844D01*
X1878Y844D02*
X1885Y844D01*
X0Y843D02*
X7Y843D01*
X1878Y843D02*
X1885Y843D01*
X0Y842D02*
X7Y842D01*
X1878Y842D02*
X1885Y842D01*
X0Y841D02*
X7Y841D01*
X1878Y841D02*
X1885Y841D01*
X0Y840D02*
X7Y840D01*
X1878Y840D02*
X1885Y840D01*
X0Y839D02*
X7Y839D01*
X1878Y839D02*
X1885Y839D01*
X0Y838D02*
X7Y838D01*
X1878Y838D02*
X1885Y838D01*
X0Y837D02*
X7Y837D01*
X1878Y837D02*
X1885Y837D01*
X0Y836D02*
X7Y836D01*
X1878Y836D02*
X1885Y836D01*
X0Y835D02*
X7Y835D01*
X1878Y835D02*
X1885Y835D01*
X0Y834D02*
X7Y834D01*
X1878Y834D02*
X1885Y834D01*
X0Y833D02*
X7Y833D01*
X1878Y833D02*
X1885Y833D01*
X0Y832D02*
X7Y832D01*
X1878Y832D02*
X1885Y832D01*
X0Y831D02*
X7Y831D01*
X1878Y831D02*
X1885Y831D01*
X0Y830D02*
X7Y830D01*
X1878Y830D02*
X1885Y830D01*
X0Y829D02*
X7Y829D01*
X1878Y829D02*
X1885Y829D01*
X0Y828D02*
X7Y828D01*
X1878Y828D02*
X1885Y828D01*
X0Y827D02*
X7Y827D01*
X1878Y827D02*
X1885Y827D01*
X0Y826D02*
X7Y826D01*
X1878Y826D02*
X1885Y826D01*
X0Y825D02*
X7Y825D01*
X1878Y825D02*
X1885Y825D01*
X0Y824D02*
X7Y824D01*
X1878Y824D02*
X1885Y824D01*
X0Y823D02*
X7Y823D01*
X1878Y823D02*
X1885Y823D01*
X0Y822D02*
X7Y822D01*
X1878Y822D02*
X1885Y822D01*
X0Y821D02*
X7Y821D01*
X1878Y821D02*
X1885Y821D01*
X0Y820D02*
X7Y820D01*
X1878Y820D02*
X1885Y820D01*
X0Y819D02*
X7Y819D01*
X1878Y819D02*
X1885Y819D01*
X0Y818D02*
X7Y818D01*
X1878Y818D02*
X1885Y818D01*
X0Y817D02*
X7Y817D01*
X1878Y817D02*
X1885Y817D01*
X0Y816D02*
X7Y816D01*
X1878Y816D02*
X1885Y816D01*
X0Y815D02*
X7Y815D01*
X1878Y815D02*
X1885Y815D01*
X0Y814D02*
X7Y814D01*
X1878Y814D02*
X1885Y814D01*
X0Y813D02*
X7Y813D01*
X1878Y813D02*
X1885Y813D01*
X0Y812D02*
X7Y812D01*
X1878Y812D02*
X1885Y812D01*
X0Y811D02*
X7Y811D01*
X1878Y811D02*
X1885Y811D01*
X0Y810D02*
X7Y810D01*
X1878Y810D02*
X1885Y810D01*
X0Y809D02*
X7Y809D01*
X1878Y809D02*
X1885Y809D01*
X0Y808D02*
X7Y808D01*
X1878Y808D02*
X1885Y808D01*
X0Y807D02*
X7Y807D01*
X1878Y807D02*
X1885Y807D01*
X0Y806D02*
X7Y806D01*
X1878Y806D02*
X1885Y806D01*
X0Y805D02*
X7Y805D01*
X1878Y805D02*
X1885Y805D01*
X0Y804D02*
X7Y804D01*
X1878Y804D02*
X1885Y804D01*
X0Y803D02*
X7Y803D01*
X1878Y803D02*
X1885Y803D01*
X0Y802D02*
X7Y802D01*
X1878Y802D02*
X1885Y802D01*
X0Y801D02*
X7Y801D01*
X1878Y801D02*
X1885Y801D01*
X0Y800D02*
X7Y800D01*
X1878Y800D02*
X1885Y800D01*
X0Y799D02*
X7Y799D01*
X1878Y799D02*
X1885Y799D01*
X0Y798D02*
X7Y798D01*
X1878Y798D02*
X1885Y798D01*
X0Y797D02*
X7Y797D01*
X1878Y797D02*
X1885Y797D01*
X0Y796D02*
X7Y796D01*
X1878Y796D02*
X1885Y796D01*
X0Y795D02*
X7Y795D01*
X1878Y795D02*
X1885Y795D01*
X0Y794D02*
X7Y794D01*
X1878Y794D02*
X1885Y794D01*
X0Y793D02*
X7Y793D01*
X1878Y793D02*
X1885Y793D01*
X0Y792D02*
X7Y792D01*
X1878Y792D02*
X1885Y792D01*
X0Y791D02*
X7Y791D01*
X1878Y791D02*
X1885Y791D01*
X0Y790D02*
X7Y790D01*
X1878Y790D02*
X1885Y790D01*
X0Y789D02*
X7Y789D01*
X1878Y789D02*
X1885Y789D01*
X0Y788D02*
X7Y788D01*
X1878Y788D02*
X1885Y788D01*
X0Y787D02*
X7Y787D01*
X1878Y787D02*
X1885Y787D01*
X0Y786D02*
X7Y786D01*
X1878Y786D02*
X1885Y786D01*
X0Y785D02*
X7Y785D01*
X1878Y785D02*
X1885Y785D01*
X0Y784D02*
X7Y784D01*
X1878Y784D02*
X1885Y784D01*
X0Y783D02*
X7Y783D01*
X1878Y783D02*
X1885Y783D01*
X0Y782D02*
X7Y782D01*
X1878Y782D02*
X1885Y782D01*
X0Y781D02*
X7Y781D01*
X1878Y781D02*
X1885Y781D01*
X0Y780D02*
X7Y780D01*
X1878Y780D02*
X1885Y780D01*
X0Y779D02*
X7Y779D01*
X1878Y779D02*
X1885Y779D01*
X0Y778D02*
X7Y778D01*
X1878Y778D02*
X1885Y778D01*
X0Y777D02*
X7Y777D01*
X1878Y777D02*
X1885Y777D01*
X0Y776D02*
X7Y776D01*
X1878Y776D02*
X1885Y776D01*
X0Y775D02*
X7Y775D01*
X1878Y775D02*
X1885Y775D01*
X0Y774D02*
X7Y774D01*
X1878Y774D02*
X1885Y774D01*
X0Y773D02*
X7Y773D01*
X1878Y773D02*
X1885Y773D01*
X0Y772D02*
X7Y772D01*
X1878Y772D02*
X1885Y772D01*
X0Y771D02*
X7Y771D01*
X1878Y771D02*
X1885Y771D01*
X0Y770D02*
X7Y770D01*
X1878Y770D02*
X1885Y770D01*
X0Y769D02*
X7Y769D01*
X1878Y769D02*
X1885Y769D01*
X0Y768D02*
X7Y768D01*
X1878Y768D02*
X1885Y768D01*
X0Y767D02*
X7Y767D01*
X1878Y767D02*
X1885Y767D01*
X0Y766D02*
X7Y766D01*
X1878Y766D02*
X1885Y766D01*
X0Y765D02*
X7Y765D01*
X1878Y765D02*
X1885Y765D01*
X0Y764D02*
X7Y764D01*
X1878Y764D02*
X1885Y764D01*
X0Y763D02*
X7Y763D01*
X1878Y763D02*
X1885Y763D01*
X0Y762D02*
X7Y762D01*
X1878Y762D02*
X1885Y762D01*
X0Y761D02*
X7Y761D01*
X1878Y761D02*
X1885Y761D01*
X0Y760D02*
X7Y760D01*
X1878Y760D02*
X1885Y760D01*
X0Y759D02*
X7Y759D01*
X1878Y759D02*
X1885Y759D01*
X0Y758D02*
X7Y758D01*
X1878Y758D02*
X1885Y758D01*
X0Y757D02*
X7Y757D01*
X1878Y757D02*
X1885Y757D01*
X0Y756D02*
X7Y756D01*
X1878Y756D02*
X1885Y756D01*
X0Y755D02*
X7Y755D01*
X1878Y755D02*
X1885Y755D01*
X0Y754D02*
X7Y754D01*
X1878Y754D02*
X1885Y754D01*
X0Y753D02*
X7Y753D01*
X1878Y753D02*
X1885Y753D01*
X0Y752D02*
X7Y752D01*
X1878Y752D02*
X1885Y752D01*
X0Y751D02*
X7Y751D01*
X1878Y751D02*
X1885Y751D01*
X0Y750D02*
X7Y750D01*
X1878Y750D02*
X1885Y750D01*
X0Y749D02*
X7Y749D01*
X1878Y749D02*
X1885Y749D01*
X0Y748D02*
X7Y748D01*
X1878Y748D02*
X1885Y748D01*
X0Y747D02*
X7Y747D01*
X1878Y747D02*
X1885Y747D01*
X0Y746D02*
X7Y746D01*
X1878Y746D02*
X1885Y746D01*
X0Y745D02*
X7Y745D01*
X1878Y745D02*
X1885Y745D01*
X0Y744D02*
X7Y744D01*
X1878Y744D02*
X1885Y744D01*
X0Y743D02*
X7Y743D01*
X1878Y743D02*
X1885Y743D01*
X0Y742D02*
X7Y742D01*
X1878Y742D02*
X1885Y742D01*
X0Y741D02*
X7Y741D01*
X1878Y741D02*
X1885Y741D01*
X0Y740D02*
X7Y740D01*
X1878Y740D02*
X1885Y740D01*
X0Y739D02*
X7Y739D01*
X1878Y739D02*
X1885Y739D01*
X0Y738D02*
X7Y738D01*
X1878Y738D02*
X1885Y738D01*
X0Y737D02*
X7Y737D01*
X1878Y737D02*
X1885Y737D01*
X0Y736D02*
X7Y736D01*
X1878Y736D02*
X1885Y736D01*
X0Y735D02*
X7Y735D01*
X1878Y735D02*
X1885Y735D01*
X0Y734D02*
X7Y734D01*
X1878Y734D02*
X1885Y734D01*
X0Y733D02*
X7Y733D01*
X1878Y733D02*
X1885Y733D01*
X0Y732D02*
X7Y732D01*
X1878Y732D02*
X1885Y732D01*
X0Y731D02*
X7Y731D01*
X1878Y731D02*
X1885Y731D01*
X0Y730D02*
X7Y730D01*
X1878Y730D02*
X1885Y730D01*
X0Y729D02*
X7Y729D01*
X1878Y729D02*
X1885Y729D01*
X0Y728D02*
X7Y728D01*
X1878Y728D02*
X1885Y728D01*
X0Y727D02*
X7Y727D01*
X1878Y727D02*
X1885Y727D01*
X0Y726D02*
X7Y726D01*
X1878Y726D02*
X1885Y726D01*
X0Y725D02*
X7Y725D01*
X1878Y725D02*
X1885Y725D01*
X0Y724D02*
X7Y724D01*
X1878Y724D02*
X1885Y724D01*
X0Y723D02*
X7Y723D01*
X1878Y723D02*
X1885Y723D01*
X0Y722D02*
X7Y722D01*
X1878Y722D02*
X1885Y722D01*
X0Y721D02*
X7Y721D01*
X1878Y721D02*
X1885Y721D01*
X0Y720D02*
X7Y720D01*
X1878Y720D02*
X1885Y720D01*
X0Y719D02*
X7Y719D01*
X1878Y719D02*
X1885Y719D01*
X0Y718D02*
X7Y718D01*
X1878Y718D02*
X1885Y718D01*
X0Y717D02*
X7Y717D01*
X1878Y717D02*
X1885Y717D01*
X0Y716D02*
X7Y716D01*
X1878Y716D02*
X1885Y716D01*
X0Y715D02*
X7Y715D01*
X1878Y715D02*
X1885Y715D01*
X0Y714D02*
X7Y714D01*
X1878Y714D02*
X1885Y714D01*
X0Y713D02*
X7Y713D01*
X1878Y713D02*
X1885Y713D01*
X0Y712D02*
X7Y712D01*
X1878Y712D02*
X1885Y712D01*
X0Y711D02*
X7Y711D01*
X1878Y711D02*
X1885Y711D01*
X0Y710D02*
X7Y710D01*
X1878Y710D02*
X1885Y710D01*
X0Y709D02*
X7Y709D01*
X1878Y709D02*
X1885Y709D01*
X0Y708D02*
X7Y708D01*
X1878Y708D02*
X1885Y708D01*
X0Y707D02*
X7Y707D01*
X1878Y707D02*
X1885Y707D01*
X0Y706D02*
X7Y706D01*
X1878Y706D02*
X1885Y706D01*
X0Y705D02*
X7Y705D01*
X1878Y705D02*
X1885Y705D01*
X0Y704D02*
X7Y704D01*
X1878Y704D02*
X1885Y704D01*
X0Y703D02*
X7Y703D01*
X1878Y703D02*
X1885Y703D01*
X0Y702D02*
X7Y702D01*
X1878Y702D02*
X1885Y702D01*
X0Y701D02*
X7Y701D01*
X1878Y701D02*
X1885Y701D01*
X0Y700D02*
X7Y700D01*
X1878Y700D02*
X1885Y700D01*
X0Y699D02*
X7Y699D01*
X1878Y699D02*
X1885Y699D01*
X0Y698D02*
X7Y698D01*
X1878Y698D02*
X1885Y698D01*
X0Y697D02*
X7Y697D01*
X1878Y697D02*
X1885Y697D01*
X0Y696D02*
X7Y696D01*
X1878Y696D02*
X1885Y696D01*
X0Y695D02*
X7Y695D01*
X1878Y695D02*
X1885Y695D01*
X0Y694D02*
X7Y694D01*
X1878Y694D02*
X1885Y694D01*
X0Y693D02*
X7Y693D01*
X1878Y693D02*
X1885Y693D01*
X0Y692D02*
X7Y692D01*
X1878Y692D02*
X1885Y692D01*
X0Y691D02*
X7Y691D01*
X1878Y691D02*
X1885Y691D01*
X0Y690D02*
X7Y690D01*
X1878Y690D02*
X1885Y690D01*
X0Y689D02*
X7Y689D01*
X1878Y689D02*
X1885Y689D01*
X0Y688D02*
X7Y688D01*
X1878Y688D02*
X1885Y688D01*
X0Y687D02*
X7Y687D01*
X1878Y687D02*
X1885Y687D01*
X0Y686D02*
X7Y686D01*
X1878Y686D02*
X1885Y686D01*
X0Y685D02*
X7Y685D01*
X1878Y685D02*
X1885Y685D01*
X0Y684D02*
X7Y684D01*
X1878Y684D02*
X1885Y684D01*
X0Y683D02*
X7Y683D01*
X1878Y683D02*
X1885Y683D01*
X0Y682D02*
X7Y682D01*
X1878Y682D02*
X1885Y682D01*
X0Y681D02*
X7Y681D01*
X1878Y681D02*
X1885Y681D01*
X0Y680D02*
X7Y680D01*
X1878Y680D02*
X1885Y680D01*
X0Y679D02*
X7Y679D01*
X1878Y679D02*
X1885Y679D01*
X0Y678D02*
X7Y678D01*
X1878Y678D02*
X1885Y678D01*
X0Y677D02*
X7Y677D01*
X1878Y677D02*
X1885Y677D01*
X0Y676D02*
X7Y676D01*
X1878Y676D02*
X1885Y676D01*
X0Y675D02*
X7Y675D01*
X1878Y675D02*
X1885Y675D01*
X0Y674D02*
X7Y674D01*
X1878Y674D02*
X1885Y674D01*
X0Y673D02*
X7Y673D01*
X1878Y673D02*
X1885Y673D01*
X0Y672D02*
X7Y672D01*
X1878Y672D02*
X1885Y672D01*
X0Y671D02*
X7Y671D01*
X1878Y671D02*
X1885Y671D01*
X0Y670D02*
X7Y670D01*
X1878Y670D02*
X1885Y670D01*
X0Y669D02*
X7Y669D01*
X1878Y669D02*
X1885Y669D01*
X0Y668D02*
X7Y668D01*
X1878Y668D02*
X1885Y668D01*
X0Y667D02*
X7Y667D01*
X1878Y667D02*
X1885Y667D01*
X0Y666D02*
X7Y666D01*
X1878Y666D02*
X1885Y666D01*
X0Y665D02*
X7Y665D01*
X1878Y665D02*
X1885Y665D01*
X0Y664D02*
X7Y664D01*
X1878Y664D02*
X1885Y664D01*
X0Y663D02*
X7Y663D01*
X1878Y663D02*
X1885Y663D01*
X0Y662D02*
X7Y662D01*
X1878Y662D02*
X1885Y662D01*
X0Y661D02*
X7Y661D01*
X1878Y661D02*
X1885Y661D01*
X0Y660D02*
X7Y660D01*
X1878Y660D02*
X1885Y660D01*
X0Y659D02*
X7Y659D01*
X1878Y659D02*
X1885Y659D01*
X0Y658D02*
X7Y658D01*
X1878Y658D02*
X1885Y658D01*
X0Y657D02*
X7Y657D01*
X1878Y657D02*
X1885Y657D01*
X0Y656D02*
X7Y656D01*
X1878Y656D02*
X1885Y656D01*
X0Y655D02*
X7Y655D01*
X1878Y655D02*
X1885Y655D01*
X0Y654D02*
X7Y654D01*
X1878Y654D02*
X1885Y654D01*
X0Y653D02*
X7Y653D01*
X1878Y653D02*
X1885Y653D01*
X0Y652D02*
X7Y652D01*
X1878Y652D02*
X1885Y652D01*
X0Y651D02*
X7Y651D01*
X1878Y651D02*
X1885Y651D01*
X0Y650D02*
X7Y650D01*
X1878Y650D02*
X1885Y650D01*
X0Y649D02*
X7Y649D01*
X1878Y649D02*
X1885Y649D01*
X0Y648D02*
X7Y648D01*
X1878Y648D02*
X1885Y648D01*
X0Y647D02*
X7Y647D01*
X1878Y647D02*
X1885Y647D01*
X0Y646D02*
X7Y646D01*
X1878Y646D02*
X1885Y646D01*
X0Y645D02*
X7Y645D01*
X1878Y645D02*
X1885Y645D01*
X0Y644D02*
X7Y644D01*
X1878Y644D02*
X1885Y644D01*
X0Y643D02*
X7Y643D01*
X1878Y643D02*
X1885Y643D01*
X0Y642D02*
X7Y642D01*
X1878Y642D02*
X1885Y642D01*
X0Y641D02*
X7Y641D01*
X1878Y641D02*
X1885Y641D01*
X0Y640D02*
X7Y640D01*
X1878Y640D02*
X1885Y640D01*
X0Y639D02*
X7Y639D01*
X1878Y639D02*
X1885Y639D01*
X0Y638D02*
X7Y638D01*
X1878Y638D02*
X1885Y638D01*
X0Y637D02*
X7Y637D01*
X1878Y637D02*
X1885Y637D01*
X0Y636D02*
X7Y636D01*
X1878Y636D02*
X1885Y636D01*
X0Y635D02*
X7Y635D01*
X1878Y635D02*
X1885Y635D01*
X0Y634D02*
X7Y634D01*
X1878Y634D02*
X1885Y634D01*
X0Y633D02*
X7Y633D01*
X1878Y633D02*
X1885Y633D01*
X0Y632D02*
X7Y632D01*
X1878Y632D02*
X1885Y632D01*
X0Y631D02*
X7Y631D01*
X1878Y631D02*
X1885Y631D01*
X0Y630D02*
X7Y630D01*
X1878Y630D02*
X1885Y630D01*
X0Y629D02*
X7Y629D01*
X1878Y629D02*
X1885Y629D01*
X0Y628D02*
X7Y628D01*
X1878Y628D02*
X1885Y628D01*
X0Y627D02*
X7Y627D01*
X1878Y627D02*
X1885Y627D01*
X0Y626D02*
X7Y626D01*
X1878Y626D02*
X1885Y626D01*
X0Y625D02*
X7Y625D01*
X1878Y625D02*
X1885Y625D01*
X0Y624D02*
X7Y624D01*
X1878Y624D02*
X1885Y624D01*
X0Y623D02*
X7Y623D01*
X1878Y623D02*
X1885Y623D01*
X0Y622D02*
X7Y622D01*
X1878Y622D02*
X1885Y622D01*
X0Y621D02*
X7Y621D01*
X1878Y621D02*
X1885Y621D01*
X0Y620D02*
X7Y620D01*
X1878Y620D02*
X1885Y620D01*
X0Y619D02*
X7Y619D01*
X1878Y619D02*
X1885Y619D01*
X0Y618D02*
X7Y618D01*
X1878Y618D02*
X1885Y618D01*
X0Y617D02*
X7Y617D01*
X1878Y617D02*
X1885Y617D01*
X0Y616D02*
X7Y616D01*
X1878Y616D02*
X1885Y616D01*
X0Y615D02*
X7Y615D01*
X1878Y615D02*
X1885Y615D01*
X0Y614D02*
X7Y614D01*
X1878Y614D02*
X1885Y614D01*
X0Y613D02*
X7Y613D01*
X1878Y613D02*
X1885Y613D01*
X0Y612D02*
X7Y612D01*
X1878Y612D02*
X1885Y612D01*
X0Y611D02*
X7Y611D01*
X1878Y611D02*
X1885Y611D01*
X0Y610D02*
X7Y610D01*
X1878Y610D02*
X1885Y610D01*
X0Y609D02*
X7Y609D01*
X1878Y609D02*
X1885Y609D01*
X0Y608D02*
X7Y608D01*
X1878Y608D02*
X1885Y608D01*
X0Y607D02*
X7Y607D01*
X1878Y607D02*
X1885Y607D01*
X0Y606D02*
X7Y606D01*
X1878Y606D02*
X1885Y606D01*
X0Y605D02*
X7Y605D01*
X1878Y605D02*
X1885Y605D01*
X0Y604D02*
X7Y604D01*
X1878Y604D02*
X1885Y604D01*
X0Y603D02*
X7Y603D01*
X1878Y603D02*
X1885Y603D01*
X0Y602D02*
X7Y602D01*
X1878Y602D02*
X1885Y602D01*
X0Y601D02*
X7Y601D01*
X1878Y601D02*
X1885Y601D01*
X0Y600D02*
X7Y600D01*
X1878Y600D02*
X1885Y600D01*
X0Y599D02*
X7Y599D01*
X1878Y599D02*
X1885Y599D01*
X0Y598D02*
X7Y598D01*
X1878Y598D02*
X1885Y598D01*
X0Y597D02*
X7Y597D01*
X1878Y597D02*
X1885Y597D01*
X0Y596D02*
X7Y596D01*
X1878Y596D02*
X1885Y596D01*
X0Y595D02*
X7Y595D01*
X1878Y595D02*
X1885Y595D01*
X0Y594D02*
X7Y594D01*
X1878Y594D02*
X1885Y594D01*
X0Y593D02*
X7Y593D01*
X1878Y593D02*
X1885Y593D01*
X0Y592D02*
X7Y592D01*
X1878Y592D02*
X1885Y592D01*
X0Y591D02*
X7Y591D01*
X1878Y591D02*
X1885Y591D01*
X0Y590D02*
X7Y590D01*
X1878Y590D02*
X1885Y590D01*
X0Y589D02*
X7Y589D01*
X1878Y589D02*
X1885Y589D01*
X0Y588D02*
X7Y588D01*
X1878Y588D02*
X1885Y588D01*
X0Y587D02*
X7Y587D01*
X1878Y587D02*
X1885Y587D01*
X0Y586D02*
X7Y586D01*
X1878Y586D02*
X1885Y586D01*
X0Y585D02*
X7Y585D01*
X1878Y585D02*
X1885Y585D01*
X0Y584D02*
X7Y584D01*
X1878Y584D02*
X1885Y584D01*
X0Y583D02*
X7Y583D01*
X1878Y583D02*
X1885Y583D01*
X0Y582D02*
X7Y582D01*
X1878Y582D02*
X1885Y582D01*
X0Y581D02*
X7Y581D01*
X1878Y581D02*
X1885Y581D01*
X0Y580D02*
X7Y580D01*
X1878Y580D02*
X1885Y580D01*
X0Y579D02*
X7Y579D01*
X1878Y579D02*
X1885Y579D01*
X0Y578D02*
X7Y578D01*
X1878Y578D02*
X1885Y578D01*
X0Y577D02*
X7Y577D01*
X1878Y577D02*
X1885Y577D01*
X0Y576D02*
X7Y576D01*
X1878Y576D02*
X1885Y576D01*
X0Y575D02*
X7Y575D01*
X1878Y575D02*
X1885Y575D01*
X0Y574D02*
X7Y574D01*
X1878Y574D02*
X1885Y574D01*
X0Y573D02*
X7Y573D01*
X1878Y573D02*
X1885Y573D01*
X0Y572D02*
X7Y572D01*
X1878Y572D02*
X1885Y572D01*
X0Y571D02*
X7Y571D01*
X1878Y571D02*
X1885Y571D01*
X0Y570D02*
X7Y570D01*
X1878Y570D02*
X1885Y570D01*
X0Y569D02*
X7Y569D01*
X1878Y569D02*
X1885Y569D01*
X0Y568D02*
X7Y568D01*
X1878Y568D02*
X1885Y568D01*
X0Y567D02*
X7Y567D01*
X1878Y567D02*
X1885Y567D01*
X0Y566D02*
X7Y566D01*
X1878Y566D02*
X1885Y566D01*
X0Y565D02*
X7Y565D01*
X1878Y565D02*
X1885Y565D01*
X0Y564D02*
X7Y564D01*
X1878Y564D02*
X1885Y564D01*
X0Y563D02*
X7Y563D01*
X1878Y563D02*
X1885Y563D01*
X0Y562D02*
X7Y562D01*
X1878Y562D02*
X1885Y562D01*
X0Y561D02*
X7Y561D01*
X1878Y561D02*
X1885Y561D01*
X0Y560D02*
X7Y560D01*
X1878Y560D02*
X1885Y560D01*
X0Y559D02*
X7Y559D01*
X1878Y559D02*
X1885Y559D01*
X0Y558D02*
X7Y558D01*
X1878Y558D02*
X1885Y558D01*
X0Y557D02*
X7Y557D01*
X1878Y557D02*
X1885Y557D01*
X0Y556D02*
X7Y556D01*
X1878Y556D02*
X1885Y556D01*
X0Y555D02*
X7Y555D01*
X1878Y555D02*
X1885Y555D01*
X0Y554D02*
X7Y554D01*
X1878Y554D02*
X1885Y554D01*
X0Y553D02*
X7Y553D01*
X1878Y553D02*
X1885Y553D01*
X0Y552D02*
X7Y552D01*
X1878Y552D02*
X1885Y552D01*
X0Y551D02*
X7Y551D01*
X1878Y551D02*
X1885Y551D01*
X0Y550D02*
X7Y550D01*
X1878Y550D02*
X1885Y550D01*
X0Y549D02*
X7Y549D01*
X1878Y549D02*
X1885Y549D01*
X0Y548D02*
X7Y548D01*
X1878Y548D02*
X1885Y548D01*
X0Y547D02*
X7Y547D01*
X1878Y547D02*
X1885Y547D01*
X0Y546D02*
X7Y546D01*
X1878Y546D02*
X1885Y546D01*
X0Y545D02*
X7Y545D01*
X1878Y545D02*
X1885Y545D01*
X0Y544D02*
X7Y544D01*
X1878Y544D02*
X1885Y544D01*
X0Y543D02*
X7Y543D01*
X1878Y543D02*
X1885Y543D01*
X0Y542D02*
X7Y542D01*
X1878Y542D02*
X1885Y542D01*
X0Y541D02*
X7Y541D01*
X1878Y541D02*
X1885Y541D01*
X0Y540D02*
X7Y540D01*
X1878Y540D02*
X1885Y540D01*
X0Y539D02*
X7Y539D01*
X1878Y539D02*
X1885Y539D01*
X0Y538D02*
X7Y538D01*
X1878Y538D02*
X1885Y538D01*
X0Y537D02*
X7Y537D01*
X1878Y537D02*
X1885Y537D01*
X0Y536D02*
X7Y536D01*
X1878Y536D02*
X1885Y536D01*
X0Y535D02*
X7Y535D01*
X1878Y535D02*
X1885Y535D01*
X0Y534D02*
X7Y534D01*
X1878Y534D02*
X1885Y534D01*
X0Y533D02*
X7Y533D01*
X1878Y533D02*
X1885Y533D01*
X0Y532D02*
X7Y532D01*
X1878Y532D02*
X1885Y532D01*
X0Y531D02*
X7Y531D01*
X1878Y531D02*
X1885Y531D01*
X0Y530D02*
X7Y530D01*
X1878Y530D02*
X1885Y530D01*
X0Y529D02*
X7Y529D01*
X1878Y529D02*
X1885Y529D01*
X0Y528D02*
X7Y528D01*
X1878Y528D02*
X1885Y528D01*
X0Y527D02*
X7Y527D01*
X1878Y527D02*
X1885Y527D01*
X0Y526D02*
X7Y526D01*
X1878Y526D02*
X1885Y526D01*
X0Y525D02*
X7Y525D01*
X1878Y525D02*
X1885Y525D01*
X0Y524D02*
X7Y524D01*
X1878Y524D02*
X1885Y524D01*
X0Y523D02*
X7Y523D01*
X1878Y523D02*
X1885Y523D01*
X0Y522D02*
X7Y522D01*
X1878Y522D02*
X1885Y522D01*
X0Y521D02*
X7Y521D01*
X1878Y521D02*
X1885Y521D01*
X0Y520D02*
X7Y520D01*
X1878Y520D02*
X1885Y520D01*
X0Y519D02*
X7Y519D01*
X1878Y519D02*
X1885Y519D01*
X0Y518D02*
X7Y518D01*
X1878Y518D02*
X1885Y518D01*
X0Y517D02*
X7Y517D01*
X1878Y517D02*
X1885Y517D01*
X0Y516D02*
X7Y516D01*
X1878Y516D02*
X1885Y516D01*
X0Y515D02*
X7Y515D01*
X1878Y515D02*
X1885Y515D01*
X0Y514D02*
X7Y514D01*
X1878Y514D02*
X1885Y514D01*
X0Y513D02*
X7Y513D01*
X1878Y513D02*
X1885Y513D01*
X0Y512D02*
X7Y512D01*
X1878Y512D02*
X1885Y512D01*
X0Y511D02*
X7Y511D01*
X1878Y511D02*
X1885Y511D01*
X0Y510D02*
X7Y510D01*
X1878Y510D02*
X1885Y510D01*
X0Y509D02*
X7Y509D01*
X1878Y509D02*
X1885Y509D01*
X0Y508D02*
X7Y508D01*
X1878Y508D02*
X1885Y508D01*
X0Y507D02*
X7Y507D01*
X1878Y507D02*
X1885Y507D01*
X0Y506D02*
X7Y506D01*
X1878Y506D02*
X1885Y506D01*
X0Y505D02*
X7Y505D01*
X1878Y505D02*
X1885Y505D01*
X0Y504D02*
X7Y504D01*
X1878Y504D02*
X1885Y504D01*
X0Y503D02*
X7Y503D01*
X1878Y503D02*
X1885Y503D01*
X0Y502D02*
X7Y502D01*
X1878Y502D02*
X1885Y502D01*
X0Y501D02*
X7Y501D01*
X1878Y501D02*
X1885Y501D01*
X0Y500D02*
X7Y500D01*
X1878Y500D02*
X1885Y500D01*
X0Y499D02*
X7Y499D01*
X1878Y499D02*
X1885Y499D01*
X0Y498D02*
X7Y498D01*
X1878Y498D02*
X1885Y498D01*
X0Y497D02*
X7Y497D01*
X1878Y497D02*
X1885Y497D01*
X0Y496D02*
X7Y496D01*
X1878Y496D02*
X1885Y496D01*
X0Y495D02*
X7Y495D01*
X1878Y495D02*
X1885Y495D01*
X0Y494D02*
X7Y494D01*
X1878Y494D02*
X1885Y494D01*
X0Y493D02*
X7Y493D01*
X1878Y493D02*
X1885Y493D01*
X0Y492D02*
X7Y492D01*
X1878Y492D02*
X1885Y492D01*
X0Y491D02*
X7Y491D01*
X1878Y491D02*
X1885Y491D01*
X0Y490D02*
X7Y490D01*
X1878Y490D02*
X1885Y490D01*
X0Y489D02*
X7Y489D01*
X1878Y489D02*
X1885Y489D01*
X0Y488D02*
X7Y488D01*
X1878Y488D02*
X1885Y488D01*
X0Y487D02*
X7Y487D01*
X1878Y487D02*
X1885Y487D01*
X0Y486D02*
X7Y486D01*
X1878Y486D02*
X1885Y486D01*
X0Y485D02*
X7Y485D01*
X1878Y485D02*
X1885Y485D01*
X0Y484D02*
X7Y484D01*
X1878Y484D02*
X1885Y484D01*
X0Y483D02*
X7Y483D01*
X1878Y483D02*
X1885Y483D01*
X0Y482D02*
X7Y482D01*
X1878Y482D02*
X1885Y482D01*
X0Y481D02*
X7Y481D01*
X1878Y481D02*
X1885Y481D01*
X0Y480D02*
X7Y480D01*
X1878Y480D02*
X1885Y480D01*
X0Y479D02*
X7Y479D01*
X1878Y479D02*
X1885Y479D01*
X0Y478D02*
X7Y478D01*
X1878Y478D02*
X1885Y478D01*
X0Y477D02*
X7Y477D01*
X1878Y477D02*
X1885Y477D01*
X0Y476D02*
X7Y476D01*
X1878Y476D02*
X1885Y476D01*
X0Y475D02*
X7Y475D01*
X1878Y475D02*
X1885Y475D01*
X0Y474D02*
X7Y474D01*
X1878Y474D02*
X1885Y474D01*
X0Y473D02*
X7Y473D01*
X1878Y473D02*
X1885Y473D01*
X0Y472D02*
X7Y472D01*
X1878Y472D02*
X1885Y472D01*
X0Y471D02*
X7Y471D01*
X1878Y471D02*
X1885Y471D01*
X0Y470D02*
X7Y470D01*
X1878Y470D02*
X1885Y470D01*
X0Y469D02*
X7Y469D01*
X1878Y469D02*
X1885Y469D01*
X0Y468D02*
X7Y468D01*
X1878Y468D02*
X1885Y468D01*
X0Y467D02*
X7Y467D01*
X1878Y467D02*
X1885Y467D01*
X0Y466D02*
X7Y466D01*
X1878Y466D02*
X1885Y466D01*
X0Y465D02*
X7Y465D01*
X1878Y465D02*
X1885Y465D01*
X0Y464D02*
X7Y464D01*
X1878Y464D02*
X1885Y464D01*
X0Y463D02*
X7Y463D01*
X1878Y463D02*
X1885Y463D01*
X0Y462D02*
X7Y462D01*
X1878Y462D02*
X1885Y462D01*
X0Y461D02*
X7Y461D01*
X1878Y461D02*
X1885Y461D01*
X0Y460D02*
X7Y460D01*
X1878Y460D02*
X1885Y460D01*
X0Y459D02*
X7Y459D01*
X1878Y459D02*
X1885Y459D01*
X0Y458D02*
X7Y458D01*
X1878Y458D02*
X1885Y458D01*
X0Y457D02*
X7Y457D01*
X1878Y457D02*
X1885Y457D01*
X0Y456D02*
X7Y456D01*
X1878Y456D02*
X1885Y456D01*
X0Y455D02*
X7Y455D01*
X1878Y455D02*
X1885Y455D01*
X0Y454D02*
X7Y454D01*
X1878Y454D02*
X1885Y454D01*
X0Y453D02*
X7Y453D01*
X1878Y453D02*
X1885Y453D01*
X0Y452D02*
X7Y452D01*
X1878Y452D02*
X1885Y452D01*
X0Y451D02*
X7Y451D01*
X1878Y451D02*
X1885Y451D01*
X0Y450D02*
X7Y450D01*
X1878Y450D02*
X1885Y450D01*
X0Y449D02*
X7Y449D01*
X1878Y449D02*
X1885Y449D01*
X0Y448D02*
X7Y448D01*
X1878Y448D02*
X1885Y448D01*
X0Y447D02*
X7Y447D01*
X1878Y447D02*
X1885Y447D01*
X0Y446D02*
X7Y446D01*
X1878Y446D02*
X1885Y446D01*
X0Y445D02*
X7Y445D01*
X1878Y445D02*
X1885Y445D01*
X0Y444D02*
X7Y444D01*
X1878Y444D02*
X1885Y444D01*
X0Y443D02*
X7Y443D01*
X1878Y443D02*
X1885Y443D01*
X0Y442D02*
X7Y442D01*
X1878Y442D02*
X1885Y442D01*
X0Y441D02*
X7Y441D01*
X1878Y441D02*
X1885Y441D01*
X0Y440D02*
X7Y440D01*
X1878Y440D02*
X1885Y440D01*
X0Y439D02*
X7Y439D01*
X1878Y439D02*
X1885Y439D01*
X0Y438D02*
X7Y438D01*
X1878Y438D02*
X1885Y438D01*
X0Y437D02*
X7Y437D01*
X1878Y437D02*
X1885Y437D01*
X0Y436D02*
X7Y436D01*
X1878Y436D02*
X1885Y436D01*
X0Y435D02*
X7Y435D01*
X1878Y435D02*
X1885Y435D01*
X0Y434D02*
X7Y434D01*
X1878Y434D02*
X1885Y434D01*
X0Y433D02*
X7Y433D01*
X1878Y433D02*
X1885Y433D01*
X0Y432D02*
X7Y432D01*
X1878Y432D02*
X1885Y432D01*
X0Y431D02*
X7Y431D01*
X1878Y431D02*
X1885Y431D01*
X0Y430D02*
X7Y430D01*
X1878Y430D02*
X1885Y430D01*
X0Y429D02*
X7Y429D01*
X1878Y429D02*
X1885Y429D01*
X0Y428D02*
X7Y428D01*
X1878Y428D02*
X1885Y428D01*
X0Y427D02*
X7Y427D01*
X1878Y427D02*
X1885Y427D01*
X0Y426D02*
X7Y426D01*
X1878Y426D02*
X1885Y426D01*
X0Y425D02*
X7Y425D01*
X1878Y425D02*
X1885Y425D01*
X0Y424D02*
X7Y424D01*
X1878Y424D02*
X1885Y424D01*
X0Y423D02*
X7Y423D01*
X1878Y423D02*
X1885Y423D01*
X0Y422D02*
X7Y422D01*
X1878Y422D02*
X1885Y422D01*
X0Y421D02*
X7Y421D01*
X1878Y421D02*
X1885Y421D01*
X0Y420D02*
X7Y420D01*
X1878Y420D02*
X1885Y420D01*
X0Y419D02*
X7Y419D01*
X1878Y419D02*
X1885Y419D01*
X0Y418D02*
X7Y418D01*
X1878Y418D02*
X1885Y418D01*
X0Y417D02*
X7Y417D01*
X1878Y417D02*
X1885Y417D01*
X0Y416D02*
X7Y416D01*
X1878Y416D02*
X1885Y416D01*
X0Y415D02*
X7Y415D01*
X1878Y415D02*
X1885Y415D01*
X0Y414D02*
X7Y414D01*
X1878Y414D02*
X1885Y414D01*
X0Y413D02*
X7Y413D01*
X1878Y413D02*
X1885Y413D01*
X0Y412D02*
X7Y412D01*
X1878Y412D02*
X1885Y412D01*
X0Y411D02*
X7Y411D01*
X1878Y411D02*
X1885Y411D01*
X0Y410D02*
X7Y410D01*
X1878Y410D02*
X1885Y410D01*
X0Y409D02*
X7Y409D01*
X1878Y409D02*
X1885Y409D01*
X0Y408D02*
X7Y408D01*
X1878Y408D02*
X1885Y408D01*
X0Y407D02*
X7Y407D01*
X1878Y407D02*
X1885Y407D01*
X0Y406D02*
X7Y406D01*
X1878Y406D02*
X1885Y406D01*
X0Y405D02*
X7Y405D01*
X1878Y405D02*
X1885Y405D01*
X0Y404D02*
X7Y404D01*
X1878Y404D02*
X1885Y404D01*
X0Y403D02*
X7Y403D01*
X1878Y403D02*
X1885Y403D01*
X0Y402D02*
X7Y402D01*
X1878Y402D02*
X1885Y402D01*
X0Y401D02*
X7Y401D01*
X1878Y401D02*
X1885Y401D01*
X0Y400D02*
X7Y400D01*
X1878Y400D02*
X1885Y400D01*
X0Y399D02*
X7Y399D01*
X1878Y399D02*
X1885Y399D01*
X0Y398D02*
X7Y398D01*
X1878Y398D02*
X1885Y398D01*
X0Y397D02*
X7Y397D01*
X1878Y397D02*
X1885Y397D01*
X0Y396D02*
X7Y396D01*
X1878Y396D02*
X1885Y396D01*
X0Y395D02*
X7Y395D01*
X1878Y395D02*
X1885Y395D01*
X0Y394D02*
X7Y394D01*
X1878Y394D02*
X1885Y394D01*
X0Y393D02*
X7Y393D01*
X1878Y393D02*
X1885Y393D01*
X0Y392D02*
X7Y392D01*
X1878Y392D02*
X1885Y392D01*
X0Y391D02*
X7Y391D01*
X1878Y391D02*
X1885Y391D01*
X0Y390D02*
X7Y390D01*
X1878Y390D02*
X1885Y390D01*
X0Y389D02*
X7Y389D01*
X1878Y389D02*
X1885Y389D01*
X0Y388D02*
X7Y388D01*
X1878Y388D02*
X1885Y388D01*
X0Y387D02*
X7Y387D01*
X1878Y387D02*
X1885Y387D01*
X0Y386D02*
X7Y386D01*
X1878Y386D02*
X1885Y386D01*
X0Y385D02*
X7Y385D01*
X1878Y385D02*
X1885Y385D01*
X0Y384D02*
X7Y384D01*
X1878Y384D02*
X1885Y384D01*
X0Y383D02*
X7Y383D01*
X1878Y383D02*
X1885Y383D01*
X0Y382D02*
X7Y382D01*
X1878Y382D02*
X1885Y382D01*
X0Y381D02*
X7Y381D01*
X1878Y381D02*
X1885Y381D01*
X0Y380D02*
X7Y380D01*
X1878Y380D02*
X1885Y380D01*
X0Y379D02*
X7Y379D01*
X1878Y379D02*
X1885Y379D01*
X0Y378D02*
X7Y378D01*
X1878Y378D02*
X1885Y378D01*
X0Y377D02*
X7Y377D01*
X1878Y377D02*
X1885Y377D01*
X0Y376D02*
X7Y376D01*
X1878Y376D02*
X1885Y376D01*
X0Y375D02*
X7Y375D01*
X1878Y375D02*
X1885Y375D01*
X0Y374D02*
X7Y374D01*
X1878Y374D02*
X1885Y374D01*
X0Y373D02*
X7Y373D01*
X1878Y373D02*
X1885Y373D01*
X0Y372D02*
X7Y372D01*
X1878Y372D02*
X1885Y372D01*
X0Y371D02*
X7Y371D01*
X1878Y371D02*
X1885Y371D01*
X0Y370D02*
X7Y370D01*
X1878Y370D02*
X1885Y370D01*
X0Y369D02*
X7Y369D01*
X1878Y369D02*
X1885Y369D01*
X0Y368D02*
X7Y368D01*
X1878Y368D02*
X1885Y368D01*
X0Y367D02*
X7Y367D01*
X1878Y367D02*
X1885Y367D01*
X0Y366D02*
X7Y366D01*
X1878Y366D02*
X1885Y366D01*
X0Y365D02*
X7Y365D01*
X1878Y365D02*
X1885Y365D01*
X0Y364D02*
X7Y364D01*
X1878Y364D02*
X1885Y364D01*
X0Y363D02*
X7Y363D01*
X1878Y363D02*
X1885Y363D01*
X0Y362D02*
X7Y362D01*
X1878Y362D02*
X1885Y362D01*
X0Y361D02*
X7Y361D01*
X1878Y361D02*
X1885Y361D01*
X0Y360D02*
X7Y360D01*
X1878Y360D02*
X1885Y360D01*
X0Y359D02*
X7Y359D01*
X1878Y359D02*
X1885Y359D01*
X0Y358D02*
X7Y358D01*
X1878Y358D02*
X1885Y358D01*
X0Y357D02*
X7Y357D01*
X1878Y357D02*
X1885Y357D01*
X0Y356D02*
X7Y356D01*
X1878Y356D02*
X1885Y356D01*
X0Y355D02*
X7Y355D01*
X1878Y355D02*
X1885Y355D01*
X0Y354D02*
X7Y354D01*
X1878Y354D02*
X1885Y354D01*
X0Y353D02*
X7Y353D01*
X1878Y353D02*
X1885Y353D01*
X0Y352D02*
X7Y352D01*
X1878Y352D02*
X1885Y352D01*
X0Y351D02*
X7Y351D01*
X1878Y351D02*
X1885Y351D01*
X0Y350D02*
X7Y350D01*
X1878Y350D02*
X1885Y350D01*
X0Y349D02*
X7Y349D01*
X1878Y349D02*
X1885Y349D01*
X0Y348D02*
X7Y348D01*
X1878Y348D02*
X1885Y348D01*
X0Y347D02*
X7Y347D01*
X1878Y347D02*
X1885Y347D01*
X0Y346D02*
X7Y346D01*
X1878Y346D02*
X1885Y346D01*
X0Y345D02*
X7Y345D01*
X1878Y345D02*
X1885Y345D01*
X0Y344D02*
X7Y344D01*
X1878Y344D02*
X1885Y344D01*
X0Y343D02*
X7Y343D01*
X1878Y343D02*
X1885Y343D01*
X0Y342D02*
X7Y342D01*
X1878Y342D02*
X1885Y342D01*
X0Y341D02*
X7Y341D01*
X1878Y341D02*
X1885Y341D01*
X0Y340D02*
X7Y340D01*
X1878Y340D02*
X1885Y340D01*
X0Y339D02*
X7Y339D01*
X1878Y339D02*
X1885Y339D01*
X0Y338D02*
X7Y338D01*
X1878Y338D02*
X1885Y338D01*
X0Y337D02*
X7Y337D01*
X1878Y337D02*
X1885Y337D01*
X0Y336D02*
X7Y336D01*
X1878Y336D02*
X1885Y336D01*
X0Y335D02*
X7Y335D01*
X1878Y335D02*
X1885Y335D01*
X0Y334D02*
X7Y334D01*
X1878Y334D02*
X1885Y334D01*
X0Y333D02*
X7Y333D01*
X1878Y333D02*
X1885Y333D01*
X0Y332D02*
X7Y332D01*
X1878Y332D02*
X1885Y332D01*
X0Y331D02*
X7Y331D01*
X1878Y331D02*
X1885Y331D01*
X0Y330D02*
X7Y330D01*
X1878Y330D02*
X1885Y330D01*
X0Y329D02*
X7Y329D01*
X1878Y329D02*
X1885Y329D01*
X0Y328D02*
X7Y328D01*
X1878Y328D02*
X1885Y328D01*
X0Y327D02*
X7Y327D01*
X1878Y327D02*
X1885Y327D01*
X0Y326D02*
X7Y326D01*
X1878Y326D02*
X1885Y326D01*
X0Y325D02*
X7Y325D01*
X1878Y325D02*
X1885Y325D01*
X0Y324D02*
X7Y324D01*
X1878Y324D02*
X1885Y324D01*
X0Y323D02*
X7Y323D01*
X1878Y323D02*
X1885Y323D01*
X0Y322D02*
X7Y322D01*
X1878Y322D02*
X1885Y322D01*
X0Y321D02*
X7Y321D01*
X1878Y321D02*
X1885Y321D01*
X0Y320D02*
X7Y320D01*
X1878Y320D02*
X1885Y320D01*
X0Y319D02*
X7Y319D01*
X1878Y319D02*
X1885Y319D01*
X0Y318D02*
X7Y318D01*
X1878Y318D02*
X1885Y318D01*
X0Y317D02*
X7Y317D01*
X1878Y317D02*
X1885Y317D01*
X0Y316D02*
X7Y316D01*
X1878Y316D02*
X1885Y316D01*
X0Y315D02*
X7Y315D01*
X1878Y315D02*
X1885Y315D01*
X0Y314D02*
X7Y314D01*
X1878Y314D02*
X1885Y314D01*
X0Y313D02*
X7Y313D01*
X1878Y313D02*
X1885Y313D01*
X0Y312D02*
X7Y312D01*
X1878Y312D02*
X1885Y312D01*
X0Y311D02*
X7Y311D01*
X1878Y311D02*
X1885Y311D01*
X0Y310D02*
X7Y310D01*
X1878Y310D02*
X1885Y310D01*
X0Y309D02*
X7Y309D01*
X1878Y309D02*
X1885Y309D01*
X0Y308D02*
X7Y308D01*
X1878Y308D02*
X1885Y308D01*
X0Y307D02*
X7Y307D01*
X1878Y307D02*
X1885Y307D01*
X0Y306D02*
X7Y306D01*
X1878Y306D02*
X1885Y306D01*
X0Y305D02*
X7Y305D01*
X1878Y305D02*
X1885Y305D01*
X0Y304D02*
X7Y304D01*
X1878Y304D02*
X1885Y304D01*
X0Y303D02*
X7Y303D01*
X1878Y303D02*
X1885Y303D01*
X0Y302D02*
X7Y302D01*
X1878Y302D02*
X1885Y302D01*
X0Y301D02*
X7Y301D01*
X1878Y301D02*
X1885Y301D01*
X0Y300D02*
X7Y300D01*
X1878Y300D02*
X1885Y300D01*
X0Y299D02*
X7Y299D01*
X1878Y299D02*
X1885Y299D01*
X0Y298D02*
X7Y298D01*
X1878Y298D02*
X1885Y298D01*
X0Y297D02*
X7Y297D01*
X1878Y297D02*
X1885Y297D01*
X0Y296D02*
X7Y296D01*
X1878Y296D02*
X1885Y296D01*
X0Y295D02*
X7Y295D01*
X1878Y295D02*
X1885Y295D01*
X0Y294D02*
X7Y294D01*
X1878Y294D02*
X1885Y294D01*
X0Y293D02*
X7Y293D01*
X1878Y293D02*
X1885Y293D01*
X0Y292D02*
X7Y292D01*
X1878Y292D02*
X1885Y292D01*
X0Y291D02*
X7Y291D01*
X1878Y291D02*
X1885Y291D01*
X0Y290D02*
X7Y290D01*
X1878Y290D02*
X1885Y290D01*
X0Y289D02*
X7Y289D01*
X1878Y289D02*
X1885Y289D01*
X0Y288D02*
X7Y288D01*
X1878Y288D02*
X1885Y288D01*
X0Y287D02*
X7Y287D01*
X1878Y287D02*
X1885Y287D01*
X0Y286D02*
X7Y286D01*
X1878Y286D02*
X1885Y286D01*
X0Y285D02*
X7Y285D01*
X1878Y285D02*
X1885Y285D01*
X0Y284D02*
X7Y284D01*
X1878Y284D02*
X1885Y284D01*
X0Y283D02*
X7Y283D01*
X1878Y283D02*
X1885Y283D01*
X0Y282D02*
X7Y282D01*
X1878Y282D02*
X1885Y282D01*
X0Y281D02*
X7Y281D01*
X1878Y281D02*
X1885Y281D01*
X0Y280D02*
X7Y280D01*
X1878Y280D02*
X1885Y280D01*
X0Y279D02*
X7Y279D01*
X1878Y279D02*
X1885Y279D01*
X0Y278D02*
X7Y278D01*
X1878Y278D02*
X1885Y278D01*
X0Y277D02*
X7Y277D01*
X1878Y277D02*
X1885Y277D01*
X0Y276D02*
X7Y276D01*
X1878Y276D02*
X1885Y276D01*
X0Y275D02*
X7Y275D01*
X1878Y275D02*
X1885Y275D01*
X0Y274D02*
X7Y274D01*
X1878Y274D02*
X1885Y274D01*
X0Y273D02*
X7Y273D01*
X1878Y273D02*
X1885Y273D01*
X0Y272D02*
X7Y272D01*
X1878Y272D02*
X1885Y272D01*
X0Y271D02*
X7Y271D01*
X1878Y271D02*
X1885Y271D01*
X0Y270D02*
X7Y270D01*
X1878Y270D02*
X1885Y270D01*
X0Y269D02*
X7Y269D01*
X1878Y269D02*
X1885Y269D01*
X0Y268D02*
X7Y268D01*
X1878Y268D02*
X1885Y268D01*
X0Y267D02*
X7Y267D01*
X1878Y267D02*
X1885Y267D01*
X0Y266D02*
X7Y266D01*
X1878Y266D02*
X1885Y266D01*
X0Y265D02*
X7Y265D01*
X1878Y265D02*
X1885Y265D01*
X0Y264D02*
X7Y264D01*
X1878Y264D02*
X1885Y264D01*
X0Y263D02*
X7Y263D01*
X1878Y263D02*
X1885Y263D01*
X0Y262D02*
X7Y262D01*
X1878Y262D02*
X1885Y262D01*
X0Y261D02*
X7Y261D01*
X1878Y261D02*
X1885Y261D01*
X0Y260D02*
X7Y260D01*
X1878Y260D02*
X1885Y260D01*
X0Y259D02*
X7Y259D01*
X1878Y259D02*
X1885Y259D01*
X0Y258D02*
X7Y258D01*
X1878Y258D02*
X1885Y258D01*
X0Y257D02*
X7Y257D01*
X1878Y257D02*
X1885Y257D01*
X0Y256D02*
X7Y256D01*
X1878Y256D02*
X1885Y256D01*
X0Y255D02*
X7Y255D01*
X1878Y255D02*
X1885Y255D01*
X0Y254D02*
X7Y254D01*
X1878Y254D02*
X1885Y254D01*
X0Y253D02*
X7Y253D01*
X1878Y253D02*
X1885Y253D01*
X0Y252D02*
X7Y252D01*
X1878Y252D02*
X1885Y252D01*
X0Y251D02*
X7Y251D01*
X1878Y251D02*
X1885Y251D01*
X0Y250D02*
X7Y250D01*
X1878Y250D02*
X1885Y250D01*
X0Y249D02*
X7Y249D01*
X1878Y249D02*
X1885Y249D01*
X0Y248D02*
X7Y248D01*
X1878Y248D02*
X1885Y248D01*
X0Y247D02*
X7Y247D01*
X1878Y247D02*
X1885Y247D01*
X0Y246D02*
X7Y246D01*
X1878Y246D02*
X1885Y246D01*
X0Y245D02*
X7Y245D01*
X1878Y245D02*
X1885Y245D01*
X0Y244D02*
X7Y244D01*
X1878Y244D02*
X1885Y244D01*
X0Y243D02*
X7Y243D01*
X1878Y243D02*
X1885Y243D01*
X0Y242D02*
X7Y242D01*
X1878Y242D02*
X1885Y242D01*
X0Y241D02*
X7Y241D01*
X1878Y241D02*
X1885Y241D01*
X0Y240D02*
X7Y240D01*
X1878Y240D02*
X1885Y240D01*
X0Y239D02*
X7Y239D01*
X1878Y239D02*
X1885Y239D01*
X0Y238D02*
X7Y238D01*
X1878Y238D02*
X1885Y238D01*
X0Y237D02*
X7Y237D01*
X1878Y237D02*
X1885Y237D01*
X0Y236D02*
X7Y236D01*
X1878Y236D02*
X1885Y236D01*
X0Y235D02*
X7Y235D01*
X1878Y235D02*
X1885Y235D01*
X0Y234D02*
X7Y234D01*
X1878Y234D02*
X1885Y234D01*
X0Y233D02*
X7Y233D01*
X1878Y233D02*
X1885Y233D01*
X0Y232D02*
X7Y232D01*
X1878Y232D02*
X1885Y232D01*
X0Y231D02*
X7Y231D01*
X1878Y231D02*
X1885Y231D01*
X0Y230D02*
X7Y230D01*
X1878Y230D02*
X1885Y230D01*
X0Y229D02*
X7Y229D01*
X1878Y229D02*
X1885Y229D01*
X0Y228D02*
X7Y228D01*
X1878Y228D02*
X1885Y228D01*
X0Y227D02*
X7Y227D01*
X1878Y227D02*
X1885Y227D01*
X0Y226D02*
X7Y226D01*
X1878Y226D02*
X1885Y226D01*
X0Y225D02*
X7Y225D01*
X1878Y225D02*
X1885Y225D01*
X0Y224D02*
X7Y224D01*
X1878Y224D02*
X1885Y224D01*
X0Y223D02*
X7Y223D01*
X1878Y223D02*
X1885Y223D01*
X0Y222D02*
X7Y222D01*
X1878Y222D02*
X1885Y222D01*
X0Y221D02*
X7Y221D01*
X1878Y221D02*
X1885Y221D01*
X0Y220D02*
X7Y220D01*
X1878Y220D02*
X1885Y220D01*
X0Y219D02*
X7Y219D01*
X1878Y219D02*
X1885Y219D01*
X0Y218D02*
X7Y218D01*
X1878Y218D02*
X1885Y218D01*
X0Y217D02*
X7Y217D01*
X1878Y217D02*
X1885Y217D01*
X0Y216D02*
X7Y216D01*
X1878Y216D02*
X1885Y216D01*
X0Y215D02*
X7Y215D01*
X1878Y215D02*
X1885Y215D01*
X0Y214D02*
X7Y214D01*
X1878Y214D02*
X1885Y214D01*
X0Y213D02*
X7Y213D01*
X1878Y213D02*
X1885Y213D01*
X0Y212D02*
X7Y212D01*
X1878Y212D02*
X1885Y212D01*
X0Y211D02*
X7Y211D01*
X1878Y211D02*
X1885Y211D01*
X0Y210D02*
X7Y210D01*
X1878Y210D02*
X1885Y210D01*
X0Y209D02*
X7Y209D01*
X1878Y209D02*
X1885Y209D01*
X0Y208D02*
X7Y208D01*
X1878Y208D02*
X1885Y208D01*
X0Y207D02*
X7Y207D01*
X1878Y207D02*
X1885Y207D01*
X0Y206D02*
X7Y206D01*
X1878Y206D02*
X1885Y206D01*
X0Y205D02*
X7Y205D01*
X1878Y205D02*
X1885Y205D01*
X0Y204D02*
X7Y204D01*
X1878Y204D02*
X1885Y204D01*
X0Y203D02*
X7Y203D01*
X1878Y203D02*
X1885Y203D01*
X0Y202D02*
X7Y202D01*
X1878Y202D02*
X1885Y202D01*
X0Y201D02*
X7Y201D01*
X1878Y201D02*
X1885Y201D01*
X0Y200D02*
X7Y200D01*
X1878Y200D02*
X1885Y200D01*
X0Y199D02*
X7Y199D01*
X1878Y199D02*
X1885Y199D01*
X0Y198D02*
X7Y198D01*
X1878Y198D02*
X1885Y198D01*
X0Y197D02*
X7Y197D01*
X1878Y197D02*
X1885Y197D01*
X0Y196D02*
X7Y196D01*
X1878Y196D02*
X1885Y196D01*
X0Y195D02*
X7Y195D01*
X1878Y195D02*
X1885Y195D01*
X0Y194D02*
X7Y194D01*
X1878Y194D02*
X1885Y194D01*
X0Y193D02*
X7Y193D01*
X1878Y193D02*
X1885Y193D01*
X0Y192D02*
X7Y192D01*
X1878Y192D02*
X1885Y192D01*
X0Y191D02*
X7Y191D01*
X1878Y191D02*
X1885Y191D01*
X0Y190D02*
X7Y190D01*
X1878Y190D02*
X1885Y190D01*
X0Y189D02*
X7Y189D01*
X1878Y189D02*
X1885Y189D01*
X0Y188D02*
X7Y188D01*
X1878Y188D02*
X1885Y188D01*
X0Y187D02*
X7Y187D01*
X1878Y187D02*
X1885Y187D01*
X0Y186D02*
X7Y186D01*
X1878Y186D02*
X1885Y186D01*
X0Y185D02*
X7Y185D01*
X1878Y185D02*
X1885Y185D01*
X0Y184D02*
X7Y184D01*
X1878Y184D02*
X1885Y184D01*
X0Y183D02*
X7Y183D01*
X1878Y183D02*
X1885Y183D01*
X0Y182D02*
X7Y182D01*
X1878Y182D02*
X1885Y182D01*
X0Y181D02*
X7Y181D01*
X1878Y181D02*
X1885Y181D01*
X0Y180D02*
X7Y180D01*
X1878Y180D02*
X1885Y180D01*
X0Y179D02*
X7Y179D01*
X1878Y179D02*
X1885Y179D01*
X0Y178D02*
X7Y178D01*
X1878Y178D02*
X1885Y178D01*
X0Y177D02*
X7Y177D01*
X1878Y177D02*
X1885Y177D01*
X0Y176D02*
X7Y176D01*
X1878Y176D02*
X1885Y176D01*
X0Y175D02*
X7Y175D01*
X1878Y175D02*
X1885Y175D01*
X0Y174D02*
X7Y174D01*
X1878Y174D02*
X1885Y174D01*
X0Y173D02*
X7Y173D01*
X1878Y173D02*
X1885Y173D01*
X0Y172D02*
X7Y172D01*
X1878Y172D02*
X1885Y172D01*
X0Y171D02*
X7Y171D01*
X1878Y171D02*
X1885Y171D01*
X0Y170D02*
X7Y170D01*
X1878Y170D02*
X1885Y170D01*
X0Y169D02*
X7Y169D01*
X1878Y169D02*
X1885Y169D01*
X0Y168D02*
X7Y168D01*
X169Y168D02*
X299Y168D01*
X340Y168D02*
X471Y168D01*
X1878Y168D02*
X1885Y168D01*
X0Y167D02*
X7Y167D01*
X167Y167D02*
X301Y167D01*
X338Y167D02*
X472Y167D01*
X1878Y167D02*
X1885Y167D01*
X0Y166D02*
X7Y166D01*
X166Y166D02*
X303Y166D01*
X336Y166D02*
X473Y166D01*
X1878Y166D02*
X1885Y166D01*
X0Y165D02*
X7Y165D01*
X166Y165D02*
X305Y165D01*
X334Y165D02*
X473Y165D01*
X1878Y165D02*
X1885Y165D01*
X0Y164D02*
X7Y164D01*
X166Y164D02*
X308Y164D01*
X331Y164D02*
X473Y164D01*
X1878Y164D02*
X1885Y164D01*
X0Y163D02*
X7Y163D01*
X166Y163D02*
X313Y163D01*
X326Y163D02*
X473Y163D01*
X1878Y163D02*
X1885Y163D01*
X0Y162D02*
X7Y162D01*
X167Y162D02*
X472Y162D01*
X1878Y162D02*
X1885Y162D01*
X0Y161D02*
X7Y161D01*
X168Y161D02*
X471Y161D01*
X1878Y161D02*
X1885Y161D01*
X0Y160D02*
X7Y160D01*
X1878Y160D02*
X1885Y160D01*
X0Y159D02*
X7Y159D01*
X1878Y159D02*
X1885Y159D01*
X0Y158D02*
X7Y158D01*
X1878Y158D02*
X1885Y158D01*
X0Y157D02*
X7Y157D01*
X1878Y157D02*
X1885Y157D01*
X0Y156D02*
X7Y156D01*
X1878Y156D02*
X1885Y156D01*
X0Y155D02*
X7Y155D01*
X1878Y155D02*
X1885Y155D01*
X0Y154D02*
X7Y154D01*
X1878Y154D02*
X1885Y154D01*
X0Y153D02*
X7Y153D01*
X1878Y153D02*
X1885Y153D01*
X0Y152D02*
X7Y152D01*
X1878Y152D02*
X1885Y152D01*
X0Y151D02*
X7Y151D01*
X1878Y151D02*
X1885Y151D01*
X0Y150D02*
X7Y150D01*
X1878Y150D02*
X1885Y150D01*
X0Y149D02*
X7Y149D01*
X1878Y149D02*
X1885Y149D01*
X0Y148D02*
X7Y148D01*
X1878Y148D02*
X1885Y148D01*
X0Y147D02*
X7Y147D01*
X1878Y147D02*
X1885Y147D01*
X0Y146D02*
X7Y146D01*
X1878Y146D02*
X1885Y146D01*
X0Y145D02*
X7Y145D01*
X1878Y145D02*
X1885Y145D01*
X0Y144D02*
X7Y144D01*
X1878Y144D02*
X1885Y144D01*
X0Y143D02*
X7Y143D01*
X1878Y143D02*
X1885Y143D01*
X0Y142D02*
X7Y142D01*
X1878Y142D02*
X1885Y142D01*
X0Y141D02*
X7Y141D01*
X1878Y141D02*
X1885Y141D01*
X0Y140D02*
X7Y140D01*
X1878Y140D02*
X1885Y140D01*
X0Y139D02*
X7Y139D01*
X1878Y139D02*
X1885Y139D01*
X0Y138D02*
X7Y138D01*
X1878Y138D02*
X1885Y138D01*
X0Y137D02*
X7Y137D01*
X1878Y137D02*
X1885Y137D01*
X0Y136D02*
X7Y136D01*
X1878Y136D02*
X1885Y136D01*
X0Y135D02*
X7Y135D01*
X1878Y135D02*
X1885Y135D01*
X0Y134D02*
X7Y134D01*
X483Y134D02*
X535Y134D01*
X1878Y134D02*
X1885Y134D01*
X0Y133D02*
X7Y133D01*
X482Y133D02*
X535Y133D01*
X1878Y133D02*
X1885Y133D01*
X0Y132D02*
X7Y132D01*
X482Y132D02*
X535Y132D01*
X1878Y132D02*
X1885Y132D01*
X0Y131D02*
X7Y131D01*
X482Y131D02*
X535Y131D01*
X1878Y131D02*
X1885Y131D01*
X0Y130D02*
X7Y130D01*
X482Y130D02*
X535Y130D01*
X1878Y130D02*
X1885Y130D01*
X0Y129D02*
X7Y129D01*
X482Y129D02*
X535Y129D01*
X1878Y129D02*
X1885Y129D01*
X0Y128D02*
X7Y128D01*
X484Y128D02*
X535Y128D01*
X1878Y128D02*
X1885Y128D01*
X0Y127D02*
X7Y127D01*
X511Y127D02*
X517Y127D01*
X529Y127D02*
X535Y127D01*
X1878Y127D02*
X1885Y127D01*
X0Y126D02*
X7Y126D01*
X511Y126D02*
X517Y126D01*
X529Y126D02*
X535Y126D01*
X1878Y126D02*
X1885Y126D01*
X0Y125D02*
X7Y125D01*
X511Y125D02*
X517Y125D01*
X529Y125D02*
X535Y125D01*
X1878Y125D02*
X1885Y125D01*
X0Y124D02*
X7Y124D01*
X511Y124D02*
X517Y124D01*
X529Y124D02*
X535Y124D01*
X1878Y124D02*
X1885Y124D01*
X0Y123D02*
X7Y123D01*
X511Y123D02*
X517Y123D01*
X529Y123D02*
X535Y123D01*
X1878Y123D02*
X1885Y123D01*
X0Y122D02*
X7Y122D01*
X510Y122D02*
X517Y122D01*
X529Y122D02*
X535Y122D01*
X1878Y122D02*
X1885Y122D01*
X0Y121D02*
X7Y121D01*
X508Y121D02*
X517Y121D01*
X529Y121D02*
X535Y121D01*
X1878Y121D02*
X1885Y121D01*
X0Y120D02*
X7Y120D01*
X506Y120D02*
X517Y120D01*
X529Y120D02*
X535Y120D01*
X1878Y120D02*
X1885Y120D01*
X0Y119D02*
X7Y119D01*
X505Y119D02*
X517Y119D01*
X529Y119D02*
X535Y119D01*
X1878Y119D02*
X1885Y119D01*
X0Y118D02*
X7Y118D01*
X503Y118D02*
X517Y118D01*
X529Y118D02*
X535Y118D01*
X1878Y118D02*
X1885Y118D01*
X0Y117D02*
X7Y117D01*
X501Y117D02*
X517Y117D01*
X529Y117D02*
X535Y117D01*
X1878Y117D02*
X1885Y117D01*
X0Y116D02*
X7Y116D01*
X500Y116D02*
X517Y116D01*
X529Y116D02*
X535Y116D01*
X1878Y116D02*
X1885Y116D01*
X0Y115D02*
X7Y115D01*
X498Y115D02*
X517Y115D01*
X529Y115D02*
X535Y115D01*
X1878Y115D02*
X1885Y115D01*
X0Y114D02*
X7Y114D01*
X496Y114D02*
X509Y114D01*
X511Y114D02*
X517Y114D01*
X529Y114D02*
X535Y114D01*
X1878Y114D02*
X1885Y114D01*
X0Y113D02*
X7Y113D01*
X494Y113D02*
X507Y113D01*
X511Y113D02*
X517Y113D01*
X529Y113D02*
X535Y113D01*
X1878Y113D02*
X1885Y113D01*
X0Y112D02*
X7Y112D01*
X493Y112D02*
X506Y112D01*
X511Y112D02*
X517Y112D01*
X529Y112D02*
X535Y112D01*
X1878Y112D02*
X1885Y112D01*
X0Y111D02*
X7Y111D01*
X491Y111D02*
X504Y111D01*
X511Y111D02*
X517Y111D01*
X529Y111D02*
X535Y111D01*
X1878Y111D02*
X1885Y111D01*
X0Y110D02*
X7Y110D01*
X489Y110D02*
X502Y110D01*
X511Y110D02*
X517Y110D01*
X529Y110D02*
X535Y110D01*
X1878Y110D02*
X1885Y110D01*
X0Y109D02*
X7Y109D01*
X488Y109D02*
X501Y109D01*
X511Y109D02*
X518Y109D01*
X528Y109D02*
X535Y109D01*
X1878Y109D02*
X1885Y109D01*
X0Y108D02*
X7Y108D01*
X486Y108D02*
X499Y108D01*
X511Y108D02*
X518Y108D01*
X528Y108D02*
X535Y108D01*
X1878Y108D02*
X1885Y108D01*
X0Y107D02*
X7Y107D01*
X484Y107D02*
X497Y107D01*
X512Y107D02*
X521Y107D01*
X525Y107D02*
X534Y107D01*
X1878Y107D02*
X1885Y107D01*
X0Y106D02*
X7Y106D01*
X483Y106D02*
X495Y106D01*
X512Y106D02*
X534Y106D01*
X1878Y106D02*
X1885Y106D01*
X0Y105D02*
X7Y105D01*
X482Y105D02*
X494Y105D01*
X513Y105D02*
X533Y105D01*
X1878Y105D02*
X1885Y105D01*
X0Y104D02*
X7Y104D01*
X482Y104D02*
X492Y104D01*
X514Y104D02*
X532Y104D01*
X1878Y104D02*
X1885Y104D01*
X0Y103D02*
X7Y103D01*
X482Y103D02*
X490Y103D01*
X514Y103D02*
X532Y103D01*
X1878Y103D02*
X1885Y103D01*
X0Y102D02*
X7Y102D01*
X482Y102D02*
X489Y102D01*
X516Y102D02*
X530Y102D01*
X1878Y102D02*
X1885Y102D01*
X0Y101D02*
X7Y101D01*
X483Y101D02*
X487Y101D01*
X517Y101D02*
X529Y101D01*
X1878Y101D02*
X1885Y101D01*
X0Y100D02*
X7Y100D01*
X521Y100D02*
X525Y100D01*
X1878Y100D02*
X1885Y100D01*
X0Y99D02*
X7Y99D01*
X1878Y99D02*
X1885Y99D01*
X0Y98D02*
X7Y98D01*
X1878Y98D02*
X1885Y98D01*
X0Y97D02*
X7Y97D01*
X1878Y97D02*
X1885Y97D01*
X0Y96D02*
X7Y96D01*
X1878Y96D02*
X1885Y96D01*
X0Y95D02*
X7Y95D01*
X1878Y95D02*
X1885Y95D01*
X0Y94D02*
X7Y94D01*
X1878Y94D02*
X1885Y94D01*
X0Y93D02*
X7Y93D01*
X1878Y93D02*
X1885Y93D01*
X0Y92D02*
X7Y92D01*
X1878Y92D02*
X1885Y92D01*
X0Y91D02*
X7Y91D01*
X1878Y91D02*
X1885Y91D01*
X0Y90D02*
X7Y90D01*
X1878Y90D02*
X1885Y90D01*
X0Y89D02*
X7Y89D01*
X1878Y89D02*
X1885Y89D01*
X0Y88D02*
X7Y88D01*
X1878Y88D02*
X1885Y88D01*
X0Y87D02*
X7Y87D01*
X1878Y87D02*
X1885Y87D01*
X0Y86D02*
X7Y86D01*
X1878Y86D02*
X1885Y86D01*
X0Y85D02*
X7Y85D01*
X1878Y85D02*
X1885Y85D01*
X0Y84D02*
X7Y84D01*
X483Y84D02*
X486Y84D01*
X531Y84D02*
X533Y84D01*
X1878Y84D02*
X1885Y84D01*
X0Y83D02*
X7Y83D01*
X482Y83D02*
X487Y83D01*
X529Y83D02*
X534Y83D01*
X1878Y83D02*
X1885Y83D01*
X0Y82D02*
X7Y82D01*
X482Y82D02*
X488Y82D01*
X529Y82D02*
X535Y82D01*
X1878Y82D02*
X1885Y82D01*
X0Y81D02*
X7Y81D01*
X482Y81D02*
X488Y81D01*
X529Y81D02*
X535Y81D01*
X1878Y81D02*
X1885Y81D01*
X0Y80D02*
X7Y80D01*
X482Y80D02*
X488Y80D01*
X529Y80D02*
X535Y80D01*
X1878Y80D02*
X1885Y80D01*
X0Y79D02*
X7Y79D01*
X482Y79D02*
X488Y79D01*
X529Y79D02*
X535Y79D01*
X1878Y79D02*
X1885Y79D01*
X0Y78D02*
X7Y78D01*
X482Y78D02*
X488Y78D01*
X529Y78D02*
X535Y78D01*
X1878Y78D02*
X1885Y78D01*
X0Y77D02*
X7Y77D01*
X482Y77D02*
X488Y77D01*
X507Y77D02*
X510Y77D01*
X529Y77D02*
X535Y77D01*
X1878Y77D02*
X1885Y77D01*
X0Y76D02*
X7Y76D01*
X482Y76D02*
X488Y76D01*
X506Y76D02*
X511Y76D01*
X529Y76D02*
X535Y76D01*
X1878Y76D02*
X1885Y76D01*
X0Y75D02*
X7Y75D01*
X482Y75D02*
X488Y75D01*
X505Y75D02*
X511Y75D01*
X529Y75D02*
X535Y75D01*
X1878Y75D02*
X1885Y75D01*
X0Y74D02*
X7Y74D01*
X482Y74D02*
X488Y74D01*
X505Y74D02*
X511Y74D01*
X529Y74D02*
X535Y74D01*
X1878Y74D02*
X1885Y74D01*
X0Y73D02*
X7Y73D01*
X482Y73D02*
X488Y73D01*
X505Y73D02*
X511Y73D01*
X529Y73D02*
X535Y73D01*
X1878Y73D02*
X1885Y73D01*
X0Y72D02*
X7Y72D01*
X482Y72D02*
X488Y72D01*
X505Y72D02*
X511Y72D01*
X529Y72D02*
X535Y72D01*
X1878Y72D02*
X1885Y72D01*
X0Y71D02*
X7Y71D01*
X482Y71D02*
X488Y71D01*
X505Y71D02*
X511Y71D01*
X529Y71D02*
X535Y71D01*
X1878Y71D02*
X1885Y71D01*
X0Y70D02*
X7Y70D01*
X482Y70D02*
X488Y70D01*
X505Y70D02*
X511Y70D01*
X529Y70D02*
X535Y70D01*
X1878Y70D02*
X1885Y70D01*
X0Y69D02*
X7Y69D01*
X482Y69D02*
X488Y69D01*
X505Y69D02*
X511Y69D01*
X529Y69D02*
X535Y69D01*
X1878Y69D02*
X1885Y69D01*
X0Y68D02*
X7Y68D01*
X482Y68D02*
X488Y68D01*
X505Y68D02*
X511Y68D01*
X529Y68D02*
X535Y68D01*
X1878Y68D02*
X1885Y68D01*
X0Y67D02*
X7Y67D01*
X482Y67D02*
X488Y67D01*
X505Y67D02*
X511Y67D01*
X529Y67D02*
X535Y67D01*
X1878Y67D02*
X1885Y67D01*
X0Y66D02*
X7Y66D01*
X482Y66D02*
X488Y66D01*
X505Y66D02*
X511Y66D01*
X529Y66D02*
X535Y66D01*
X1878Y66D02*
X1885Y66D01*
X0Y65D02*
X7Y65D01*
X482Y65D02*
X488Y65D01*
X505Y65D02*
X511Y65D01*
X529Y65D02*
X535Y65D01*
X1878Y65D02*
X1885Y65D01*
X0Y64D02*
X7Y64D01*
X482Y64D02*
X488Y64D01*
X505Y64D02*
X511Y64D01*
X529Y64D02*
X535Y64D01*
X1878Y64D02*
X1885Y64D01*
X0Y63D02*
X7Y63D01*
X482Y63D02*
X488Y63D01*
X505Y63D02*
X511Y63D01*
X529Y63D02*
X535Y63D01*
X1878Y63D02*
X1885Y63D01*
X0Y62D02*
X7Y62D01*
X482Y62D02*
X488Y62D01*
X505Y62D02*
X511Y62D01*
X529Y62D02*
X535Y62D01*
X1878Y62D02*
X1885Y62D01*
X0Y61D02*
X7Y61D01*
X482Y61D02*
X488Y61D01*
X505Y61D02*
X511Y61D01*
X529Y61D02*
X535Y61D01*
X1878Y61D02*
X1885Y61D01*
X0Y60D02*
X7Y60D01*
X482Y60D02*
X488Y60D01*
X505Y60D02*
X511Y60D01*
X529Y60D02*
X535Y60D01*
X1878Y60D02*
X1885Y60D01*
X0Y59D02*
X7Y59D01*
X482Y59D02*
X488Y59D01*
X505Y59D02*
X512Y59D01*
X529Y59D02*
X535Y59D01*
X1878Y59D02*
X1885Y59D01*
X0Y58D02*
X7Y58D01*
X482Y58D02*
X488Y58D01*
X504Y58D02*
X513Y58D01*
X529Y58D02*
X535Y58D01*
X1878Y58D02*
X1885Y58D01*
X0Y57D02*
X7Y57D01*
X482Y57D02*
X535Y57D01*
X1878Y57D02*
X1885Y57D01*
X0Y56D02*
X7Y56D01*
X482Y56D02*
X535Y56D01*
X1878Y56D02*
X1885Y56D01*
X0Y55D02*
X7Y55D01*
X482Y55D02*
X535Y55D01*
X1878Y55D02*
X1885Y55D01*
X0Y54D02*
X7Y54D01*
X482Y54D02*
X534Y54D01*
X1878Y54D02*
X1885Y54D01*
X0Y53D02*
X7Y53D01*
X483Y53D02*
X534Y53D01*
X1878Y53D02*
X1885Y53D01*
X0Y52D02*
X7Y52D01*
X484Y52D02*
X507Y52D01*
X510Y52D02*
X533Y52D01*
X1878Y52D02*
X1885Y52D01*
X0Y51D02*
X7Y51D01*
X485Y51D02*
X505Y51D01*
X511Y51D02*
X531Y51D01*
X1878Y51D02*
X1885Y51D01*
X0Y50D02*
X7Y50D01*
X489Y50D02*
X501Y50D01*
X516Y50D02*
X528Y50D01*
X1878Y50D02*
X1885Y50D01*
X0Y49D02*
X7Y49D01*
X1878Y49D02*
X1885Y49D01*
X0Y48D02*
X7Y48D01*
X1878Y48D02*
X1885Y48D01*
X0Y47D02*
X7Y47D01*
X1878Y47D02*
X1885Y47D01*
X0Y46D02*
X7Y46D01*
X1878Y46D02*
X1885Y46D01*
X0Y45D02*
X7Y45D01*
X1878Y45D02*
X1885Y45D01*
X0Y44D02*
X7Y44D01*
X1878Y44D02*
X1885Y44D01*
X0Y43D02*
X7Y43D01*
X1878Y43D02*
X1885Y43D01*
X0Y42D02*
X7Y42D01*
X1878Y42D02*
X1885Y42D01*
X0Y41D02*
X7Y41D01*
X1878Y41D02*
X1885Y41D01*
X0Y40D02*
X7Y40D01*
X1878Y40D02*
X1885Y40D01*
X0Y39D02*
X7Y39D01*
X1878Y39D02*
X1885Y39D01*
X0Y38D02*
X7Y38D01*
X1878Y38D02*
X1885Y38D01*
X0Y37D02*
X7Y37D01*
X1878Y37D02*
X1885Y37D01*
X0Y36D02*
X7Y36D01*
X1878Y36D02*
X1885Y36D01*
X0Y35D02*
X7Y35D01*
X1878Y35D02*
X1885Y35D01*
X0Y34D02*
X7Y34D01*
X1878Y34D02*
X1885Y34D01*
X0Y33D02*
X7Y33D01*
X1878Y33D02*
X1885Y33D01*
X0Y32D02*
X7Y32D01*
X1878Y32D02*
X1885Y32D01*
X0Y31D02*
X7Y31D01*
X1878Y31D02*
X1885Y31D01*
X0Y30D02*
X7Y30D01*
X1878Y30D02*
X1885Y30D01*
X0Y29D02*
X7Y29D01*
X1878Y29D02*
X1885Y29D01*
X0Y28D02*
X7Y28D01*
X1878Y28D02*
X1885Y28D01*
X0Y27D02*
X7Y27D01*
X1878Y27D02*
X1885Y27D01*
X0Y26D02*
X7Y26D01*
X1878Y26D02*
X1885Y26D01*
X0Y25D02*
X7Y25D01*
X1878Y25D02*
X1885Y25D01*
X0Y24D02*
X7Y24D01*
X1878Y24D02*
X1885Y24D01*
X0Y23D02*
X7Y23D01*
X1878Y23D02*
X1885Y23D01*
X0Y22D02*
X7Y22D01*
X1878Y22D02*
X1885Y22D01*
X0Y21D02*
X7Y21D01*
X1878Y21D02*
X1885Y21D01*
X0Y20D02*
X7Y20D01*
X1878Y20D02*
X1885Y20D01*
X0Y19D02*
X7Y19D01*
X1878Y19D02*
X1885Y19D01*
X0Y18D02*
X7Y18D01*
X1878Y18D02*
X1885Y18D01*
X0Y17D02*
X7Y17D01*
X1878Y17D02*
X1885Y17D01*
X0Y16D02*
X7Y16D01*
X1878Y16D02*
X1885Y16D01*
X0Y15D02*
X7Y15D01*
X1878Y15D02*
X1885Y15D01*
X0Y14D02*
X7Y14D01*
X1878Y14D02*
X1885Y14D01*
X0Y13D02*
X7Y13D01*
X1878Y13D02*
X1885Y13D01*
X0Y12D02*
X7Y12D01*
X1878Y12D02*
X1885Y12D01*
X0Y11D02*
X7Y11D01*
X1878Y11D02*
X1885Y11D01*
X0Y10D02*
X7Y10D01*
X1878Y10D02*
X1885Y10D01*
X0Y9D02*
X1885Y9D01*
X0Y8D02*
X1885Y8D01*
X0Y7D02*
X1885Y7D01*
X0Y6D02*
X1885Y6D01*
X0Y5D02*
X1885Y5D01*
X0Y4D02*
X1885Y4D01*
X0Y3D02*
X1885Y3D01*
X0Y2D02*
X1885Y2D01*
D02*
G04 End of Silk0*
M02*