; NON-PLATED HOLES START AT T1
; THROUGH (PLATED) HOLES START AT T100
M48
INCH
T1C0.086614
T100C0.035000
T101C0.029000
T102C0.038000
%
T1
X017261Y012506
X017261Y000989
X001261Y012506
X004261Y005989
T100
X009261Y002989
X001261Y008989
X009261Y004989
X010261Y010989
X006261Y007989
X014261Y010989
X016261Y010989
X015261Y009989
X006261Y005989
X016261Y004989
X014261Y003989
X013261Y009989
X008261Y010989
X009261Y006989
X014261Y001989
X009261Y003989
X016261Y009989
X009261Y005989
X006261Y006989
X011261Y009989
X013261Y004989
X006261Y002989
X006261Y003989
X006261Y008989
X006261Y010989
X009261Y008989
X005261Y008989
X003261Y010989
X015261Y010989
X004261Y010989
X006261Y004989
X012261Y009989
X014261Y002989
X011261Y010989
X009261Y010989
X014261Y009989
X012261Y010989
X013261Y000989
X009261Y007989
X014261Y005989
X012261Y003989
X011261Y001989
X001261Y010989
X007261Y010989
X009261Y001989
X005261Y010989
X006261Y001989
X002261Y010989
X015261Y003989
X007261Y000989
X013261Y010989
T101
X003201Y001989
X004261Y002989
X002141Y002989
T102
X017261Y001989
X017261Y006989
X017261Y005989
X017261Y002989
T00
M30
